STARTFONT 2.1
COMMENT
COMMENT Converted from OpenType font "RobotoMono-Regular.ttf" by "otf2bdf 3.0".
COMMENT
FONT -FreeType-Roboto Mono-Medium-R-Normal--19-140-100-100-P-91-ISO10646-1
SIZE 14 100 100
FONTBOUNDINGBOX 24 25 -9 -5
STARTPROPERTIES 19
FOUNDRY "FreeType"
FAMILY_NAME "Roboto Mono"
WEIGHT_NAME "Medium"
SLANT "R"
SETWIDTH_NAME "Normal"
ADD_STYLE_NAME ""
PIXEL_SIZE 19
POINT_SIZE 140
RESOLUTION_X 100
RESOLUTION_Y 100
SPACING "P"
AVERAGE_WIDTH 91
CHARSET_REGISTRY "ISO10646"
CHARSET_ENCODING "1"
FONT_ASCENT 19
FONT_DESCENT 5
COPYRIGHT "Copyright 2015 The Roboto Mono Project Authors (https://github.com/googlefonts/robotomono)"
_OTF_FONTFILE "RobotoMono-Regular.ttf"
_OTF_PSNAME "RobotoMono-Regular"
ENDPROPERTIES
CHARS 876
STARTCHAR 000D
ENCODING 13
SWIDTH 565 0
DWIDTH 11 0
BBX 0 0 0 0
BITMAP
ENDCHAR
STARTCHAR 0020
ENCODING 32
SWIDTH 565 0
DWIDTH 11 0
BBX 0 0 0 0
BITMAP
ENDCHAR
STARTCHAR 0021
ENCODING 33
SWIDTH 565 0
DWIDTH 11 0
BBX 2 14 5 0
BITMAP
80
80
80
80
80
80
80
80
80
80
00
00
80
C0
ENDCHAR
STARTCHAR 0022
ENCODING 34
SWIDTH 565 0
DWIDTH 11 0
BBX 5 4 3 10
BITMAP
C8
C8
C8
C8
ENDCHAR
STARTCHAR 0023
ENCODING 35
SWIDTH 565 0
DWIDTH 11 0
BBX 10 14 1 0
BITMAP
0980
1980
1900
1100
FFC0
FFC0
1300
3200
2200
FF80
2200
2600
6400
4400
ENDCHAR
STARTCHAR 0024
ENCODING 36
SWIDTH 565 0
DWIDTH 11 0
BBX 8 18 2 -2
BITMAP
18
18
18
7E
C3
C3
C3
C0
70
3E
07
03
83
C3
E7
7E
18
18
ENDCHAR
STARTCHAR 0025
ENCODING 37
SWIDTH 565 0
DWIDTH 11 0
BBX 11 14 0 0
BITMAP
3000
5800
C880
C900
4900
7A00
0600
0400
0DC0
0B60
1A20
1220
0260
01C0
ENDCHAR
STARTCHAR 0026
ENCODING 38
SWIDTH 565 0
DWIDTH 11 0
BBX 10 14 1 0
BITMAP
1C00
3E00
6200
6200
6600
3C00
3800
3800
6CC0
C6C0
C680
C380
6780
3EC0
ENDCHAR
STARTCHAR 0027
ENCODING 39
SWIDTH 565 0
DWIDTH 11 0
BBX 1 4 5 10
BITMAP
80
80
80
80
ENDCHAR
STARTCHAR 0028
ENCODING 40
SWIDTH 565 0
DWIDTH 11 0
BBX 5 19 3 -4
BITMAP
08
18
30
20
60
60
40
C0
C0
C0
C0
C0
40
40
60
20
30
10
08
ENDCHAR
STARTCHAR 0029
ENCODING 41
SWIDTH 565 0
DWIDTH 11 0
BBX 5 19 3 -4
BITMAP
80
40
60
30
30
10
18
18
18
18
18
18
18
10
30
30
20
40
80
ENDCHAR
STARTCHAR 002A
ENCODING 42
SWIDTH 565 0
DWIDTH 11 0
BBX 9 10 1 4
BITMAP
0C00
0C00
0C00
4C80
FF80
0C00
1E00
3200
3300
2200
ENDCHAR
STARTCHAR 002B
ENCODING 43
SWIDTH 565 0
DWIDTH 11 0
BBX 9 10 1 1
BITMAP
0C00
0C00
0C00
0C00
FF80
0C00
0C00
0C00
0C00
0C00
ENDCHAR
STARTCHAR 002C
ENCODING 44
SWIDTH 565 0
DWIDTH 11 0
BBX 3 5 3 -3
BITMAP
60
60
60
60
C0
ENDCHAR
STARTCHAR 002D
ENCODING 45
SWIDTH 565 0
DWIDTH 11 0
BBX 7 2 2 5
BITMAP
FE
FE
ENDCHAR
STARTCHAR 002E
ENCODING 46
SWIDTH 565 0
DWIDTH 11 0
BBX 2 2 5 0
BITMAP
C0
C0
ENDCHAR
STARTCHAR 002F
ENCODING 47
SWIDTH 565 0
DWIDTH 11 0
BBX 8 15 2 -1
BITMAP
03
02
06
04
0C
0C
08
18
10
10
30
20
60
60
C0
ENDCHAR
STARTCHAR 0030
ENCODING 48
SWIDTH 565 0
DWIDTH 11 0
BBX 9 14 1 0
BITMAP
1C00
3F00
6100
4180
C180
C380
C780
DD80
F180
E180
C180
6180
6300
3E00
ENDCHAR
STARTCHAR 0031
ENCODING 49
SWIDTH 565 0
DWIDTH 11 0
BBX 5 14 2 0
BITMAP
08
38
F8
98
18
18
18
18
18
18
18
18
18
18
ENDCHAR
STARTCHAR 0032
ENCODING 50
SWIDTH 565 0
DWIDTH 11 0
BBX 9 14 1 0
BITMAP
1C00
7E00
C300
C300
0100
0300
0200
0600
0C00
1800
3000
6000
C000
FF80
ENDCHAR
STARTCHAR 0033
ENCODING 51
SWIDTH 565 0
DWIDTH 11 0
BBX 8 14 1 0
BITMAP
1C
7E
C3
C3
03
03
1E
1E
03
01
C1
C3
E3
3E
ENDCHAR
STARTCHAR 0034
ENCODING 52
SWIDTH 565 0
DWIDTH 11 0
BBX 9 14 1 0
BITMAP
0300
0700
0F00
0B00
1B00
1300
3300
6300
4300
FF80
FF80
0300
0300
0300
ENDCHAR
STARTCHAR 0035
ENCODING 53
SWIDTH 565 0
DWIDTH 11 0
BBX 8 14 2 0
BITMAP
7F
7F
40
40
40
DC
FE
43
03
01
83
C3
E7
7E
ENDCHAR
STARTCHAR 0036
ENCODING 54
SWIDTH 565 0
DWIDTH 11 0
BBX 9 14 1 0
BITMAP
0200
1E00
3000
6000
6000
5E00
FF00
E100
C180
C180
C180
6180
7300
3E00
ENDCHAR
STARTCHAR 0037
ENCODING 55
SWIDTH 565 0
DWIDTH 11 0
BBX 9 14 1 0
BITMAP
FF80
FF80
0180
0100
0300
0200
0600
0400
0C00
0C00
1800
1800
3000
3000
ENDCHAR
STARTCHAR 0038
ENCODING 56
SWIDTH 565 0
DWIDTH 11 0
BBX 8 14 2 0
BITMAP
18
7E
C3
C3
C3
C3
7E
7E
C3
83
81
C3
E7
7E
ENDCHAR
STARTCHAR 0039
ENCODING 57
SWIDTH 565 0
DWIDTH 11 0
BBX 9 14 1 0
BITMAP
1C00
3E00
6300
4180
C180
C180
4180
6380
3F80
0180
0100
0300
3E00
3800
ENDCHAR
STARTCHAR 003A
ENCODING 58
SWIDTH 565 0
DWIDTH 11 0
BBX 2 10 5 0
BITMAP
C0
C0
00
00
00
00
00
00
C0
C0
ENDCHAR
STARTCHAR 003B
ENCODING 59
SWIDTH 565 0
DWIDTH 11 0
BBX 3 13 4 -3
BITMAP
60
60
00
00
00
00
00
00
60
60
60
60
C0
ENDCHAR
STARTCHAR 003C
ENCODING 60
SWIDTH 565 0
DWIDTH 11 0
BBX 7 8 2 2
BITMAP
02
0E
78
E0
E0
78
0E
02
ENDCHAR
STARTCHAR 003D
ENCODING 61
SWIDTH 565 0
DWIDTH 11 0
BBX 8 6 2 3
BITMAP
FF
FF
00
00
FF
FF
ENDCHAR
STARTCHAR 003E
ENCODING 62
SWIDTH 565 0
DWIDTH 11 0
BBX 8 8 2 2
BITMAP
80
F0
3C
07
07
3C
F0
80
ENDCHAR
STARTCHAR 003F
ENCODING 63
SWIDTH 565 0
DWIDTH 11 0
BBX 8 14 2 0
BITMAP
38
7E
C3
83
03
06
06
0C
18
10
00
00
18
18
ENDCHAR
STARTCHAR 0040
ENCODING 64
SWIDTH 565 0
DWIDTH 11 0
BBX 10 14 1 0
BITMAP
0400
3F00
6180
4C80
9A40
9240
B240
A240
A240
B680
9B00
C000
6200
3E00
ENDCHAR
STARTCHAR 0041
ENCODING 65
SWIDTH 565 0
DWIDTH 11 0
BBX 10 14 1 0
BITMAP
0C00
0C00
1C00
1E00
1600
3200
3200
2300
2300
7F00
6180
4180
C080
C0C0
ENDCHAR
STARTCHAR 0042
ENCODING 66
SWIDTH 565 0
DWIDTH 11 0
BBX 8 14 2 0
BITMAP
F0
FE
83
83
83
83
FE
FE
83
81
81
83
8F
FC
ENDCHAR
STARTCHAR 0043
ENCODING 67
SWIDTH 565 0
DWIDTH 11 0
BBX 9 14 1 0
BITMAP
1C00
3F00
6180
C180
C080
C000
C000
C000
C000
C000
C080
4180
7300
3E00
ENDCHAR
STARTCHAR 0044
ENCODING 68
SWIDTH 565 0
DWIDTH 11 0
BBX 10 14 1 0
BITMAP
F000
FE00
C300
C180
C180
C080
C0C0
C0C0
C0C0
C080
C180
C180
C700
FC00
ENDCHAR
STARTCHAR 0045
ENCODING 69
SWIDTH 565 0
DWIDTH 11 0
BBX 8 14 2 0
BITMAP
FF
FF
80
80
80
80
FE
FE
80
80
80
80
80
FF
ENDCHAR
STARTCHAR 0046
ENCODING 70
SWIDTH 565 0
DWIDTH 11 0
BBX 8 14 2 0
BITMAP
FF
FF
C0
C0
C0
C0
C0
FE
C0
C0
C0
C0
C0
C0
ENDCHAR
STARTCHAR 0047
ENCODING 71
SWIDTH 565 0
DWIDTH 11 0
BBX 9 14 1 0
BITMAP
1C00
3F00
6180
C180
C000
C000
C000
C780
C780
C080
C080
6080
7180
1F00
ENDCHAR
STARTCHAR 0048
ENCODING 72
SWIDTH 565 0
DWIDTH 11 0
BBX 9 14 1 0
BITMAP
C180
C180
C180
C180
C180
C180
FF80
FF80
C180
C180
C180
C180
C180
C180
ENDCHAR
STARTCHAR 0049
ENCODING 73
SWIDTH 565 0
DWIDTH 11 0
BBX 8 14 2 0
BITMAP
FF
FF
18
18
18
18
18
18
18
18
18
18
18
FF
ENDCHAR
STARTCHAR 004A
ENCODING 74
SWIDTH 565 0
DWIDTH 11 0
BBX 9 14 1 0
BITMAP
0180
0180
0180
0180
0180
0180
0180
0180
0180
0180
C180
C100
6700
3E00
ENDCHAR
STARTCHAR 004B
ENCODING 75
SWIDTH 565 0
DWIDTH 11 0
BBX 9 14 2 0
BITMAP
8180
8300
8600
8C00
9C00
9800
B000
F800
D800
8C00
8600
8600
8300
8180
ENDCHAR
STARTCHAR 004C
ENCODING 76
SWIDTH 565 0
DWIDTH 11 0
BBX 8 14 2 0
BITMAP
C0
C0
C0
C0
C0
C0
C0
C0
C0
C0
C0
C0
C0
FF
ENDCHAR
STARTCHAR 004D
ENCODING 77
SWIDTH 565 0
DWIDTH 11 0
BBX 9 14 1 0
BITMAP
E180
E180
E380
E280
F280
D680
D480
DC80
CC80
C880
C080
C080
C080
C080
ENDCHAR
STARTCHAR 004E
ENCODING 78
SWIDTH 565 0
DWIDTH 11 0
BBX 9 14 1 0
BITMAP
C180
E180
E180
F180
F180
D980
D980
CD80
CD80
C780
C380
C380
C180
C180
ENDCHAR
STARTCHAR 004F
ENCODING 79
SWIDTH 565 0
DWIDTH 11 0
BBX 9 14 1 0
BITMAP
1C00
3F00
6300
4180
C180
C080
C080
C080
C080
C080
C180
6180
7300
3E00
ENDCHAR
STARTCHAR 0050
ENCODING 80
SWIDTH 565 0
DWIDTH 11 0
BBX 9 14 2 0
BITMAP
F000
FE00
8300
8180
8180
8180
8300
FE00
F800
8000
8000
8000
8000
8000
ENDCHAR
STARTCHAR 0051
ENCODING 81
SWIDTH 565 0
DWIDTH 11 0
BBX 10 16 1 -2
BITMAP
1C00
3F00
6100
C180
C080
C080
C0C0
C0C0
C080
C080
C180
4180
7300
3F00
0180
00C0
ENDCHAR
STARTCHAR 0052
ENCODING 82
SWIDTH 565 0
DWIDTH 11 0
BBX 9 14 2 0
BITMAP
F000
FE00
8300
8300
8300
8300
8300
FE00
8C00
8400
8600
8200
8300
8380
ENDCHAR
STARTCHAR 0053
ENCODING 83
SWIDTH 565 0
DWIDTH 11 0
BBX 9 14 1 0
BITMAP
1C00
3F00
6180
C180
4000
6000
3800
1F00
0380
0180
C080
C180
7380
3F00
ENDCHAR
STARTCHAR 0054
ENCODING 84
SWIDTH 565 0
DWIDTH 11 0
BBX 10 14 1 0
BITMAP
FFC0
FFC0
0C00
0C00
0C00
0C00
0C00
0C00
0C00
0C00
0C00
0C00
0C00
0C00
ENDCHAR
STARTCHAR 0055
ENCODING 85
SWIDTH 565 0
DWIDTH 11 0
BBX 9 14 1 0
BITMAP
C180
C180
C180
C180
C180
C180
C180
C180
C180
C180
C180
4180
7300
3E00
ENDCHAR
STARTCHAR 0056
ENCODING 86
SWIDTH 565 0
DWIDTH 11 0
BBX 10 14 1 0
BITMAP
C0C0
C080
C180
4180
6100
6300
2300
3200
3600
1600
1600
1C00
1C00
0C00
ENDCHAR
STARTCHAR 0057
ENCODING 87
SWIDTH 565 0
DWIDTH 11 0
BBX 10 14 1 0
BITMAP
8CC0
8CC0
CCC0
CCC0
DC80
DC80
D680
5680
5280
7380
7380
7380
6380
6300
ENDCHAR
STARTCHAR 0058
ENCODING 88
SWIDTH 565 0
DWIDTH 11 0
BBX 10 14 1 0
BITMAP
C0C0
4180
6180
3300
3200
1E00
1C00
0C00
1E00
3600
3300
6300
6180
C0C0
ENDCHAR
STARTCHAR 0059
ENCODING 89
SWIDTH 565 0
DWIDTH 11 0
BBX 10 14 1 0
BITMAP
C0C0
C180
4180
6300
2300
3600
1600
1C00
0C00
0800
0800
0800
0800
0800
ENDCHAR
STARTCHAR 005A
ENCODING 90
SWIDTH 565 0
DWIDTH 11 0
BBX 9 14 1 0
BITMAP
FF80
FF80
0300
0300
0600
0400
0C00
1800
1800
3000
6000
6000
C000
FF80
ENDCHAR
STARTCHAR 005B
ENCODING 91
SWIDTH 565 0
DWIDTH 11 0
BBX 4 18 4 -3
BITMAP
F0
C0
C0
C0
C0
C0
C0
C0
C0
C0
C0
C0
C0
C0
C0
C0
F0
F0
ENDCHAR
STARTCHAR 005C
ENCODING 92
SWIDTH 565 0
DWIDTH 11 0
BBX 7 15 2 -1
BITMAP
C0
40
40
60
20
30
30
10
18
08
0C
0C
04
06
02
ENDCHAR
STARTCHAR 005D
ENCODING 93
SWIDTH 565 0
DWIDTH 11 0
BBX 3 18 4 -3
BITMAP
E0
20
20
20
20
20
20
20
20
20
20
20
20
20
20
20
E0
E0
ENDCHAR
STARTCHAR 005E
ENCODING 94
SWIDTH 565 0
DWIDTH 11 0
BBX 7 8 2 6
BITMAP
10
18
38
2C
6C
64
46
C2
ENDCHAR
STARTCHAR 005F
ENCODING 95
SWIDTH 565 0
DWIDTH 11 0
BBX 9 1 1 -1
BITMAP
FF80
ENDCHAR
STARTCHAR 0060
ENCODING 96
SWIDTH 565 0
DWIDTH 11 0
BBX 4 3 4 11
BITMAP
C0
60
30
ENDCHAR
STARTCHAR 0061
ENCODING 97
SWIDTH 565 0
DWIDTH 11 0
BBX 9 10 1 0
BITMAP
3E00
6300
4180
0180
3F80
6180
4180
C180
6780
3D80
ENDCHAR
STARTCHAR 0062
ENCODING 98
SWIDTH 565 0
DWIDTH 11 0
BBX 8 14 2 0
BITMAP
80
80
80
80
BC
E6
83
83
83
83
83
C3
E6
BC
ENDCHAR
STARTCHAR 0063
ENCODING 99
SWIDTH 565 0
DWIDTH 11 0
BBX 9 10 1 0
BITMAP
3E00
7300
6180
C000
C000
C000
C000
6180
7300
3E00
ENDCHAR
STARTCHAR 0064
ENCODING 100
SWIDTH 565 0
DWIDTH 11 0
BBX 9 14 1 0
BITMAP
0180
0180
0180
0180
3F80
7380
6180
C180
C180
C180
C180
6180
7380
3F80
ENDCHAR
STARTCHAR 0065
ENCODING 101
SWIDTH 565 0
DWIDTH 11 0
BBX 9 10 1 0
BITMAP
3E00
7300
6180
C180
FF80
C000
C000
6100
7180
3F00
ENDCHAR
STARTCHAR 0066
ENCODING 102
SWIDTH 565 0
DWIDTH 11 0
BBX 10 15 1 0
BITMAP
03C0
0F80
1800
1800
1800
FF80
1800
1800
1800
1800
1800
1800
1800
1800
1800
ENDCHAR
STARTCHAR 0067
ENCODING 103
SWIDTH 565 0
DWIDTH 11 0
BBX 9 14 1 -4
BITMAP
3F80
7380
6180
C180
C180
C180
C180
6180
7380
3F80
0180
4100
7700
3E00
ENDCHAR
STARTCHAR 0068
ENCODING 104
SWIDTH 565 0
DWIDTH 11 0
BBX 8 14 2 0
BITMAP
80
80
80
80
BE
E6
83
83
83
83
83
83
83
83
ENDCHAR
STARTCHAR 0069
ENCODING 105
SWIDTH 565 0
DWIDTH 11 0
BBX 8 14 2 0
BITMAP
18
18
00
00
F8
18
18
18
18
18
18
18
18
FF
ENDCHAR
STARTCHAR 006A
ENCODING 106
SWIDTH 565 0
DWIDTH 11 0
BBX 6 18 2 -4
BITMAP
0C
0C
00
00
7C
0C
0C
0C
0C
0C
0C
0C
0C
0C
0C
0C
98
F0
ENDCHAR
STARTCHAR 006B
ENCODING 107
SWIDTH 565 0
DWIDTH 11 0
BBX 8 14 2 0
BITMAP
80
80
80
80
87
8C
98
B0
F0
D8
8C
8C
86
83
ENDCHAR
STARTCHAR 006C
ENCODING 108
SWIDTH 565 0
DWIDTH 11 0
BBX 8 14 2 0
BITMAP
F8
18
18
18
18
18
18
18
18
18
18
18
18
FF
ENDCHAR
STARTCHAR 006D
ENCODING 109
SWIDTH 565 0
DWIDTH 11 0
BBX 10 10 1 0
BITMAP
BB80
CC80
CCC0
CCC0
CCC0
CCC0
CCC0
CCC0
CCC0
CCC0
ENDCHAR
STARTCHAR 006E
ENCODING 110
SWIDTH 565 0
DWIDTH 11 0
BBX 8 10 2 0
BITMAP
BE
E6
C3
83
83
83
83
83
83
83
ENDCHAR
STARTCHAR 006F
ENCODING 111
SWIDTH 565 0
DWIDTH 11 0
BBX 9 10 1 0
BITMAP
3E00
6300
4180
C180
C080
C080
C180
4180
6300
3E00
ENDCHAR
STARTCHAR 0070
ENCODING 112
SWIDTH 565 0
DWIDTH 11 0
BBX 8 14 2 -4
BITMAP
BC
C6
83
83
83
83
83
83
C6
BC
80
80
80
80
ENDCHAR
STARTCHAR 0071
ENCODING 113
SWIDTH 565 0
DWIDTH 11 0
BBX 9 14 1 -4
BITMAP
3F80
7380
6180
C180
C180
C180
C180
6180
7380
3F80
0180
0180
0180
0180
ENDCHAR
STARTCHAR 0072
ENCODING 114
SWIDTH 565 0
DWIDTH 11 0
BBX 7 10 3 0
BITMAP
DE
FE
C0
C0
C0
C0
C0
C0
C0
C0
ENDCHAR
STARTCHAR 0073
ENCODING 115
SWIDTH 565 0
DWIDTH 11 0
BBX 8 10 2 0
BITMAP
7E
C7
C3
C0
78
1E
03
83
C7
7E
ENDCHAR
STARTCHAR 0074
ENCODING 116
SWIDTH 565 0
DWIDTH 11 0
BBX 9 12 1 0
BITMAP
1800
1800
FF80
1800
1800
1800
1800
1800
1800
1800
1880
0F80
ENDCHAR
STARTCHAR 0075
ENCODING 117
SWIDTH 565 0
DWIDTH 11 0
BBX 8 10 2 0
BITMAP
83
83
83
83
83
83
83
C3
C7
7B
ENDCHAR
STARTCHAR 0076
ENCODING 118
SWIDTH 565 0
DWIDTH 11 0
BBX 9 10 1 0
BITMAP
C180
4180
6100
6300
2300
3200
1600
1C00
1C00
0C00
ENDCHAR
STARTCHAR 0077
ENCODING 119
SWIDTH 565 0
DWIDTH 11 0
BBX 11 10 0 0
BITMAP
C460
4660
4660
6E40
6A40
2B40
29C0
3980
3180
3180
ENDCHAR
STARTCHAR 0078
ENCODING 120
SWIDTH 565 0
DWIDTH 11 0
BBX 10 10 1 0
BITMAP
C180
6300
3300
1E00
0C00
1C00
1E00
3300
6300
C1C0
ENDCHAR
STARTCHAR 0079
ENCODING 121
SWIDTH 565 0
DWIDTH 11 0
BBX 10 14 1 -4
BITMAP
C0C0
C180
6180
6300
2300
3200
1600
1C00
1C00
0C00
1800
1800
B000
E000
ENDCHAR
STARTCHAR 007A
ENCODING 122
SWIDTH 565 0
DWIDTH 11 0
BBX 9 10 1 0
BITMAP
7F80
0300
0300
0600
0C00
1800
3000
7000
6000
FF80
ENDCHAR
STARTCHAR 007B
ENCODING 123
SWIDTH 565 0
DWIDTH 11 0
BBX 6 18 3 -3
BITMAP
04
18
18
10
10
10
10
30
60
E0
30
30
10
10
10
10
18
0C
ENDCHAR
STARTCHAR 007C
ENCODING 124
SWIDTH 565 0
DWIDTH 11 0
BBX 1 18 5 -4
BITMAP
80
80
80
80
80
80
80
80
80
80
80
80
80
80
80
80
80
80
ENDCHAR
STARTCHAR 007D
ENCODING 125
SWIDTH 565 0
DWIDTH 11 0
BBX 6 18 3 -3
BITMAP
C0
60
20
30
30
30
30
30
18
0C
10
30
30
30
30
30
60
C0
ENDCHAR
STARTCHAR 007E
ENCODING 126
SWIDTH 565 0
DWIDTH 11 0
BBX 11 3 0 4
BITMAP
7C20
4660
C3C0
ENDCHAR
STARTCHAR 00A0
ENCODING 160
SWIDTH 565 0
DWIDTH 11 0
BBX 0 0 0 0
BITMAP
ENDCHAR
STARTCHAR 00A1
ENCODING 161
SWIDTH 565 0
DWIDTH 11 0
BBX 2 13 5 -3
BITMAP
C0
C0
00
00
C0
C0
C0
C0
C0
C0
C0
C0
C0
ENDCHAR
STARTCHAR 00A2
ENCODING 162
SWIDTH 565 0
DWIDTH 11 0
BBX 9 14 1 -2
BITMAP
0C00
0C00
3E00
7300
6180
C000
C000
C000
C000
6180
7300
3E00
0C00
0C00
ENDCHAR
STARTCHAR 00A3
ENCODING 163
SWIDTH 565 0
DWIDTH 11 0
BBX 10 14 1 0
BITMAP
0E00
1F80
3180
2080
6000
6000
2000
FC00
2000
2000
2000
2000
6000
FFC0
ENDCHAR
STARTCHAR 00A4
ENCODING 164
SWIDTH 565 0
DWIDTH 11 0
BBX 10 10 1 0
BITMAP
5C80
FFC0
6180
4180
C080
C080
C080
6180
F3C0
DE80
ENDCHAR
STARTCHAR 00A5
ENCODING 165
SWIDTH 565 0
DWIDTH 11 0
BBX 11 14 0 0
BITMAP
C060
6060
60C0
3180
1180
1B00
0F00
7FC0
0600
0600
7FC0
0600
0600
0600
ENDCHAR
STARTCHAR 00A6
ENCODING 166
SWIDTH 565 0
DWIDTH 11 0
BBX 1 16 5 -2
BITMAP
80
80
80
80
80
80
80
80
00
80
80
80
80
80
80
80
ENDCHAR
STARTCHAR 00A7
ENCODING 167
SWIDTH 565 0
DWIDTH 11 0
BBX 10 19 1 -5
BITMAP
1C00
7F00
4180
C080
C000
6000
7E00
CF00
C180
C0C0
E0C0
7980
1F00
0380
0180
C180
C180
7F00
1C00
ENDCHAR
STARTCHAR 00A8
ENCODING 168
SWIDTH 565 0
DWIDTH 11 0
BBX 6 2 3 12
BITMAP
88
CC
ENDCHAR
STARTCHAR 00A9
ENCODING 169
SWIDTH 565 0
DWIDTH 11 0
BBX 10 10 1 0
BITMAP
3E00
4100
9C80
B240
A040
A040
B240
9C80
4100
3E00
ENDCHAR
STARTCHAR 00AA
ENCODING 170
SWIDTH 565 0
DWIDTH 11 0
BBX 6 8 3 6
BITMAP
30
F8
8C
7C
CC
8C
FC
60
ENDCHAR
STARTCHAR 00AB
ENCODING 171
SWIDTH 565 0
DWIDTH 11 0
BBX 7 8 2 1
BITMAP
36
6C
48
D8
D8
48
24
36
ENDCHAR
STARTCHAR 00AC
ENCODING 172
SWIDTH 565 0
DWIDTH 11 0
BBX 7 4 2 3
BITMAP
FE
02
02
02
ENDCHAR
STARTCHAR 00AD
ENCODING 173
SWIDTH 565 0
DWIDTH 11 0
BBX 7 2 2 5
BITMAP
FE
FE
ENDCHAR
STARTCHAR 00AE
ENCODING 174
SWIDTH 565 0
DWIDTH 11 0
BBX 10 10 1 0
BITMAP
3E00
4100
9C80
9240
9640
9C40
9440
9280
4100
3E00
ENDCHAR
STARTCHAR 00AF
ENCODING 175
SWIDTH 565 0
DWIDTH 11 0
BBX 7 2 2 12
BITMAP
FE
FE
ENDCHAR
STARTCHAR 00B0
ENCODING 176
SWIDTH 565 0
DWIDTH 11 0
BBX 5 5 3 9
BITMAP
30
78
C8
C8
70
ENDCHAR
STARTCHAR 00B1
ENCODING 177
SWIDTH 565 0
DWIDTH 11 0
BBX 9 12 1 0
BITMAP
0C00
0C00
0C00
0C00
FF80
0C00
0C00
0C00
0C00
0000
0000
7F80
ENDCHAR
STARTCHAR 00B2
ENCODING 178
SWIDTH 565 0
DWIDTH 11 0
BBX 6 8 3 6
BITMAP
30
F8
88
08
10
20
C0
FC
ENDCHAR
STARTCHAR 00B3
ENCODING 179
SWIDTH 565 0
DWIDTH 11 0
BBX 6 8 3 6
BITMAP
30
F8
08
18
38
0C
C8
78
ENDCHAR
STARTCHAR 00B4
ENCODING 180
SWIDTH 565 0
DWIDTH 11 0
BBX 4 3 4 11
BITMAP
70
40
80
ENDCHAR
STARTCHAR 00B5
ENCODING 181
SWIDTH 565 0
DWIDTH 11 0
BBX 8 14 2 -4
BITMAP
83
83
83
83
83
83
83
C3
C7
FF
80
80
80
80
ENDCHAR
STARTCHAR 00B6
ENCODING 182
SWIDTH 565 0
DWIDTH 11 0
BBX 7 14 2 0
BITMAP
0E
7E
7E
FE
FE
FE
FE
7E
3E
06
06
06
06
06
ENDCHAR
STARTCHAR 00B7
ENCODING 183
SWIDTH 565 0
DWIDTH 11 0
BBX 2 2 5 6
BITMAP
C0
C0
ENDCHAR
STARTCHAR 00B8
ENCODING 184
SWIDTH 565 0
DWIDTH 11 0
BBX 3 4 4 -4
BITMAP
C0
60
20
C0
ENDCHAR
STARTCHAR 00B9
ENCODING 185
SWIDTH 565 0
DWIDTH 11 0
BBX 3 7 4 6
BITMAP
E0
A0
20
20
20
20
20
ENDCHAR
STARTCHAR 00BA
ENCODING 186
SWIDTH 565 0
DWIDTH 11 0
BBX 6 8 3 6
BITMAP
70
F8
8C
8C
8C
8C
F8
30
ENDCHAR
STARTCHAR 00BB
ENCODING 187
SWIDTH 565 0
DWIDTH 11 0
BBX 7 8 3 1
BITMAP
90
48
6C
36
24
6C
D8
90
ENDCHAR
STARTCHAR 00BC
ENCODING 188
SWIDTH 565 0
DWIDTH 11 0
BBX 11 14 0 0
BITMAP
1000
F000
3100
3180
3300
3200
3600
04C0
0CC0
0940
1B40
1240
07E0
0040
ENDCHAR
STARTCHAR 00BD
ENCODING 189
SWIDTH 565 0
DWIDTH 11 0
BBX 11 14 0 0
BITMAP
1000
E000
A200
2300
2200
2600
2400
0D80
0B40
1260
1040
2080
0100
03E0
ENDCHAR
STARTCHAR 00BE
ENCODING 190
SWIDTH 565 0
DWIDTH 11 0
BBX 11 14 0 0
BITMAP
3000
7800
8880
3880
0900
CB00
7A00
0640
04C0
0DC0
0940
1A40
03E0
0040
ENDCHAR
STARTCHAR 00BF
ENCODING 191
SWIDTH 565 0
DWIDTH 11 0
BBX 8 14 2 -4
BITMAP
18
18
00
00
18
18
30
60
C0
C0
C3
C6
7E
38
ENDCHAR
STARTCHAR 00C0
ENCODING 192
SWIDTH 565 0
DWIDTH 11 0
BBX 10 17 1 0
BITMAP
3000
1800
0800
0C00
0C00
1C00
1E00
1600
3200
3200
2300
2300
7F00
6180
4180
C080
C0C0
ENDCHAR
STARTCHAR 00C1
ENCODING 193
SWIDTH 565 0
DWIDTH 11 0
BBX 10 17 1 0
BITMAP
0700
0400
0800
0C00
0C00
1C00
1E00
1600
3200
3200
2300
2300
7F00
6180
4180
C080
C0C0
ENDCHAR
STARTCHAR 00C2
ENCODING 194
SWIDTH 565 0
DWIDTH 11 0
BBX 10 17 1 0
BITMAP
1C00
3600
0000
0C00
0C00
1C00
1E00
1600
3200
3200
2300
2300
7F00
6180
4180
C080
C0C0
ENDCHAR
STARTCHAR 00C3
ENCODING 195
SWIDTH 565 0
DWIDTH 11 0
BBX 10 17 1 0
BITMAP
3900
6E00
0000
0C00
0C00
1C00
1E00
1600
3200
3200
2300
2300
7F00
6180
4180
C080
C0C0
ENDCHAR
STARTCHAR 00C4
ENCODING 196
SWIDTH 565 0
DWIDTH 11 0
BBX 10 17 1 0
BITMAP
2200
3300
0000
0C00
0C00
1C00
1E00
1600
3200
3200
2300
2300
7F00
6180
4180
C080
C0C0
ENDCHAR
STARTCHAR 00C5
ENCODING 197
SWIDTH 565 0
DWIDTH 11 0
BBX 10 18 1 0
BITMAP
1C00
1200
1400
0800
0C00
0C00
1C00
1E00
1600
3200
3200
2300
2300
7F00
6180
4180
C080
C0C0
ENDCHAR
STARTCHAR 00C6
ENCODING 198
SWIDTH 565 0
DWIDTH 11 0
BBX 11 14 0 0
BITMAP
07E0
07E0
0700
0F00
0B00
0B00
1BE0
13E0
3300
3F00
3F00
6300
6300
C3E0
ENDCHAR
STARTCHAR 00C7
ENCODING 199
SWIDTH 565 0
DWIDTH 11 0
BBX 9 18 1 -4
BITMAP
1C00
3F00
6180
C180
C080
C000
C000
C000
C000
C000
C080
4180
7300
3E00
0C00
0600
0200
0C00
ENDCHAR
STARTCHAR 00C8
ENCODING 200
SWIDTH 565 0
DWIDTH 11 0
BBX 8 17 2 0
BITMAP
60
30
10
FF
FF
80
80
80
80
FE
FE
80
80
80
80
80
FF
ENDCHAR
STARTCHAR 00C9
ENCODING 201
SWIDTH 565 0
DWIDTH 11 0
BBX 8 17 2 0
BITMAP
0E
08
10
FF
FF
80
80
80
80
FE
FE
80
80
80
80
80
FF
ENDCHAR
STARTCHAR 00CA
ENCODING 202
SWIDTH 565 0
DWIDTH 11 0
BBX 8 17 2 0
BITMAP
38
6C
00
FF
FF
80
80
80
80
FE
FE
80
80
80
80
80
FF
ENDCHAR
STARTCHAR 00CB
ENCODING 203
SWIDTH 565 0
DWIDTH 11 0
BBX 8 17 2 0
BITMAP
44
66
00
FF
FF
80
80
80
80
FE
FE
80
80
80
80
80
FF
ENDCHAR
STARTCHAR 00CC
ENCODING 204
SWIDTH 565 0
DWIDTH 11 0
BBX 8 17 2 0
BITMAP
C0
60
20
FF
FF
18
18
18
18
18
18
18
18
18
18
18
FF
ENDCHAR
STARTCHAR 00CD
ENCODING 205
SWIDTH 565 0
DWIDTH 11 0
BBX 8 17 2 0
BITMAP
0E
08
10
FF
FF
18
18
18
18
18
18
18
18
18
18
18
FF
ENDCHAR
STARTCHAR 00CE
ENCODING 206
SWIDTH 565 0
DWIDTH 11 0
BBX 8 17 2 0
BITMAP
38
6C
00
FF
FF
18
18
18
18
18
18
18
18
18
18
18
FF
ENDCHAR
STARTCHAR 00CF
ENCODING 207
SWIDTH 565 0
DWIDTH 11 0
BBX 8 17 2 0
BITMAP
44
66
00
FF
FF
18
18
18
18
18
18
18
18
18
18
18
FF
ENDCHAR
STARTCHAR 00D0
ENCODING 208
SWIDTH 565 0
DWIDTH 11 0
BBX 12 14 -1 0
BITMAP
1C00
1F80
10C0
1060
1020
1030
FC30
FC30
1030
1020
1060
1060
11C0
1F00
ENDCHAR
STARTCHAR 00D1
ENCODING 209
SWIDTH 565 0
DWIDTH 11 0
BBX 9 17 1 0
BITMAP
3900
6E00
0000
C180
E180
E180
F180
F180
D980
D980
CD80
CD80
C780
C380
C380
C180
C180
ENDCHAR
STARTCHAR 00D2
ENCODING 210
SWIDTH 565 0
DWIDTH 11 0
BBX 9 17 1 0
BITMAP
3000
1800
0800
1C00
3F00
6300
4180
C180
C080
C080
C080
C080
C080
C180
6180
7300
3E00
ENDCHAR
STARTCHAR 00D3
ENCODING 211
SWIDTH 565 0
DWIDTH 11 0
BBX 9 17 1 0
BITMAP
0700
0400
0800
1C00
3F00
6300
4180
C180
C080
C080
C080
C080
C080
C180
6180
7300
3E00
ENDCHAR
STARTCHAR 00D4
ENCODING 212
SWIDTH 565 0
DWIDTH 11 0
BBX 9 17 1 0
BITMAP
1C00
3600
0000
1C00
3F00
6300
4180
C180
C080
C080
C080
C080
C080
C180
6180
7300
3E00
ENDCHAR
STARTCHAR 00D5
ENCODING 213
SWIDTH 565 0
DWIDTH 11 0
BBX 9 17 1 0
BITMAP
3900
6E00
0000
1C00
3F00
6300
4180
C180
C080
C080
C080
C080
C080
C180
6180
7300
3E00
ENDCHAR
STARTCHAR 00D6
ENCODING 214
SWIDTH 565 0
DWIDTH 11 0
BBX 9 17 1 0
BITMAP
2200
3300
0000
1C00
3F00
6300
4180
C180
C080
C080
C080
C080
C080
C180
6180
7300
3E00
ENDCHAR
STARTCHAR 00D7
ENCODING 215
SWIDTH 565 0
DWIDTH 11 0
BBX 8 8 2 2
BITMAP
C3
E6
7C
38
3C
6E
C7
83
ENDCHAR
STARTCHAR 00D8
ENCODING 216
SWIDTH 565 0
DWIDTH 11 0
BBX 10 15 1 -1
BITMAP
1CC0
3F80
6300
C380
C380
C680
C480
C880
D880
D180
F180
6180
7300
FE00
8000
ENDCHAR
STARTCHAR 00D9
ENCODING 217
SWIDTH 565 0
DWIDTH 11 0
BBX 9 17 1 0
BITMAP
3000
1800
0C00
C180
C180
C180
C180
C180
C180
C180
C180
C180
C180
C180
4180
7300
3E00
ENDCHAR
STARTCHAR 00DA
ENCODING 218
SWIDTH 565 0
DWIDTH 11 0
BBX 9 17 1 0
BITMAP
0380
0200
0400
C180
C180
C180
C180
C180
C180
C180
C180
C180
C180
C180
4180
7300
3E00
ENDCHAR
STARTCHAR 00DB
ENCODING 219
SWIDTH 565 0
DWIDTH 11 0
BBX 9 17 1 0
BITMAP
0E00
1B00
0000
C180
C180
C180
C180
C180
C180
C180
C180
C180
C180
C180
4180
7300
3E00
ENDCHAR
STARTCHAR 00DC
ENCODING 220
SWIDTH 565 0
DWIDTH 11 0
BBX 9 17 1 0
BITMAP
2200
3300
0000
C180
C180
C180
C180
C180
C180
C180
C180
C180
C180
C180
4180
7300
3E00
ENDCHAR
STARTCHAR 00DD
ENCODING 221
SWIDTH 565 0
DWIDTH 11 0
BBX 10 17 1 0
BITMAP
0700
0400
0800
C0C0
C180
4180
6300
2300
3600
1600
1C00
0C00
0800
0800
0800
0800
0800
ENDCHAR
STARTCHAR 00DE
ENCODING 222
SWIDTH 565 0
DWIDTH 11 0
BBX 8 14 2 0
BITMAP
80
80
80
FC
FE
83
81
81
83
87
FC
80
80
80
ENDCHAR
STARTCHAR 00DF
ENCODING 223
SWIDTH 565 0
DWIDTH 11 0
BBX 8 14 2 0
BITMAP
7C
CC
86
84
8C
8C
88
8C
86
83
83
83
A3
BE
ENDCHAR
STARTCHAR 00E0
ENCODING 224
SWIDTH 565 0
DWIDTH 11 0
BBX 9 14 1 0
BITMAP
3000
1800
0C00
0000
3E00
6300
4180
0180
3F80
6180
4180
C180
6780
3D80
ENDCHAR
STARTCHAR 00E1
ENCODING 225
SWIDTH 565 0
DWIDTH 11 0
BBX 9 14 1 0
BITMAP
0700
0400
0800
0000
3E00
6300
4180
0180
3F80
6180
4180
C180
6780
3D80
ENDCHAR
STARTCHAR 00E2
ENCODING 226
SWIDTH 565 0
DWIDTH 11 0
BBX 9 14 1 0
BITMAP
1C00
3600
0000
0000
3E00
6300
4180
0180
3F80
6180
4180
C180
6780
3D80
ENDCHAR
STARTCHAR 00E3
ENCODING 227
SWIDTH 565 0
DWIDTH 11 0
BBX 9 14 1 0
BITMAP
3900
6E00
0000
0000
3E00
6300
4180
0180
3F80
6180
4180
C180
6780
3D80
ENDCHAR
STARTCHAR 00E4
ENCODING 228
SWIDTH 565 0
DWIDTH 11 0
BBX 9 14 1 0
BITMAP
2200
3300
0000
0000
3E00
6300
4180
0180
3F80
6180
4180
C180
6780
3D80
ENDCHAR
STARTCHAR 00E5
ENCODING 229
SWIDTH 565 0
DWIDTH 11 0
BBX 9 15 1 0
BITMAP
1C00
1200
1400
0800
0000
3E00
6300
4180
0180
3F80
6180
4180
C180
6780
3D80
ENDCHAR
STARTCHAR 00E6
ENCODING 230
SWIDTH 565 0
DWIDTH 11 0
BBX 11 10 0 0
BITMAP
7FC0
6E60
4660
0460
3FE0
6400
C400
C600
6E20
7BE0
ENDCHAR
STARTCHAR 00E7
ENCODING 231
SWIDTH 565 0
DWIDTH 11 0
BBX 9 14 1 -4
BITMAP
3E00
7300
6180
C000
C000
C000
C000
6180
7300
3E00
0C00
0600
0200
0C00
ENDCHAR
STARTCHAR 00E8
ENCODING 232
SWIDTH 565 0
DWIDTH 11 0
BBX 9 14 1 0
BITMAP
3000
1800
0C00
0000
3E00
7300
6180
C180
FF80
C000
C000
6100
7180
3F00
ENDCHAR
STARTCHAR 00E9
ENCODING 233
SWIDTH 565 0
DWIDTH 11 0
BBX 9 14 1 0
BITMAP
0700
0400
0800
0000
3E00
7300
6180
C180
FF80
C000
C000
6100
7180
3F00
ENDCHAR
STARTCHAR 00EA
ENCODING 234
SWIDTH 565 0
DWIDTH 11 0
BBX 9 14 1 0
BITMAP
1C00
3600
0000
0000
3E00
7300
6180
C180
FF80
C000
C000
6100
7180
3F00
ENDCHAR
STARTCHAR 00EB
ENCODING 235
SWIDTH 565 0
DWIDTH 11 0
BBX 9 14 1 0
BITMAP
2200
3300
0000
0000
3E00
7300
6180
C180
FF80
C000
C000
6100
7180
3F00
ENDCHAR
STARTCHAR 00EC
ENCODING 236
SWIDTH 565 0
DWIDTH 11 0
BBX 8 14 2 0
BITMAP
60
30
18
00
F8
18
18
18
18
18
18
18
18
FF
ENDCHAR
STARTCHAR 00ED
ENCODING 237
SWIDTH 565 0
DWIDTH 11 0
BBX 8 14 2 0
BITMAP
07
04
08
00
F8
18
18
18
18
18
18
18
18
FF
ENDCHAR
STARTCHAR 00EE
ENCODING 238
SWIDTH 565 0
DWIDTH 11 0
BBX 8 14 2 0
BITMAP
1C
36
00
00
F8
18
18
18
18
18
18
18
18
FF
ENDCHAR
STARTCHAR 00EF
ENCODING 239
SWIDTH 565 0
DWIDTH 11 0
BBX 8 14 2 0
BITMAP
44
66
00
00
F8
18
18
18
18
18
18
18
18
FF
ENDCHAR
STARTCHAR 00F0
ENCODING 240
SWIDTH 565 0
DWIDTH 11 0
BBX 9 14 1 0
BITMAP
1980
1F00
0E00
3300
0300
3D80
6780
C180
C180
8180
C180
C100
6700
3E00
ENDCHAR
STARTCHAR 00F1
ENCODING 241
SWIDTH 565 0
DWIDTH 11 0
BBX 8 14 2 0
BITMAP
72
DC
00
00
BE
E6
C3
83
83
83
83
83
83
83
ENDCHAR
STARTCHAR 00F2
ENCODING 242
SWIDTH 565 0
DWIDTH 11 0
BBX 9 14 1 0
BITMAP
3000
1800
0C00
0000
3E00
6300
4180
C180
C080
C080
C180
4180
6300
3E00
ENDCHAR
STARTCHAR 00F3
ENCODING 243
SWIDTH 565 0
DWIDTH 11 0
BBX 9 14 1 0
BITMAP
0700
0400
0800
0000
3E00
6300
4180
C180
C080
C080
C180
4180
6300
3E00
ENDCHAR
STARTCHAR 00F4
ENCODING 244
SWIDTH 565 0
DWIDTH 11 0
BBX 9 14 1 0
BITMAP
1C00
3600
0000
0000
3E00
6300
4180
C180
C080
C080
C180
4180
6300
3E00
ENDCHAR
STARTCHAR 00F5
ENCODING 245
SWIDTH 565 0
DWIDTH 11 0
BBX 9 14 1 0
BITMAP
3900
6E00
0000
0000
3E00
6300
4180
C180
C080
C080
C180
4180
6300
3E00
ENDCHAR
STARTCHAR 00F6
ENCODING 246
SWIDTH 565 0
DWIDTH 11 0
BBX 9 14 1 0
BITMAP
2200
3300
0000
0000
3E00
6300
4180
C180
C080
C080
C180
4180
6300
3E00
ENDCHAR
STARTCHAR 00F7
ENCODING 247
SWIDTH 565 0
DWIDTH 11 0
BBX 9 9 1 2
BITMAP
0C00
0800
0000
0000
FF80
0000
0000
0800
0C00
ENDCHAR
STARTCHAR 00F8
ENCODING 248
SWIDTH 565 0
DWIDTH 11 0
BBX 9 12 1 -1
BITMAP
0100
3F00
6300
4780
C580
CC80
C880
D980
5180
7300
3E00
6000
ENDCHAR
STARTCHAR 00F9
ENCODING 249
SWIDTH 565 0
DWIDTH 11 0
BBX 8 14 2 0
BITMAP
60
30
18
00
83
83
83
83
83
83
83
C3
C7
7B
ENDCHAR
STARTCHAR 00FA
ENCODING 250
SWIDTH 565 0
DWIDTH 11 0
BBX 8 14 2 0
BITMAP
0E
08
10
00
83
83
83
83
83
83
83
C3
C7
7B
ENDCHAR
STARTCHAR 00FB
ENCODING 251
SWIDTH 565 0
DWIDTH 11 0
BBX 8 14 2 0
BITMAP
38
6C
00
00
83
83
83
83
83
83
83
C3
C7
7B
ENDCHAR
STARTCHAR 00FC
ENCODING 252
SWIDTH 565 0
DWIDTH 11 0
BBX 8 14 2 0
BITMAP
44
66
00
00
83
83
83
83
83
83
83
C3
C7
7B
ENDCHAR
STARTCHAR 00FD
ENCODING 253
SWIDTH 565 0
DWIDTH 11 0
BBX 10 18 1 -4
BITMAP
0700
0400
0800
0000
C0C0
C180
6180
6300
2300
3200
1600
1C00
1C00
0C00
1800
1800
B000
E000
ENDCHAR
STARTCHAR 00FE
ENCODING 254
SWIDTH 565 0
DWIDTH 11 0
BBX 8 18 2 -4
BITMAP
80
80
80
80
BC
C6
83
83
83
83
83
83
C6
BC
80
80
80
80
ENDCHAR
STARTCHAR 00FF
ENCODING 255
SWIDTH 565 0
DWIDTH 11 0
BBX 10 18 1 -4
BITMAP
2200
3300
0000
0000
C0C0
C180
6180
6300
2300
3200
1600
1C00
1C00
0C00
1800
1800
B000
E000
ENDCHAR
STARTCHAR 0100
ENCODING 256
SWIDTH 565 0
DWIDTH 11 0
BBX 10 17 1 0
BITMAP
7F00
7F00
0000
0C00
0C00
1C00
1E00
1600
3200
3200
2300
2300
7F00
6180
4180
C080
C0C0
ENDCHAR
STARTCHAR 0101
ENCODING 257
SWIDTH 565 0
DWIDTH 11 0
BBX 9 14 1 0
BITMAP
7F00
7F00
0000
0000
3E00
6300
4180
0180
3F80
6180
4180
C180
6780
3D80
ENDCHAR
STARTCHAR 0102
ENCODING 258
SWIDTH 565 0
DWIDTH 11 0
BBX 10 18 1 0
BITMAP
2200
3200
1C00
0000
0C00
0C00
1C00
1E00
1600
3200
3200
2300
2300
7F00
6180
4180
C080
C0C0
ENDCHAR
STARTCHAR 0103
ENCODING 259
SWIDTH 565 0
DWIDTH 11 0
BBX 9 15 1 0
BITMAP
2200
3200
1C00
0000
0000
3E00
6300
4180
0180
3F80
6180
4180
C180
6780
3D80
ENDCHAR
STARTCHAR 0104
ENCODING 260
SWIDTH 565 0
DWIDTH 11 0
BBX 10 18 1 -4
BITMAP
0C00
0C00
1C00
1E00
1600
3200
3200
2300
2300
7F00
6180
4180
C080
C0C0
0180
0300
0340
01C0
ENDCHAR
STARTCHAR 0105
ENCODING 261
SWIDTH 565 0
DWIDTH 11 0
BBX 9 14 1 -4
BITMAP
3E00
6300
4180
0180
3F80
6180
4180
C180
6780
3D80
0300
0200
0280
0380
ENDCHAR
STARTCHAR 0106
ENCODING 262
SWIDTH 565 0
DWIDTH 11 0
BBX 9 17 1 0
BITMAP
0380
0200
0400
1C00
3F00
6180
C180
C080
C000
C000
C000
C000
C000
C080
4180
7300
3E00
ENDCHAR
STARTCHAR 0107
ENCODING 263
SWIDTH 565 0
DWIDTH 11 0
BBX 9 14 1 0
BITMAP
0700
0400
0800
0000
3E00
7300
6180
C000
C000
C000
C000
6180
7300
3E00
ENDCHAR
STARTCHAR 0108
ENCODING 264
SWIDTH 565 0
DWIDTH 11 0
BBX 9 17 1 0
BITMAP
0E00
1B00
0000
1C00
3F00
6180
C180
C080
C000
C000
C000
C000
C000
C080
4180
7300
3E00
ENDCHAR
STARTCHAR 0109
ENCODING 265
SWIDTH 565 0
DWIDTH 11 0
BBX 9 14 1 0
BITMAP
1C00
3600
0000
0000
3E00
7300
6180
C000
C000
C000
C000
6180
7300
3E00
ENDCHAR
STARTCHAR 010A
ENCODING 266
SWIDTH 565 0
DWIDTH 11 0
BBX 9 17 1 0
BITMAP
0800
0C00
0000
1C00
3F00
6180
C180
C080
C000
C000
C000
C000
C000
C080
4180
7300
3E00
ENDCHAR
STARTCHAR 010B
ENCODING 267
SWIDTH 565 0
DWIDTH 11 0
BBX 9 14 1 0
BITMAP
0800
0C00
0000
0000
3E00
7300
6180
C000
C000
C000
C000
6180
7300
3E00
ENDCHAR
STARTCHAR 010C
ENCODING 268
SWIDTH 565 0
DWIDTH 11 0
BBX 9 17 1 0
BITMAP
3300
1C00
0000
1C00
3F00
6180
C180
C080
C000
C000
C000
C000
C000
C080
4180
7300
3E00
ENDCHAR
STARTCHAR 010D
ENCODING 269
SWIDTH 565 0
DWIDTH 11 0
BBX 9 14 1 0
BITMAP
3300
1C00
0000
0000
3E00
7300
6180
C000
C000
C000
C000
6180
7300
3E00
ENDCHAR
STARTCHAR 010E
ENCODING 270
SWIDTH 565 0
DWIDTH 11 0
BBX 10 17 1 0
BITMAP
3300
1C00
0000
F000
FE00
C300
C180
C180
C080
C0C0
C0C0
C0C0
C080
C180
C180
C700
FC00
ENDCHAR
STARTCHAR 010F
ENCODING 271
SWIDTH 565 0
DWIDTH 11 0
BBX 13 14 1 0
BITMAP
0198
0198
0198
01B0
3F80
7380
6180
C180
C180
C180
C180
6180
7380
3F80
ENDCHAR
STARTCHAR 0110
ENCODING 272
SWIDTH 565 0
DWIDTH 11 0
BBX 12 14 -1 0
BITMAP
1C00
1F80
10C0
1060
1020
1030
FC30
FC30
1030
1020
1060
1060
11C0
1F00
ENDCHAR
STARTCHAR 0111
ENCODING 273
SWIDTH 565 0
DWIDTH 11 0
BBX 10 14 1 0
BITMAP
0180
07C0
07C0
0180
3D80
6380
4180
C180
C180
C180
C180
4180
6380
3D80
ENDCHAR
STARTCHAR 0112
ENCODING 274
SWIDTH 565 0
DWIDTH 11 0
BBX 8 17 2 0
BITMAP
FE
FE
00
FF
FF
80
80
80
80
FE
FE
80
80
80
80
80
FF
ENDCHAR
STARTCHAR 0113
ENCODING 275
SWIDTH 565 0
DWIDTH 11 0
BBX 9 14 1 0
BITMAP
7F00
7F00
0000
0000
3E00
7300
6180
C180
FF80
C000
C000
6100
7180
3F00
ENDCHAR
STARTCHAR 0114
ENCODING 276
SWIDTH 565 0
DWIDTH 11 0
BBX 8 18 2 0
BITMAP
44
64
38
00
FF
FF
80
80
80
80
FE
FE
80
80
80
80
80
FF
ENDCHAR
STARTCHAR 0115
ENCODING 277
SWIDTH 565 0
DWIDTH 11 0
BBX 9 15 1 0
BITMAP
2200
3200
1C00
0000
0000
3E00
7300
6180
C180
FF80
C000
C000
6100
7180
3F00
ENDCHAR
STARTCHAR 0116
ENCODING 278
SWIDTH 565 0
DWIDTH 11 0
BBX 8 17 2 0
BITMAP
10
18
00
FF
FF
80
80
80
80
FE
FE
80
80
80
80
80
FF
ENDCHAR
STARTCHAR 0117
ENCODING 279
SWIDTH 565 0
DWIDTH 11 0
BBX 9 14 1 0
BITMAP
0800
0C00
0000
0000
3E00
7300
6180
C180
FF80
C000
C000
6100
7180
3F00
ENDCHAR
STARTCHAR 0118
ENCODING 280
SWIDTH 565 0
DWIDTH 11 0
BBX 8 18 2 -4
BITMAP
FF
FF
80
80
80
80
FE
FE
80
80
80
80
80
FF
04
0C
0D
07
ENDCHAR
STARTCHAR 0119
ENCODING 281
SWIDTH 565 0
DWIDTH 11 0
BBX 9 14 1 -4
BITMAP
3E00
7300
6180
C180
FF80
C000
C000
6100
7180
3F00
0400
0800
0E00
0600
ENDCHAR
STARTCHAR 011A
ENCODING 282
SWIDTH 565 0
DWIDTH 11 0
BBX 8 17 2 0
BITMAP
66
38
00
FF
FF
80
80
80
80
FE
FE
80
80
80
80
80
FF
ENDCHAR
STARTCHAR 011B
ENCODING 283
SWIDTH 565 0
DWIDTH 11 0
BBX 9 14 1 0
BITMAP
3300
1C00
0000
0000
3E00
7300
6180
C180
FF80
C000
C000
6100
7180
3F00
ENDCHAR
STARTCHAR 011C
ENCODING 284
SWIDTH 565 0
DWIDTH 11 0
BBX 9 17 1 0
BITMAP
1C00
3600
0000
1C00
3F00
6180
C180
C000
C000
C000
C780
C780
C080
C080
6080
7180
1F00
ENDCHAR
STARTCHAR 011D
ENCODING 285
SWIDTH 565 0
DWIDTH 11 0
BBX 9 18 1 -4
BITMAP
1C00
3600
0000
0000
3F80
7380
6180
C180
C180
C180
C180
6180
7380
3F80
0180
4100
7700
3E00
ENDCHAR
STARTCHAR 011E
ENCODING 286
SWIDTH 565 0
DWIDTH 11 0
BBX 9 18 1 0
BITMAP
2200
3200
1C00
0000
1C00
3F00
6180
C180
C000
C000
C000
C780
C780
C080
C080
6080
7180
1F00
ENDCHAR
STARTCHAR 011F
ENCODING 287
SWIDTH 565 0
DWIDTH 11 0
BBX 9 19 1 -4
BITMAP
2200
3200
1C00
0000
0000
3F80
7380
6180
C180
C180
C180
C180
6180
7380
3F80
0180
4100
7700
3E00
ENDCHAR
STARTCHAR 0120
ENCODING 288
SWIDTH 565 0
DWIDTH 11 0
BBX 9 17 1 0
BITMAP
0800
0C00
0000
1C00
3F00
6180
C180
C000
C000
C000
C780
C780
C080
C080
6080
7180
1F00
ENDCHAR
STARTCHAR 0121
ENCODING 289
SWIDTH 565 0
DWIDTH 11 0
BBX 9 18 1 -4
BITMAP
0800
0C00
0000
0000
3F80
7380
6180
C180
C180
C180
C180
6180
7380
3F80
0180
4100
7700
3E00
ENDCHAR
STARTCHAR 0122
ENCODING 290
SWIDTH 565 0
DWIDTH 11 0
BBX 9 19 1 -5
BITMAP
1C00
3F00
6180
C180
C000
C000
C000
C780
C780
C080
C080
6080
7180
1F00
0000
0C00
0C00
0C00
0800
ENDCHAR
STARTCHAR 0123
ENCODING 291
SWIDTH 565 0
DWIDTH 11 0
BBX 9 20 1 -4
BITMAP
0400
0C00
0800
0800
0000
0000
3F80
7380
6180
C180
C180
C180
C180
6180
7380
3F80
0180
4100
7700
3E00
ENDCHAR
STARTCHAR 0124
ENCODING 292
SWIDTH 565 0
DWIDTH 11 0
BBX 9 17 1 0
BITMAP
1C00
3600
0000
C180
C180
C180
C180
C180
C180
FF80
FF80
C180
C180
C180
C180
C180
C180
ENDCHAR
STARTCHAR 0125
ENCODING 293
SWIDTH 565 0
DWIDTH 11 0
BBX 10 18 0 0
BITMAP
7000
D800
0000
0000
2000
2000
2000
2000
2F80
3980
20C0
20C0
20C0
20C0
20C0
20C0
20C0
20C0
ENDCHAR
STARTCHAR 0126
ENCODING 294
SWIDTH 565 0
DWIDTH 11 0
BBX 11 14 0 0
BITMAP
60C0
60C0
60C0
FFE0
60E0
60C0
7FC0
7FC0
60C0
60C0
60C0
60C0
60C0
60C0
ENDCHAR
STARTCHAR 0127
ENCODING 295
SWIDTH 565 0
DWIDTH 11 0
BBX 10 14 0 0
BITMAP
2000
FC00
FC00
2000
2F80
39C0
30C0
20C0
20C0
20C0
20C0
20C0
20C0
20C0
ENDCHAR
STARTCHAR 0128
ENCODING 296
SWIDTH 565 0
DWIDTH 11 0
BBX 8 17 2 0
BITMAP
72
DC
00
FF
FF
18
18
18
18
18
18
18
18
18
18
18
FF
ENDCHAR
STARTCHAR 0129
ENCODING 297
SWIDTH 565 0
DWIDTH 11 0
BBX 8 14 2 0
BITMAP
39
6E
00
00
F8
18
18
18
18
18
18
18
18
FF
ENDCHAR
STARTCHAR 012A
ENCODING 298
SWIDTH 565 0
DWIDTH 11 0
BBX 8 17 2 0
BITMAP
FE
FE
00
FF
FF
18
18
18
18
18
18
18
18
18
18
18
FF
ENDCHAR
STARTCHAR 012B
ENCODING 299
SWIDTH 565 0
DWIDTH 11 0
BBX 8 14 2 0
BITMAP
7F
7F
00
00
F8
18
18
18
18
18
18
18
18
FF
ENDCHAR
STARTCHAR 012C
ENCODING 300
SWIDTH 565 0
DWIDTH 11 0
BBX 8 18 2 0
BITMAP
44
64
38
00
FF
FF
18
18
18
18
18
18
18
18
18
18
18
FF
ENDCHAR
STARTCHAR 012D
ENCODING 301
SWIDTH 565 0
DWIDTH 11 0
BBX 8 15 2 0
BITMAP
44
64
38
00
00
F8
18
18
18
18
18
18
18
18
FF
ENDCHAR
STARTCHAR 012E
ENCODING 302
SWIDTH 565 0
DWIDTH 11 0
BBX 8 18 2 -4
BITMAP
FF
FF
18
18
18
18
18
18
18
18
18
18
18
FF
10
30
34
38
ENDCHAR
STARTCHAR 012F
ENCODING 303
SWIDTH 565 0
DWIDTH 11 0
BBX 8 18 2 -4
BITMAP
18
18
00
00
F8
18
18
18
18
18
18
18
18
FF
10
30
34
38
ENDCHAR
STARTCHAR 0130
ENCODING 304
SWIDTH 565 0
DWIDTH 11 0
BBX 8 17 2 0
BITMAP
10
18
00
FF
FF
18
18
18
18
18
18
18
18
18
18
18
FF
ENDCHAR
STARTCHAR 0131
ENCODING 305
SWIDTH 565 0
DWIDTH 11 0
BBX 8 10 2 0
BITMAP
F8
18
18
18
18
18
18
18
18
FF
ENDCHAR
STARTCHAR 0132
ENCODING 306
SWIDTH 565 0
DWIDTH 11 0
BBX 9 14 1 0
BITMAP
C180
C180
C180
C180
C180
C180
C180
C180
C180
C180
C180
D980
D980
CF00
ENDCHAR
STARTCHAR 0133
ENCODING 307
SWIDTH 565 0
DWIDTH 11 0
BBX 9 18 1 -4
BITMAP
2080
3180
0000
0000
F780
3180
3180
3180
3180
3180
3180
3180
3180
FD80
0180
0180
1F80
1E00
ENDCHAR
STARTCHAR 0134
ENCODING 308
SWIDTH 565 0
DWIDTH 11 0
BBX 10 17 1 0
BITMAP
0380
06C0
0000
0180
0180
0180
0180
0180
0180
0180
0180
0180
0180
C180
C100
6700
3E00
ENDCHAR
STARTCHAR 0135
ENCODING 309
SWIDTH 565 0
DWIDTH 11 0
BBX 7 18 2 -4
BITMAP
1C
36
00
00
FC
0C
0C
0C
0C
0C
0C
0C
0C
0C
0C
08
B8
F0
ENDCHAR
STARTCHAR 0136
ENCODING 310
SWIDTH 565 0
DWIDTH 11 0
BBX 9 19 2 -5
BITMAP
8180
8300
8600
8C00
9C00
9800
B000
F800
D800
8C00
8600
8600
8300
8180
0000
1800
1800
1800
1000
ENDCHAR
STARTCHAR 0137
ENCODING 311
SWIDTH 565 0
DWIDTH 11 0
BBX 8 19 2 -5
BITMAP
80
80
80
80
87
8C
98
B0
F0
D8
8C
8C
86
83
00
30
30
30
20
ENDCHAR
STARTCHAR 0138
ENCODING 312
SWIDTH 565 0
DWIDTH 11 0
BBX 9 10 2 0
BITMAP
8300
8600
8C00
9800
B000
F800
CC00
8E00
8600
8380
ENDCHAR
STARTCHAR 0139
ENCODING 313
SWIDTH 565 0
DWIDTH 11 0
BBX 8 17 2 0
BITMAP
70
40
80
C0
C0
C0
C0
C0
C0
C0
C0
C0
C0
C0
C0
C0
FF
ENDCHAR
STARTCHAR 013A
ENCODING 314
SWIDTH 565 0
DWIDTH 11 0
BBX 8 18 2 0
BITMAP
07
04
08
00
F8
18
18
18
18
18
18
18
18
18
18
18
18
FF
ENDCHAR
STARTCHAR 013B
ENCODING 315
SWIDTH 565 0
DWIDTH 11 0
BBX 8 19 2 -5
BITMAP
C0
C0
C0
C0
C0
C0
C0
C0
C0
C0
C0
C0
C0
FF
00
18
18
18
10
ENDCHAR
STARTCHAR 013C
ENCODING 316
SWIDTH 565 0
DWIDTH 11 0
BBX 8 19 2 -5
BITMAP
F8
18
18
18
18
18
18
18
18
18
18
18
18
FF
00
18
18
18
10
ENDCHAR
STARTCHAR 013D
ENCODING 317
SWIDTH 565 0
DWIDTH 11 0
BBX 8 14 2 0
BITMAP
C0
C6
C6
C6
CC
C0
C0
C0
C0
C0
C0
C0
C0
FF
ENDCHAR
STARTCHAR 013E
ENCODING 318
SWIDTH 565 0
DWIDTH 11 0
BBX 9 14 2 0
BITMAP
F980
1980
1980
1B00
1800
1800
1800
1800
1800
1800
1800
1800
1800
FF00
ENDCHAR
STARTCHAR 013F
ENCODING 319
SWIDTH 565 0
DWIDTH 11 0
BBX 8 14 2 0
BITMAP
C0
C0
C0
C0
C0
C8
CC
C0
C0
C0
C0
C0
C0
FF
ENDCHAR
STARTCHAR 0140
ENCODING 320
SWIDTH 565 0
DWIDTH 11 0
BBX 9 14 1 0
BITMAP
F800
1800
1800
1800
1800
1900
1980
1800
1800
1800
1800
1800
1800
FF00
ENDCHAR
STARTCHAR 0141
ENCODING 321
SWIDTH 565 0
DWIDTH 11 0
BBX 9 14 1 0
BITMAP
6000
6000
6000
6000
6000
6800
7800
E000
E000
6000
6000
6000
6000
7F80
ENDCHAR
STARTCHAR 0142
ENCODING 322
SWIDTH 565 0
DWIDTH 11 0
BBX 8 14 2 0
BITMAP
F8
18
18
18
1B
1E
38
F8
98
18
18
18
18
FF
ENDCHAR
STARTCHAR 0143
ENCODING 323
SWIDTH 565 0
DWIDTH 11 0
BBX 9 17 1 0
BITMAP
0700
0400
0800
C180
E180
E180
F180
F180
D980
D980
CD80
CD80
C780
C380
C380
C180
C180
ENDCHAR
STARTCHAR 0144
ENCODING 324
SWIDTH 565 0
DWIDTH 11 0
BBX 8 14 2 0
BITMAP
0E
08
10
00
BE
E6
C3
83
83
83
83
83
83
83
ENDCHAR
STARTCHAR 0145
ENCODING 325
SWIDTH 565 0
DWIDTH 11 0
BBX 9 19 1 -5
BITMAP
C180
E180
E180
F180
F180
D980
D980
CD80
CD80
C780
C380
C380
C180
C180
0000
1800
1800
1800
1000
ENDCHAR
STARTCHAR 0146
ENCODING 326
SWIDTH 565 0
DWIDTH 11 0
BBX 8 15 2 -5
BITMAP
BE
E6
C3
83
83
83
83
83
83
83
00
30
30
30
20
ENDCHAR
STARTCHAR 0147
ENCODING 327
SWIDTH 565 0
DWIDTH 11 0
BBX 9 17 1 0
BITMAP
3300
1C00
0000
C180
E180
E180
F180
F180
D980
D980
CD80
CD80
C780
C380
C380
C180
C180
ENDCHAR
STARTCHAR 0148
ENCODING 328
SWIDTH 565 0
DWIDTH 11 0
BBX 8 14 2 0
BITMAP
66
38
00
00
BE
E6
C3
83
83
83
83
83
83
83
ENDCHAR
STARTCHAR 0149
ENCODING 329
SWIDTH 565 0
DWIDTH 11 0
BBX 11 14 -1 0
BITMAP
6000
6000
6000
C000
17C0
1CC0
1860
1060
1060
1060
1060
1060
1060
1060
ENDCHAR
STARTCHAR 014A
ENCODING 330
SWIDTH 565 0
DWIDTH 11 0
BBX 8 18 2 -4
BITMAP
83
C3
C3
E3
A3
B3
B3
9B
9B
8F
8F
87
87
83
03
03
06
0E
ENDCHAR
STARTCHAR 014B
ENCODING 331
SWIDTH 565 0
DWIDTH 11 0
BBX 8 14 2 -4
BITMAP
BE
C6
83
83
83
83
83
83
83
83
03
03
16
0E
ENDCHAR
STARTCHAR 014C
ENCODING 332
SWIDTH 565 0
DWIDTH 11 0
BBX 9 17 1 0
BITMAP
7F00
7F00
0000
1C00
3F00
6300
4180
C180
C080
C080
C080
C080
C080
C180
6180
7300
3E00
ENDCHAR
STARTCHAR 014D
ENCODING 333
SWIDTH 565 0
DWIDTH 11 0
BBX 9 14 1 0
BITMAP
7F00
7F00
0000
0000
3E00
6300
4180
C180
C080
C080
C180
4180
6300
3E00
ENDCHAR
STARTCHAR 014E
ENCODING 334
SWIDTH 565 0
DWIDTH 11 0
BBX 9 18 1 0
BITMAP
2200
3200
1C00
0000
1C00
3F00
6300
4180
C180
C080
C080
C080
C080
C080
C180
6180
7300
3E00
ENDCHAR
STARTCHAR 014F
ENCODING 335
SWIDTH 565 0
DWIDTH 11 0
BBX 9 15 1 0
BITMAP
2200
3200
1C00
0000
0000
3E00
6300
4180
C180
C080
C080
C180
4180
6300
3E00
ENDCHAR
STARTCHAR 0150
ENCODING 336
SWIDTH 565 0
DWIDTH 11 0
BBX 9 17 1 0
BITMAP
0F80
1600
2000
1C00
3F00
6300
4180
C180
C080
C080
C080
C080
C080
C180
6180
7300
3E00
ENDCHAR
STARTCHAR 0151
ENCODING 337
SWIDTH 565 0
DWIDTH 11 0
BBX 9 14 1 0
BITMAP
0F80
1600
2000
0000
3E00
6300
4180
C180
C080
C080
C180
4180
6300
3E00
ENDCHAR
STARTCHAR 0152
ENCODING 338
SWIDTH 565 0
DWIDTH 11 0
BBX 10 14 1 0
BITMAP
3FC0
7FC0
C400
C400
8400
8400
8780
8780
8400
8400
C400
C400
C400
7FC0
ENDCHAR
STARTCHAR 0153
ENCODING 339
SWIDTH 565 0
DWIDTH 11 0
BBX 11 10 0 0
BITMAP
3FC0
6F60
4660
C660
C7E0
C600
C600
4600
6F20
3FE0
ENDCHAR
STARTCHAR 0154
ENCODING 340
SWIDTH 565 0
DWIDTH 11 0
BBX 9 17 2 0
BITMAP
0E00
0800
1000
F000
FE00
8300
8300
8300
8300
8300
FE00
8C00
8400
8600
8200
8300
8380
ENDCHAR
STARTCHAR 0155
ENCODING 341
SWIDTH 565 0
DWIDTH 11 0
BBX 7 14 3 0
BITMAP
1C
10
20
00
DE
FE
C0
C0
C0
C0
C0
C0
C0
C0
ENDCHAR
STARTCHAR 0156
ENCODING 342
SWIDTH 565 0
DWIDTH 11 0
BBX 9 19 2 -5
BITMAP
F000
FE00
8300
8300
8300
8300
8300
FE00
8C00
8400
8600
8200
8300
8380
0000
3000
3000
3000
2000
ENDCHAR
STARTCHAR 0157
ENCODING 343
SWIDTH 565 0
DWIDTH 11 0
BBX 7 15 3 -5
BITMAP
DE
FE
C0
C0
C0
C0
C0
C0
C0
C0
00
C0
C0
C0
80
ENDCHAR
STARTCHAR 0158
ENCODING 344
SWIDTH 565 0
DWIDTH 11 0
BBX 9 17 2 0
BITMAP
6600
3800
0000
F000
FE00
8300
8300
8300
8300
8300
FE00
8C00
8400
8600
8200
8300
8380
ENDCHAR
STARTCHAR 0159
ENCODING 345
SWIDTH 565 0
DWIDTH 11 0
BBX 7 14 3 0
BITMAP
CC
70
00
00
DE
FE
C0
C0
C0
C0
C0
C0
C0
C0
ENDCHAR
STARTCHAR 015A
ENCODING 346
SWIDTH 565 0
DWIDTH 11 0
BBX 9 17 1 0
BITMAP
0700
0400
0800
1C00
3F00
6180
C180
4000
6000
3800
1F00
0380
0180
C080
C180
7380
3F00
ENDCHAR
STARTCHAR 015B
ENCODING 347
SWIDTH 565 0
DWIDTH 11 0
BBX 8 14 2 0
BITMAP
0E
08
10
00
7E
C7
C3
C0
78
1E
03
83
C7
7E
ENDCHAR
STARTCHAR 015C
ENCODING 348
SWIDTH 565 0
DWIDTH 11 0
BBX 9 17 1 0
BITMAP
1C00
3600
0000
1C00
3F00
6180
C180
4000
6000
3800
1F00
0380
0180
C080
C180
7380
3F00
ENDCHAR
STARTCHAR 015D
ENCODING 349
SWIDTH 565 0
DWIDTH 11 0
BBX 8 14 2 0
BITMAP
38
6C
00
00
7E
C7
C3
C0
78
1E
03
83
C7
7E
ENDCHAR
STARTCHAR 015E
ENCODING 350
SWIDTH 565 0
DWIDTH 11 0
BBX 9 18 1 -4
BITMAP
1C00
3F00
6180
C180
4000
6000
3800
1F00
0380
0180
C080
C180
7380
3F00
0C00
0600
0200
0C00
ENDCHAR
STARTCHAR 015F
ENCODING 351
SWIDTH 565 0
DWIDTH 11 0
BBX 8 14 2 -4
BITMAP
7E
C7
C3
C0
78
1E
03
83
C7
7E
18
0C
04
18
ENDCHAR
STARTCHAR 0160
ENCODING 352
SWIDTH 565 0
DWIDTH 11 0
BBX 9 17 1 0
BITMAP
3300
1C00
0000
1C00
3F00
6180
C180
4000
6000
3800
1F00
0380
0180
C080
C180
7380
3F00
ENDCHAR
STARTCHAR 0161
ENCODING 353
SWIDTH 565 0
DWIDTH 11 0
BBX 8 14 2 0
BITMAP
66
38
00
00
7E
C7
C3
C0
78
1E
03
83
C7
7E
ENDCHAR
STARTCHAR 0162
ENCODING 354
SWIDTH 565 0
DWIDTH 11 0
BBX 10 18 1 -4
BITMAP
FFC0
FFC0
0C00
0C00
0C00
0C00
0C00
0C00
0C00
0C00
0C00
0C00
0C00
0C00
0C00
0600
0200
0C00
ENDCHAR
STARTCHAR 0163
ENCODING 355
SWIDTH 565 0
DWIDTH 11 0
BBX 9 16 1 -4
BITMAP
1800
1800
FF80
1800
1800
1800
1800
1800
1800
1800
1880
0F80
0600
0300
0100
0600
ENDCHAR
STARTCHAR 0164
ENCODING 356
SWIDTH 565 0
DWIDTH 11 0
BBX 10 17 1 0
BITMAP
3300
1C00
0000
FFC0
FFC0
0C00
0C00
0C00
0C00
0C00
0C00
0C00
0C00
0C00
0C00
0C00
0C00
ENDCHAR
STARTCHAR 0165
ENCODING 357
SWIDTH 565 0
DWIDTH 11 0
BBX 10 15 1 0
BITMAP
00C0
00C0
00C0
1980
1800
FF80
1800
1800
1800
1800
1800
1800
1800
1880
0F80
ENDCHAR
STARTCHAR 0166
ENCODING 358
SWIDTH 565 0
DWIDTH 11 0
BBX 10 14 1 0
BITMAP
FFC0
FFC0
0C00
0C00
0C00
3F00
0C00
0C00
0C00
0C00
0C00
0C00
0C00
0C00
ENDCHAR
STARTCHAR 0167
ENCODING 359
SWIDTH 565 0
DWIDTH 11 0
BBX 9 12 1 0
BITMAP
1800
1800
FF80
1800
1800
7E00
1800
1800
1800
1800
1880
0F80
ENDCHAR
STARTCHAR 0168
ENCODING 360
SWIDTH 565 0
DWIDTH 11 0
BBX 9 17 1 0
BITMAP
1C80
3700
0000
C180
C180
C180
C180
C180
C180
C180
C180
C180
C180
C180
4180
7300
3E00
ENDCHAR
STARTCHAR 0169
ENCODING 361
SWIDTH 565 0
DWIDTH 11 0
BBX 8 14 2 0
BITMAP
72
DC
00
00
83
83
83
83
83
83
83
C3
C7
7B
ENDCHAR
STARTCHAR 016A
ENCODING 362
SWIDTH 565 0
DWIDTH 11 0
BBX 9 17 1 0
BITMAP
7F00
7F00
0000
C180
C180
C180
C180
C180
C180
C180
C180
C180
C180
C180
4180
7300
3E00
ENDCHAR
STARTCHAR 016B
ENCODING 363
SWIDTH 565 0
DWIDTH 11 0
BBX 8 14 2 0
BITMAP
FE
FE
00
00
83
83
83
83
83
83
83
C3
C7
7B
ENDCHAR
STARTCHAR 016C
ENCODING 364
SWIDTH 565 0
DWIDTH 11 0
BBX 9 18 1 0
BITMAP
2200
3200
1C00
0000
C180
C180
C180
C180
C180
C180
C180
C180
C180
C180
C180
4180
7300
3E00
ENDCHAR
STARTCHAR 016D
ENCODING 365
SWIDTH 565 0
DWIDTH 11 0
BBX 8 15 2 0
BITMAP
44
64
38
00
00
83
83
83
83
83
83
83
C3
C7
7B
ENDCHAR
STARTCHAR 016E
ENCODING 366
SWIDTH 565 0
DWIDTH 11 0
BBX 9 18 1 0
BITMAP
1C00
1200
1400
0800
C180
C180
C180
C180
C180
C180
C180
C180
C180
C180
C180
4180
7300
3E00
ENDCHAR
STARTCHAR 016F
ENCODING 367
SWIDTH 565 0
DWIDTH 11 0
BBX 8 15 2 0
BITMAP
38
24
28
10
00
83
83
83
83
83
83
83
C3
C7
7B
ENDCHAR
STARTCHAR 0170
ENCODING 368
SWIDTH 565 0
DWIDTH 11 0
BBX 10 17 1 0
BITMAP
07C0
0B00
1000
C180
C180
C180
C180
C180
C180
C180
C180
C180
C180
C180
4180
7300
3E00
ENDCHAR
STARTCHAR 0171
ENCODING 369
SWIDTH 565 0
DWIDTH 11 0
BBX 8 14 2 0
BITMAP
1F
2C
40
00
83
83
83
83
83
83
83
C3
C7
7B
ENDCHAR
STARTCHAR 0172
ENCODING 370
SWIDTH 565 0
DWIDTH 11 0
BBX 9 18 1 -4
BITMAP
C180
C180
C180
C180
C180
C180
C180
C180
C180
C180
C180
4180
7300
3E00
0C00
0800
0E00
0400
ENDCHAR
STARTCHAR 0173
ENCODING 371
SWIDTH 565 0
DWIDTH 11 0
BBX 8 14 2 -4
BITMAP
83
83
83
83
83
83
83
C3
C7
7B
02
04
05
07
ENDCHAR
STARTCHAR 0174
ENCODING 372
SWIDTH 565 0
DWIDTH 11 0
BBX 10 17 1 0
BITMAP
1C00
3600
0000
8CC0
8CC0
CCC0
CCC0
DC80
DC80
D680
5680
5280
7380
7380
7380
6380
6300
ENDCHAR
STARTCHAR 0175
ENCODING 373
SWIDTH 565 0
DWIDTH 11 0
BBX 11 14 0 0
BITMAP
0E00
1B00
0000
0000
C460
4660
4660
6E40
6A40
2B40
29C0
3980
3180
3180
ENDCHAR
STARTCHAR 0176
ENCODING 374
SWIDTH 565 0
DWIDTH 11 0
BBX 10 17 1 0
BITMAP
1C00
3600
0000
C0C0
C180
4180
6300
2300
3600
1600
1C00
0C00
0800
0800
0800
0800
0800
ENDCHAR
STARTCHAR 0177
ENCODING 375
SWIDTH 565 0
DWIDTH 11 0
BBX 10 18 1 -4
BITMAP
1C00
3600
0000
0000
C0C0
C180
6180
6300
2300
3200
1600
1C00
1C00
0C00
1800
1800
B000
E000
ENDCHAR
STARTCHAR 0178
ENCODING 376
SWIDTH 565 0
DWIDTH 11 0
BBX 10 17 1 0
BITMAP
2200
3300
0000
C0C0
C180
4180
6300
2300
3600
1600
1C00
0C00
0800
0800
0800
0800
0800
ENDCHAR
STARTCHAR 0179
ENCODING 377
SWIDTH 565 0
DWIDTH 11 0
BBX 9 17 1 0
BITMAP
0700
0400
0800
FF80
FF80
0300
0300
0600
0400
0C00
1800
1800
3000
6000
6000
C000
FF80
ENDCHAR
STARTCHAR 017A
ENCODING 378
SWIDTH 565 0
DWIDTH 11 0
BBX 9 14 1 0
BITMAP
0700
0400
0800
0000
7F80
0300
0300
0600
0C00
1800
3000
7000
6000
FF80
ENDCHAR
STARTCHAR 017B
ENCODING 379
SWIDTH 565 0
DWIDTH 11 0
BBX 9 17 1 0
BITMAP
0800
0C00
0000
FF80
FF80
0300
0300
0600
0400
0C00
1800
1800
3000
6000
6000
C000
FF80
ENDCHAR
STARTCHAR 017C
ENCODING 380
SWIDTH 565 0
DWIDTH 11 0
BBX 9 14 1 0
BITMAP
0800
0C00
0000
0000
7F80
0300
0300
0600
0C00
1800
3000
7000
6000
FF80
ENDCHAR
STARTCHAR 017D
ENCODING 381
SWIDTH 565 0
DWIDTH 11 0
BBX 9 17 1 0
BITMAP
3300
1C00
0000
FF80
FF80
0300
0300
0600
0400
0C00
1800
1800
3000
6000
6000
C000
FF80
ENDCHAR
STARTCHAR 017E
ENCODING 382
SWIDTH 565 0
DWIDTH 11 0
BBX 9 14 1 0
BITMAP
3300
1C00
0000
0000
7F80
0300
0300
0600
0C00
1800
3000
7000
6000
FF80
ENDCHAR
STARTCHAR 017F
ENCODING 383
SWIDTH 565 0
DWIDTH 11 0
BBX 6 15 4 0
BITMAP
1C
78
60
C0
C0
C0
C0
C0
C0
C0
C0
C0
C0
C0
C0
ENDCHAR
STARTCHAR 0192
ENCODING 402
SWIDTH 565 0
DWIDTH 11 0
BBX 9 19 1 -4
BITMAP
0380
0F80
0C00
0800
0800
3E00
0800
0800
0800
0800
0800
0800
0800
0800
0800
0800
1800
9800
F000
ENDCHAR
STARTCHAR 01A0
ENCODING 416
SWIDTH 565 0
DWIDTH 11 0
BBX 10 14 1 0
BITMAP
1C40
3FC0
6380
C180
C180
C080
C080
C080
C080
C080
C180
4180
7300
3E00
ENDCHAR
STARTCHAR 01A1
ENCODING 417
SWIDTH 565 0
DWIDTH 11 0
BBX 10 11 1 0
BITMAP
0040
3EC0
6380
4180
C180
C080
C080
C180
4180
6300
3E00
ENDCHAR
STARTCHAR 01AF
ENCODING 431
SWIDTH 565 0
DWIDTH 11 0
BBX 12 14 1 0
BITMAP
C190
C1B0
C1E0
C180
C180
C180
C180
C180
C180
C180
C180
4180
7300
3E00
ENDCHAR
STARTCHAR 01B0
ENCODING 432
SWIDTH 565 0
DWIDTH 11 0
BBX 10 11 2 0
BITMAP
0040
8340
83C0
8300
8300
8300
8300
8300
C300
C700
7B00
ENDCHAR
STARTCHAR 01F0
ENCODING 496
SWIDTH 565 0
DWIDTH 11 0
BBX 8 18 2 -4
BITMAP
33
1C
00
00
FC
0C
0C
0C
0C
0C
0C
0C
0C
0C
0C
08
B8
F0
ENDCHAR
STARTCHAR 01FA
ENCODING 506
SWIDTH 565 0
DWIDTH 11 0
BBX 10 19 1 0
BITMAP
0700
0800
0C00
1200
0C00
0C00
0C00
1C00
1E00
1600
3200
3200
2300
2300
7F00
6180
4180
C080
C0C0
ENDCHAR
STARTCHAR 01FB
ENCODING 507
SWIDTH 565 0
DWIDTH 11 0
BBX 9 16 1 0
BITMAP
0700
0800
0C00
1200
0C00
0000
3E00
6300
4180
0180
3F80
6180
4180
C180
6780
3D80
ENDCHAR
STARTCHAR 01FC
ENCODING 508
SWIDTH 565 0
DWIDTH 11 0
BBX 11 17 0 0
BITMAP
01C0
0100
0200
07E0
07E0
0700
0F00
0B00
0B00
1BE0
13E0
3300
3F00
3F00
6300
6300
C3E0
ENDCHAR
STARTCHAR 01FD
ENCODING 509
SWIDTH 565 0
DWIDTH 11 0
BBX 11 14 0 0
BITMAP
0380
0200
0400
0000
7FC0
6E60
4660
0460
3FE0
6400
C400
C600
6E20
7BE0
ENDCHAR
STARTCHAR 01FE
ENCODING 510
SWIDTH 565 0
DWIDTH 11 0
BBX 10 19 1 -1
BITMAP
0700
0400
0800
0000
1CC0
3F80
6300
C380
C380
C680
C480
C880
D880
D180
F180
6180
7300
FE00
8000
ENDCHAR
STARTCHAR 01FF
ENCODING 511
SWIDTH 565 0
DWIDTH 11 0
BBX 9 15 1 -1
BITMAP
0700
0400
0800
0100
3F00
6300
4780
C580
CC80
C880
D980
5180
7300
3E00
6000
ENDCHAR
STARTCHAR 0218
ENCODING 536
SWIDTH 565 0
DWIDTH 11 0
BBX 9 19 1 -5
BITMAP
1C00
3F00
6180
C180
4000
6000
3800
1F00
0380
0180
C080
C180
7380
3F00
0000
0C00
0C00
0C00
0800
ENDCHAR
STARTCHAR 0219
ENCODING 537
SWIDTH 565 0
DWIDTH 11 0
BBX 8 15 2 -5
BITMAP
7E
C7
C3
C0
78
1E
03
83
C7
7E
00
18
18
18
10
ENDCHAR
STARTCHAR 021A
ENCODING 538
SWIDTH 565 0
DWIDTH 11 0
BBX 10 19 1 -5
BITMAP
FFC0
FFC0
0C00
0C00
0C00
0C00
0C00
0C00
0C00
0C00
0C00
0C00
0C00
0C00
0000
0C00
0C00
0C00
0800
ENDCHAR
STARTCHAR 021B
ENCODING 539
SWIDTH 565 0
DWIDTH 11 0
BBX 9 17 1 -5
BITMAP
1800
1800
FF80
1800
1800
1800
1800
1800
1800
1800
1880
0F80
0000
0C00
0C00
0C00
0800
ENDCHAR
STARTCHAR 0237
ENCODING 567
SWIDTH 565 0
DWIDTH 11 0
BBX 6 14 2 -4
BITMAP
FC
0C
0C
0C
0C
0C
0C
0C
0C
0C
0C
08
B8
F0
ENDCHAR
STARTCHAR 0259
ENCODING 601
SWIDTH 565 0
DWIDTH 11 0
BBX 8 10 2 0
BITMAP
7C
C6
03
03
01
FF
83
C3
E6
7C
ENDCHAR
STARTCHAR 02BC
ENCODING 700
SWIDTH 565 0
DWIDTH 11 0
BBX 3 4 4 10
BITMAP
60
60
60
C0
ENDCHAR
STARTCHAR 02C6
ENCODING 710
SWIDTH 565 0
DWIDTH 11 0
BBX 5 2 2 12
BITMAP
70
D8
ENDCHAR
STARTCHAR 02C7
ENCODING 711
SWIDTH 565 0
DWIDTH 11 0
BBX 6 2 3 12
BITMAP
CC
70
ENDCHAR
STARTCHAR 02C9
ENCODING 713
SWIDTH 565 0
DWIDTH 11 0
BBX 7 2 2 12
BITMAP
FE
FE
ENDCHAR
STARTCHAR 02D8
ENCODING 728
SWIDTH 565 0
DWIDTH 11 0
BBX 5 3 3 11
BITMAP
88
C8
70
ENDCHAR
STARTCHAR 02D9
ENCODING 729
SWIDTH 565 0
DWIDTH 11 0
BBX 2 2 5 12
BITMAP
80
C0
ENDCHAR
STARTCHAR 02DA
ENCODING 730
SWIDTH 565 0
DWIDTH 11 0
BBX 4 4 4 10
BITMAP
E0
90
A0
40
ENDCHAR
STARTCHAR 02DB
ENCODING 731
SWIDTH 565 0
DWIDTH 11 0
BBX 3 5 4 -4
BITMAP
60
40
80
A0
E0
ENDCHAR
STARTCHAR 02DC
ENCODING 732
SWIDTH 565 0
DWIDTH 11 0
BBX 7 2 1 12
BITMAP
72
DC
ENDCHAR
STARTCHAR 02DD
ENCODING 733
SWIDTH 565 0
DWIDTH 11 0
BBX 7 2 2 12
BITMAP
3E
D8
ENDCHAR
STARTCHAR 02F3
ENCODING 755
SWIDTH 565 0
DWIDTH 11 0
BBX 3 2 4 -3
BITMAP
E0
E0
ENDCHAR
STARTCHAR 0300
ENCODING 768
SWIDTH 565 0
DWIDTH 11 0
BBX 3 3 -8 11
BITMAP
C0
60
20
ENDCHAR
STARTCHAR 0301
ENCODING 769
SWIDTH 565 0
DWIDTH 11 0
BBX 3 3 -6 11
BITMAP
60
C0
80
ENDCHAR
STARTCHAR 0303
ENCODING 771
SWIDTH 565 0
DWIDTH 11 0
BBX 7 2 -9 12
BITMAP
72
DC
ENDCHAR
STARTCHAR 0309
ENCODING 777
SWIDTH 565 0
DWIDTH 11 0
BBX 3 3 -6 12
BITMAP
C0
60
C0
ENDCHAR
STARTCHAR 030F
ENCODING 783
SWIDTH 565 0
DWIDTH 11 0
BBX 6 2 -9 12
BITMAP
D8
7C
ENDCHAR
STARTCHAR 0323
ENCODING 803
SWIDTH 565 0
DWIDTH 11 0
BBX 2 2 -7 -3
BITMAP
C0
C0
ENDCHAR
STARTCHAR 0384
ENCODING 900
SWIDTH 565 0
DWIDTH 11 0
BBX 3 3 5 12
BITMAP
60
C0
80
ENDCHAR
STARTCHAR 0385
ENCODING 901
SWIDTH 565 0
DWIDTH 11 0
BBX 6 4 3 12
BITMAP
18
10
A4
CC
ENDCHAR
STARTCHAR 0386
ENCODING 902
SWIDTH 565 0
DWIDTH 11 0
BBX 10 15 1 0
BITMAP
3000
6C00
4C00
1C00
1E00
1600
3200
3200
2300
2300
7F00
6180
4180
C080
C0C0
ENDCHAR
STARTCHAR 0387
ENCODING 903
SWIDTH 565 0
DWIDTH 11 0
BBX 2 2 6 6
BITMAP
C0
C0
ENDCHAR
STARTCHAR 0388
ENCODING 904
SWIDTH 565 0
DWIDTH 11 0
BBX 10 15 0 0
BITMAP
6000
FFC0
BFC0
2000
2000
2000
2000
3F80
3F80
2000
2000
2000
2000
2000
3FC0
ENDCHAR
STARTCHAR 0389
ENCODING 905
SWIDTH 565 0
DWIDTH 11 0
BBX 11 15 -1 0
BITMAP
6000
F060
B060
3060
3060
3060
3060
3FE0
3FE0
3060
3060
3060
3060
3060
3060
ENDCHAR
STARTCHAR 038A
ENCODING 906
SWIDTH 565 0
DWIDTH 11 0
BBX 11 15 -1 0
BITMAP
6000
DFE0
9FE0
0300
0300
0300
0300
0300
0300
0300
0300
0300
0300
0300
1FE0
ENDCHAR
STARTCHAR 038C
ENCODING 908
SWIDTH 565 0
DWIDTH 11 0
BBX 10 15 0 0
BITMAP
6000
CE00
9F80
3180
20C0
60C0
6040
6040
6040
6040
6040
60C0
30C0
3980
1F00
ENDCHAR
STARTCHAR 038E
ENCODING 910
SWIDTH 565 0
DWIDTH 11 0
BBX 12 15 -1 0
BITMAP
6000
F030
B060
1060
18C0
08C0
0D80
0580
0700
0300
0200
0200
0200
0200
0200
ENDCHAR
STARTCHAR 038F
ENCODING 911
SWIDTH 565 0
DWIDTH 11 0
BBX 11 15 0 0
BITMAP
6000
CE00
9F80
30C0
60C0
6040
6040
6040
6040
6040
6040
20C0
3080
1B00
7BE0
ENDCHAR
STARTCHAR 0390
ENCODING 912
SWIDTH 565 0
DWIDTH 11 0
BBX 8 15 2 0
BITMAP
0C
08
52
66
00
F8
18
18
18
18
18
18
18
19
0F
ENDCHAR
STARTCHAR 0391
ENCODING 913
SWIDTH 565 0
DWIDTH 11 0
BBX 10 14 1 0
BITMAP
0C00
0C00
1C00
1E00
1600
3200
3200
2300
2300
7F00
6180
4180
C080
C0C0
ENDCHAR
STARTCHAR 0392
ENCODING 914
SWIDTH 565 0
DWIDTH 11 0
BBX 8 14 2 0
BITMAP
F0
FE
83
83
83
83
FE
FE
83
81
81
83
8F
FC
ENDCHAR
STARTCHAR 0393
ENCODING 915
SWIDTH 565 0
DWIDTH 11 0
BBX 8 14 2 0
BITMAP
FF
FF
80
80
80
80
80
80
80
80
80
80
80
80
ENDCHAR
STARTCHAR 0394
ENCODING 916
SWIDTH 565 0
DWIDTH 11 0
BBX 11 14 0 0
BITMAP
0600
0600
0600
0F00
0B00
1900
1980
1180
3080
30C0
20C0
6040
6060
FFE0
ENDCHAR
STARTCHAR 0395
ENCODING 917
SWIDTH 565 0
DWIDTH 11 0
BBX 8 14 2 0
BITMAP
FF
FF
80
80
80
80
FE
FE
80
80
80
80
80
FF
ENDCHAR
STARTCHAR 0396
ENCODING 918
SWIDTH 565 0
DWIDTH 11 0
BBX 9 14 1 0
BITMAP
FF80
FF80
0300
0300
0600
0400
0C00
1800
1800
3000
6000
6000
C000
FF80
ENDCHAR
STARTCHAR 0397
ENCODING 919
SWIDTH 565 0
DWIDTH 11 0
BBX 9 14 1 0
BITMAP
C180
C180
C180
C180
C180
C180
FF80
FF80
C180
C180
C180
C180
C180
C180
ENDCHAR
STARTCHAR 0398
ENCODING 920
SWIDTH 565 0
DWIDTH 11 0
BBX 9 14 1 0
BITMAP
1C00
3F00
6300
4180
C180
C080
DE80
DE80
C080
C080
C180
6180
7300
3E00
ENDCHAR
STARTCHAR 0399
ENCODING 921
SWIDTH 565 0
DWIDTH 11 0
BBX 8 14 2 0
BITMAP
FF
FF
18
18
18
18
18
18
18
18
18
18
18
FF
ENDCHAR
STARTCHAR 039A
ENCODING 922
SWIDTH 565 0
DWIDTH 11 0
BBX 9 14 2 0
BITMAP
8180
8300
8600
8C00
9C00
9800
B000
F800
D800
8C00
8600
8600
8300
8180
ENDCHAR
STARTCHAR 039B
ENCODING 923
SWIDTH 565 0
DWIDTH 11 0
BBX 10 14 1 0
BITMAP
0800
0C00
1C00
1C00
1600
3200
3200
2300
6300
6100
4180
C180
C080
80C0
ENDCHAR
STARTCHAR 039C
ENCODING 924
SWIDTH 565 0
DWIDTH 11 0
BBX 9 14 1 0
BITMAP
E180
E180
E380
E280
F280
D680
D480
DC80
CC80
C880
C080
C080
C080
C080
ENDCHAR
STARTCHAR 039D
ENCODING 925
SWIDTH 565 0
DWIDTH 11 0
BBX 9 14 1 0
BITMAP
C180
E180
E180
F180
F180
D980
D980
CD80
CD80
C780
C380
C380
C180
C180
ENDCHAR
STARTCHAR 039E
ENCODING 926
SWIDTH 565 0
DWIDTH 11 0
BBX 9 14 1 0
BITMAP
FF80
FF80
0000
0000
0000
0000
7F00
7F00
0000
0000
0000
0000
0000
FF80
ENDCHAR
STARTCHAR 039F
ENCODING 927
SWIDTH 565 0
DWIDTH 11 0
BBX 9 14 1 0
BITMAP
1C00
3F00
6300
4180
C180
C080
C080
C080
C080
C080
C180
6180
7300
3E00
ENDCHAR
STARTCHAR 03A0
ENCODING 928
SWIDTH 565 0
DWIDTH 11 0
BBX 8 14 2 0
BITMAP
FF
FF
83
83
83
83
83
83
83
83
83
83
83
83
ENDCHAR
STARTCHAR 03A1
ENCODING 929
SWIDTH 565 0
DWIDTH 11 0
BBX 9 14 2 0
BITMAP
F000
FE00
8300
8180
8180
8180
8300
FE00
F800
8000
8000
8000
8000
8000
ENDCHAR
STARTCHAR 03A3
ENCODING 931
SWIDTH 565 0
DWIDTH 11 0
BBX 10 14 1 0
BITMAP
FF80
FF80
6000
6000
3000
1800
0C00
0C00
1800
1800
3000
6000
C000
FFC0
ENDCHAR
STARTCHAR 03A4
ENCODING 932
SWIDTH 565 0
DWIDTH 11 0
BBX 10 14 1 0
BITMAP
FFC0
FFC0
0C00
0C00
0C00
0C00
0C00
0C00
0C00
0C00
0C00
0C00
0C00
0C00
ENDCHAR
STARTCHAR 03A5
ENCODING 933
SWIDTH 565 0
DWIDTH 11 0
BBX 10 14 1 0
BITMAP
C0C0
C180
4180
6300
2300
3600
1600
1C00
0C00
0800
0800
0800
0800
0800
ENDCHAR
STARTCHAR 03A6
ENCODING 934
SWIDTH 565 0
DWIDTH 11 0
BBX 10 14 1 0
BITMAP
0C00
0C00
1C00
7F00
CD80
CC80
8CC0
8CC0
8CC0
CC80
6F80
3F00
0C00
0C00
ENDCHAR
STARTCHAR 03A7
ENCODING 935
SWIDTH 565 0
DWIDTH 11 0
BBX 10 14 1 0
BITMAP
C0C0
4180
6180
3300
3200
1E00
1C00
0C00
1E00
3600
3300
6300
6180
C0C0
ENDCHAR
STARTCHAR 03A8
ENCODING 936
SWIDTH 565 0
DWIDTH 11 0
BBX 10 14 1 0
BITMAP
CCC0
CCC0
CCC0
CCC0
CCC0
CCC0
CCC0
CC80
CD80
7F80
3E00
0C00
0C00
0C00
ENDCHAR
STARTCHAR 03A9
ENCODING 937
SWIDTH 565 0
DWIDTH 11 0
BBX 10 14 1 0
BITMAP
1C00
3F00
6180
C180
C080
C080
C080
C080
C080
C080
4180
6100
3600
F7C0
ENDCHAR
STARTCHAR 03AA
ENCODING 938
SWIDTH 565 0
DWIDTH 11 0
BBX 8 17 2 0
BITMAP
44
66
00
FF
FF
18
18
18
18
18
18
18
18
18
18
18
FF
ENDCHAR
STARTCHAR 03AB
ENCODING 939
SWIDTH 565 0
DWIDTH 11 0
BBX 10 17 1 0
BITMAP
2200
3300
0000
C0C0
C180
4180
6300
2300
3600
1600
1C00
0C00
0800
0800
0800
0800
0800
ENDCHAR
STARTCHAR 03AC
ENCODING 940
SWIDTH 565 0
DWIDTH 11 0
BBX 10 15 1 0
BITMAP
0600
0C00
0800
0000
0000
3D00
6300
4100
C100
C100
C100
C100
C100
6380
3DC0
ENDCHAR
STARTCHAR 03AD
ENCODING 941
SWIDTH 565 0
DWIDTH 11 0
BBX 9 15 1 0
BITMAP
0600
0C00
0800
0000
0000
3F00
6380
C180
4000
3E00
7E00
C000
C080
6380
3F00
ENDCHAR
STARTCHAR 03AE
ENCODING 942
SWIDTH 565 0
DWIDTH 11 0
BBX 8 19 2 -4
BITMAP
0C
18
10
00
00
BE
C7
83
83
83
83
83
83
83
83
03
03
03
03
ENDCHAR
STARTCHAR 03AF
ENCODING 943
SWIDTH 565 0
DWIDTH 11 0
BBX 8 15 2 0
BITMAP
0C
18
10
00
00
F8
18
18
18
18
18
18
18
19
0F
ENDCHAR
STARTCHAR 03B0
ENCODING 944
SWIDTH 565 0
DWIDTH 11 0
BBX 9 15 1 0
BITMAP
0C00
0800
5200
6600
0000
C300
C180
C180
C180
C180
C180
4180
4180
6300
3E00
ENDCHAR
STARTCHAR 03B1
ENCODING 945
SWIDTH 565 0
DWIDTH 11 0
BBX 10 10 1 0
BITMAP
3D00
6300
4100
C100
C100
C100
C100
C100
6380
3DC0
ENDCHAR
STARTCHAR 03B2
ENCODING 946
SWIDTH 565 0
DWIDTH 11 0
BBX 8 18 2 -4
BITMAP
38
7E
C2
83
83
86
9C
86
83
81
81
83
C7
BE
80
80
80
80
ENDCHAR
STARTCHAR 03B3
ENCODING 947
SWIDTH 565 0
DWIDTH 11 0
BBX 10 14 1 -4
BITMAP
C0C0
C180
6180
6100
2300
3200
1600
1E00
1C00
0C00
0C00
0C00
0C00
0C00
ENDCHAR
STARTCHAR 03B4
ENCODING 948
SWIDTH 565 0
DWIDTH 11 0
BBX 9 15 1 0
BITMAP
0800
3F00
2000
6000
3000
1E00
3F00
6180
C180
C080
C080
C080
4180
6300
3E00
ENDCHAR
STARTCHAR 03B5
ENCODING 949
SWIDTH 565 0
DWIDTH 11 0
BBX 9 10 1 0
BITMAP
3F00
6380
C180
4000
3E00
7E00
C000
C080
6380
3F00
ENDCHAR
STARTCHAR 03B6
ENCODING 950
SWIDTH 565 0
DWIDTH 11 0
BBX 9 18 1 -4
BITMAP
FF80
FF80
0300
0600
0C00
1800
3000
2000
6000
4000
4000
6000
7800
1F00
0180
0100
0300
0200
ENDCHAR
STARTCHAR 03B7
ENCODING 951
SWIDTH 565 0
DWIDTH 11 0
BBX 8 14 2 -4
BITMAP
BE
C7
83
83
83
83
83
83
83
83
03
03
03
03
ENDCHAR
STARTCHAR 03B8
ENCODING 952
SWIDTH 565 0
DWIDTH 11 0
BBX 8 14 2 0
BITMAP
38
7E
C6
C2
83
83
FF
FF
83
83
C3
C2
66
7C
ENDCHAR
STARTCHAR 03B9
ENCODING 953
SWIDTH 565 0
DWIDTH 11 0
BBX 8 10 2 0
BITMAP
F8
18
18
18
18
18
18
18
19
0F
ENDCHAR
STARTCHAR 03BA
ENCODING 954
SWIDTH 565 0
DWIDTH 11 0
BBX 9 10 2 0
BITMAP
8300
8600
8C00
9800
B000
F800
CC00
8E00
8600
8380
ENDCHAR
STARTCHAR 03BB
ENCODING 955
SWIDTH 565 0
DWIDTH 11 0
BBX 9 14 1 0
BITMAP
E000
3000
3000
1800
1800
1800
3C00
3C00
2600
6600
6200
C300
C300
C180
ENDCHAR
STARTCHAR 03BC
ENCODING 956
SWIDTH 565 0
DWIDTH 11 0
BBX 8 14 2 -4
BITMAP
83
83
83
83
83
83
83
C3
C7
FF
80
80
80
80
ENDCHAR
STARTCHAR 03BD
ENCODING 957
SWIDTH 565 0
DWIDTH 11 0
BBX 9 10 1 0
BITMAP
C180
4180
6100
6300
2300
3200
1600
1C00
1C00
0C00
ENDCHAR
STARTCHAR 03BE
ENCODING 958
SWIDTH 565 0
DWIDTH 11 0
BBX 8 18 2 -4
BITMAP
1E
7F
C0
C0
C0
7C
3E
E0
C0
80
80
C0
70
3E
03
03
06
02
ENDCHAR
STARTCHAR 03BF
ENCODING 959
SWIDTH 565 0
DWIDTH 11 0
BBX 9 10 1 0
BITMAP
3E00
6300
4180
C180
C080
C080
C180
4180
6300
3E00
ENDCHAR
STARTCHAR 03C0
ENCODING 960
SWIDTH 565 0
DWIDTH 11 0
BBX 10 10 1 0
BITMAP
FF80
6300
6300
6300
6300
6300
6300
6300
6340
61C0
ENDCHAR
STARTCHAR 03C1
ENCODING 961
SWIDTH 565 0
DWIDTH 11 0
BBX 8 14 2 -4
BITMAP
7C
E6
C3
83
83
83
83
83
C6
BC
80
80
80
80
ENDCHAR
STARTCHAR 03C2
ENCODING 962
SWIDTH 565 0
DWIDTH 11 0
BBX 9 14 1 -4
BITMAP
3E00
6300
4180
C000
C000
C000
C000
6000
7800
1F00
0180
0180
0300
0200
ENDCHAR
STARTCHAR 03C3
ENCODING 963
SWIDTH 565 0
DWIDTH 11 0
BBX 10 10 1 0
BITMAP
3FC0
7600
C100
C180
C180
C180
C180
C180
6300
3E00
ENDCHAR
STARTCHAR 03C4
ENCODING 964
SWIDTH 565 0
DWIDTH 11 0
BBX 8 10 2 0
BITMAP
FF
18
18
18
18
18
18
18
19
0F
ENDCHAR
STARTCHAR 03C5
ENCODING 965
SWIDTH 565 0
DWIDTH 11 0
BBX 9 10 1 0
BITMAP
C300
C180
C180
C180
C180
C180
4180
4180
6300
3E00
ENDCHAR
STARTCHAR 03C6
ENCODING 966
SWIDTH 565 0
DWIDTH 11 0
BBX 10 14 1 -4
BITMAP
2700
6D80
CD80
CC80
CCC0
CCC0
CC80
CD80
6F80
3E00
0C00
0C00
0C00
0C00
ENDCHAR
STARTCHAR 03C7
ENCODING 967
SWIDTH 565 0
DWIDTH 11 0
BBX 10 10 1 0
BITMAP
C180
6300
3300
1E00
0C00
1C00
1E00
3300
6300
C1C0
ENDCHAR
STARTCHAR 03C8
ENCODING 968
SWIDTH 565 0
DWIDTH 11 0
BBX 10 14 1 -4
BITMAP
CD80
CC80
CCC0
CCC0
CCC0
CCC0
CCC0
CD80
6F80
3E00
0C00
0C00
0C00
0C00
ENDCHAR
STARTCHAR 03C9
ENCODING 969
SWIDTH 565 0
DWIDTH 11 0
BBX 10 10 1 0
BITMAP
C180
C080
C0C0
CCC0
8CC0
8CC0
CCC0
CC80
DD80
7780
ENDCHAR
STARTCHAR 03CA
ENCODING 970
SWIDTH 565 0
DWIDTH 11 0
BBX 8 14 2 0
BITMAP
44
66
00
00
F8
18
18
18
18
18
18
18
19
0F
ENDCHAR
STARTCHAR 03CB
ENCODING 971
SWIDTH 565 0
DWIDTH 11 0
BBX 9 14 1 0
BITMAP
2200
3300
0000
0000
C300
C180
C180
C180
C180
C180
4180
4180
6300
3E00
ENDCHAR
STARTCHAR 03CC
ENCODING 972
SWIDTH 565 0
DWIDTH 11 0
BBX 9 15 1 0
BITMAP
0600
0C00
0800
0000
0000
3E00
6300
4180
C180
C080
C080
C180
4180
6300
3E00
ENDCHAR
STARTCHAR 03CD
ENCODING 973
SWIDTH 565 0
DWIDTH 11 0
BBX 9 15 1 0
BITMAP
0600
0C00
0800
0000
0000
C300
C180
C180
C180
C180
C180
4180
4180
6300
3E00
ENDCHAR
STARTCHAR 03CE
ENCODING 974
SWIDTH 565 0
DWIDTH 11 0
BBX 10 15 1 0
BITMAP
0600
0C00
0800
0000
0000
C180
C080
C0C0
CCC0
8CC0
8CC0
CCC0
CC80
DD80
7780
ENDCHAR
STARTCHAR 03D1
ENCODING 977
SWIDTH 565 0
DWIDTH 11 0
BBX 10 14 1 0
BITMAP
0E00
1F00
3100
3180
3180
1980
1D80
CFC0
C180
C180
C180
4100
6300
3E00
ENDCHAR
STARTCHAR 03D2
ENCODING 978
SWIDTH 565 0
DWIDTH 11 0
BBX 10 14 1 0
BITMAP
80C0
C1C0
6100
2300
3300
3600
1E00
1C00
0C00
0C00
0C00
0C00
0C00
0C00
ENDCHAR
STARTCHAR 03D6
ENCODING 982
SWIDTH 565 0
DWIDTH 11 0
BBX 11 10 0 0
BITMAP
FFE0
60C0
60C0
64C0
6440
4440
4440
6640
6AC0
3B80
ENDCHAR
STARTCHAR 0400
ENCODING 1024
SWIDTH 565 0
DWIDTH 11 0
BBX 8 17 2 0
BITMAP
60
30
10
FF
FF
80
80
80
80
FE
FE
80
80
80
80
80
FF
ENDCHAR
STARTCHAR 0401
ENCODING 1025
SWIDTH 565 0
DWIDTH 11 0
BBX 8 17 2 0
BITMAP
44
66
00
FF
FF
80
80
80
80
FE
FE
80
80
80
80
80
FF
ENDCHAR
STARTCHAR 0402
ENCODING 1026
SWIDTH 565 0
DWIDTH 11 0
BBX 11 14 0 0
BITMAP
FFC0
FFC0
0800
0800
0800
0800
0F80
0FC0
08C0
0860
0860
0860
08C0
0980
ENDCHAR
STARTCHAR 0403
ENCODING 1027
SWIDTH 565 0
DWIDTH 11 0
BBX 8 17 2 0
BITMAP
0E
08
10
FF
FF
80
80
80
80
80
80
80
80
80
80
80
80
ENDCHAR
STARTCHAR 0404
ENCODING 1028
SWIDTH 565 0
DWIDTH 11 0
BBX 10 14 1 0
BITMAP
1C00
3F00
6180
4080
C0C0
C000
FE00
FE00
C000
C040
C080
6180
7380
3F00
ENDCHAR
STARTCHAR 0405
ENCODING 1029
SWIDTH 565 0
DWIDTH 11 0
BBX 9 14 1 0
BITMAP
1C00
3F00
6180
C180
4000
6000
3800
1F00
0380
0180
C080
C180
7380
3F00
ENDCHAR
STARTCHAR 0406
ENCODING 1030
SWIDTH 565 0
DWIDTH 11 0
BBX 8 14 2 0
BITMAP
FF
FF
18
18
18
18
18
18
18
18
18
18
18
FF
ENDCHAR
STARTCHAR 0407
ENCODING 1031
SWIDTH 565 0
DWIDTH 11 0
BBX 8 17 2 0
BITMAP
44
66
00
FF
FF
18
18
18
18
18
18
18
18
18
18
18
FF
ENDCHAR
STARTCHAR 0408
ENCODING 1032
SWIDTH 565 0
DWIDTH 11 0
BBX 9 14 1 0
BITMAP
0180
0180
0180
0180
0180
0180
0180
0180
0180
0180
C180
C100
6700
3E00
ENDCHAR
STARTCHAR 0409
ENCODING 1033
SWIDTH 565 0
DWIDTH 11 0
BBX 11 14 0 0
BITMAP
3E00
3E00
2600
2600
2600
2600
27C0
2640
2660
2660
2660
6660
66C0
C780
ENDCHAR
STARTCHAR 040A
ENCODING 1034
SWIDTH 565 0
DWIDTH 11 0
BBX 10 14 1 0
BITMAP
CC00
CC00
CC00
CC00
CC00
CC00
FF00
FF80
CCC0
CCC0
CCC0
CCC0
CF80
CF00
ENDCHAR
STARTCHAR 040B
ENCODING 1035
SWIDTH 565 0
DWIDTH 11 0
BBX 9 14 1 0
BITMAP
FF80
FF80
1800
1800
1800
1800
1F00
1B80
1880
1880
1880
1880
1880
1880
ENDCHAR
STARTCHAR 040C
ENCODING 1036
SWIDTH 565 0
DWIDTH 11 0
BBX 9 17 2 0
BITMAP
0E00
0800
1000
8180
8300
8600
8C00
9C00
9800
B000
F800
D800
8C00
8600
8600
8300
8180
ENDCHAR
STARTCHAR 040D
ENCODING 1037
SWIDTH 565 0
DWIDTH 11 0
BBX 8 17 2 0
BITMAP
60
30
18
83
83
87
87
8F
8B
9B
93
B3
A3
E3
C3
C3
83
ENDCHAR
STARTCHAR 040E
ENCODING 1038
SWIDTH 565 0
DWIDTH 11 0
BBX 11 18 0 0
BITMAP
1100
1900
0E00
0000
C060
6060
60C0
30C0
3080
1980
1980
0B00
0F00
0600
0600
0400
0C00
7800
ENDCHAR
STARTCHAR 040F
ENCODING 1039
SWIDTH 565 0
DWIDTH 11 0
BBX 8 17 2 -3
BITMAP
83
83
83
83
83
83
83
83
83
83
83
83
83
FF
18
18
18
ENDCHAR
STARTCHAR 0410
ENCODING 1040
SWIDTH 565 0
DWIDTH 11 0
BBX 10 14 1 0
BITMAP
0C00
0C00
1C00
1E00
1600
3200
3200
2300
2300
7F00
6180
4180
C080
C0C0
ENDCHAR
STARTCHAR 0411
ENCODING 1041
SWIDTH 565 0
DWIDTH 11 0
BBX 8 14 2 0
BITMAP
FF
FF
80
80
80
80
FC
8E
83
83
83
83
86
FC
ENDCHAR
STARTCHAR 0412
ENCODING 1042
SWIDTH 565 0
DWIDTH 11 0
BBX 8 14 2 0
BITMAP
F0
FE
83
83
83
83
FE
FE
83
81
81
83
8F
FC
ENDCHAR
STARTCHAR 0413
ENCODING 1043
SWIDTH 565 0
DWIDTH 11 0
BBX 8 14 2 0
BITMAP
FF
FF
80
80
80
80
80
80
80
80
80
80
80
80
ENDCHAR
STARTCHAR 0414
ENCODING 1044
SWIDTH 565 0
DWIDTH 11 0
BBX 10 17 1 -3
BITMAP
3F00
3F00
3100
3100
3100
3100
3100
3100
3100
3100
2100
6100
E100
FFC0
80C0
80C0
8080
ENDCHAR
STARTCHAR 0415
ENCODING 1045
SWIDTH 565 0
DWIDTH 11 0
BBX 8 14 2 0
BITMAP
FF
FF
80
80
80
80
FE
FE
80
80
80
80
80
FF
ENDCHAR
STARTCHAR 0416
ENCODING 1046
SWIDTH 565 0
DWIDTH 11 0
BBX 11 14 0 0
BITMAP
6660
66C0
66C0
26C0
3680
3780
1780
1F80
3780
3680
36C0
66C0
6660
E660
ENDCHAR
STARTCHAR 0417
ENCODING 1047
SWIDTH 565 0
DWIDTH 11 0
BBX 10 14 1 0
BITMAP
1C00
7F00
C180
C080
0080
0180
1F00
1F00
0180
0080
C0C0
C180
6380
3F00
ENDCHAR
STARTCHAR 0418
ENCODING 1048
SWIDTH 565 0
DWIDTH 11 0
BBX 8 14 2 0
BITMAP
83
83
87
87
8F
8B
9B
93
B3
A3
E3
C3
C3
83
ENDCHAR
STARTCHAR 0419
ENCODING 1049
SWIDTH 565 0
DWIDTH 11 0
BBX 8 18 2 0
BITMAP
44
64
38
00
83
83
87
87
8F
8B
9B
93
B3
A3
E3
C3
C3
83
ENDCHAR
STARTCHAR 041A
ENCODING 1050
SWIDTH 565 0
DWIDTH 11 0
BBX 9 14 2 0
BITMAP
8180
8300
8600
8600
8C00
9800
F800
F800
9800
8C00
8600
8600
8300
8180
ENDCHAR
STARTCHAR 041B
ENCODING 1051
SWIDTH 565 0
DWIDTH 11 0
BBX 10 14 0 0
BITMAP
1FC0
1FC0
10C0
10C0
10C0
10C0
10C0
10C0
10C0
30C0
30C0
30C0
60C0
E0C0
ENDCHAR
STARTCHAR 041C
ENCODING 1052
SWIDTH 565 0
DWIDTH 11 0
BBX 9 14 1 0
BITMAP
E180
E180
E380
E280
F280
D680
D480
DC80
CC80
C880
C080
C080
C080
C080
ENDCHAR
STARTCHAR 041D
ENCODING 1053
SWIDTH 565 0
DWIDTH 11 0
BBX 9 14 1 0
BITMAP
C180
C180
C180
C180
C180
C180
FF80
FF80
C180
C180
C180
C180
C180
C180
ENDCHAR
STARTCHAR 041E
ENCODING 1054
SWIDTH 565 0
DWIDTH 11 0
BBX 9 14 1 0
BITMAP
1C00
3F00
6300
4180
C180
C080
C080
C080
C080
C080
C180
6180
7300
3E00
ENDCHAR
STARTCHAR 041F
ENCODING 1055
SWIDTH 565 0
DWIDTH 11 0
BBX 8 14 2 0
BITMAP
FF
FF
83
83
83
83
83
83
83
83
83
83
83
83
ENDCHAR
STARTCHAR 0420
ENCODING 1056
SWIDTH 565 0
DWIDTH 11 0
BBX 9 14 2 0
BITMAP
F000
FE00
8300
8180
8180
8180
8300
FE00
F800
8000
8000
8000
8000
8000
ENDCHAR
STARTCHAR 0421
ENCODING 1057
SWIDTH 565 0
DWIDTH 11 0
BBX 9 14 1 0
BITMAP
1C00
3F00
6180
C180
C080
C000
C000
C000
C000
C000
C080
4180
7300
3E00
ENDCHAR
STARTCHAR 0422
ENCODING 1058
SWIDTH 565 0
DWIDTH 11 0
BBX 10 14 1 0
BITMAP
FFC0
FFC0
0C00
0C00
0C00
0C00
0C00
0C00
0C00
0C00
0C00
0C00
0C00
0C00
ENDCHAR
STARTCHAR 0423
ENCODING 1059
SWIDTH 565 0
DWIDTH 11 0
BBX 11 14 0 0
BITMAP
C060
6060
60C0
30C0
3080
1980
1980
0B00
0F00
0600
0600
0400
0C00
7800
ENDCHAR
STARTCHAR 0424
ENCODING 1060
SWIDTH 565 0
DWIDTH 11 0
BBX 10 14 1 0
BITMAP
0C00
0C00
1C00
7F00
CD80
CC80
8CC0
8CC0
8CC0
CC80
6F80
3F00
0C00
0C00
ENDCHAR
STARTCHAR 0425
ENCODING 1061
SWIDTH 565 0
DWIDTH 11 0
BBX 10 14 1 0
BITMAP
C0C0
4180
6180
3300
3200
1E00
1C00
0C00
1E00
3600
3300
6300
6180
C0C0
ENDCHAR
STARTCHAR 0426
ENCODING 1062
SWIDTH 565 0
DWIDTH 11 0
BBX 9 17 2 -3
BITMAP
8300
8300
8300
8300
8300
8300
8300
8300
8300
8300
8300
8300
8300
FF80
0180
0180
0180
ENDCHAR
STARTCHAR 0427
ENCODING 1063
SWIDTH 565 0
DWIDTH 11 0
BBX 8 14 2 0
BITMAP
83
83
83
83
83
83
C3
FF
7F
03
03
03
03
03
ENDCHAR
STARTCHAR 0428
ENCODING 1064
SWIDTH 565 0
DWIDTH 11 0
BBX 9 14 1 0
BITMAP
CC80
CC80
CC80
CC80
CC80
CC80
CC80
CC80
CC80
CC80
CC80
CC80
CC80
FF80
ENDCHAR
STARTCHAR 0429
ENCODING 1065
SWIDTH 565 0
DWIDTH 11 0
BBX 10 17 1 -3
BITMAP
CC80
CC80
CC80
CC80
CC80
CC80
CC80
CC80
CC80
CC80
CC80
CC80
CC80
FFC0
00C0
00C0
00C0
ENDCHAR
STARTCHAR 042A
ENCODING 1066
SWIDTH 565 0
DWIDTH 11 0
BBX 11 14 0 0
BITMAP
F800
F800
1800
1800
1800
1800
1F80
19C0
1840
1860
1860
1840
19C0
1F80
ENDCHAR
STARTCHAR 042B
ENCODING 1067
SWIDTH 565 0
DWIDTH 11 0
BBX 9 14 1 0
BITMAP
C180
C180
C180
C180
C180
C180
F980
DD80
C580
C780
C580
C580
CD80
F980
ENDCHAR
STARTCHAR 042C
ENCODING 1068
SWIDTH 565 0
DWIDTH 11 0
BBX 8 14 2 0
BITMAP
80
80
80
80
80
80
FC
8E
83
83
83
83
86
FC
ENDCHAR
STARTCHAR 042D
ENCODING 1069
SWIDTH 565 0
DWIDTH 11 0
BBX 9 14 1 0
BITMAP
1C00
7F00
6300
C180
C180
0080
0080
1F80
0080
0080
C180
C180
6300
3E00
ENDCHAR
STARTCHAR 042E
ENCODING 1070
SWIDTH 565 0
DWIDTH 11 0
BBX 9 14 1 0
BITMAP
C600
CF80
D980
D880
D880
D880
D880
F880
D880
D880
D880
D880
D980
CF00
ENDCHAR
STARTCHAR 042F
ENCODING 1071
SWIDTH 565 0
DWIDTH 11 0
BBX 9 14 1 0
BITMAP
0F80
7F80
6180
C180
C180
C180
6180
3F80
3180
3180
6180
6180
C180
C180
ENDCHAR
STARTCHAR 0430
ENCODING 1072
SWIDTH 565 0
DWIDTH 11 0
BBX 9 10 1 0
BITMAP
3E00
6300
4180
0180
3F80
6180
4180
C180
6780
3D80
ENDCHAR
STARTCHAR 0431
ENCODING 1073
SWIDTH 565 0
DWIDTH 11 0
BBX 9 14 1 0
BITMAP
0100
1F00
3800
6000
4000
7F00
E380
C180
C180
C180
C180
4180
6300
3E00
ENDCHAR
STARTCHAR 0432
ENCODING 1074
SWIDTH 565 0
DWIDTH 11 0
BBX 8 10 2 0
BITMAP
FC
86
83
82
FE
FE
83
83
87
FE
ENDCHAR
STARTCHAR 0433
ENCODING 1075
SWIDTH 565 0
DWIDTH 11 0
BBX 8 10 2 0
BITMAP
FF
80
80
80
80
80
80
80
80
80
ENDCHAR
STARTCHAR 0434
ENCODING 1076
SWIDTH 565 0
DWIDTH 11 0
BBX 10 13 1 -3
BITMAP
3F80
3F80
3180
3180
3180
3180
2180
6180
6180
FFC0
80C0
80C0
80C0
ENDCHAR
STARTCHAR 0435
ENCODING 1077
SWIDTH 565 0
DWIDTH 11 0
BBX 9 10 1 0
BITMAP
3E00
7300
6180
C180
FF80
C000
C000
6100
7180
3F00
ENDCHAR
STARTCHAR 0436
ENCODING 1078
SWIDTH 565 0
DWIDTH 11 0
BBX 11 10 0 0
BITMAP
E460
64C0
3480
3580
1F00
1F80
3580
64C0
64C0
C460
ENDCHAR
STARTCHAR 0437
ENCODING 1079
SWIDTH 565 0
DWIDTH 11 0
BBX 9 10 1 0
BITMAP
3F00
6380
C180
0180
1F00
1F00
0180
C180
6380
3F00
ENDCHAR
STARTCHAR 0438
ENCODING 1080
SWIDTH 565 0
DWIDTH 11 0
BBX 8 10 2 0
BITMAP
83
87
8F
8F
9B
B3
B3
E3
C3
C3
ENDCHAR
STARTCHAR 0439
ENCODING 1081
SWIDTH 565 0
DWIDTH 11 0
BBX 8 15 2 0
BITMAP
44
64
38
00
00
83
87
8F
8F
9B
B3
B3
E3
C3
C3
ENDCHAR
STARTCHAR 043A
ENCODING 1082
SWIDTH 565 0
DWIDTH 11 0
BBX 9 10 2 0
BITMAP
8380
8600
8C00
9800
F800
F800
8C00
8E00
8700
8380
ENDCHAR
STARTCHAR 043B
ENCODING 1083
SWIDTH 565 0
DWIDTH 11 0
BBX 9 10 1 0
BITMAP
3F80
2180
2180
2180
2180
2180
2180
6180
E180
C180
ENDCHAR
STARTCHAR 043C
ENCODING 1084
SWIDTH 565 0
DWIDTH 11 0
BBX 9 10 1 0
BITMAP
E180
E380
E380
E380
F780
D780
D580
DD80
CD80
C980
ENDCHAR
STARTCHAR 043D
ENCODING 1085
SWIDTH 565 0
DWIDTH 11 0
BBX 8 10 2 0
BITMAP
83
83
83
83
FF
FF
83
83
83
83
ENDCHAR
STARTCHAR 043E
ENCODING 1086
SWIDTH 565 0
DWIDTH 11 0
BBX 9 10 1 0
BITMAP
3E00
6300
4180
C180
C080
C080
C180
4180
6300
3E00
ENDCHAR
STARTCHAR 043F
ENCODING 1087
SWIDTH 565 0
DWIDTH 11 0
BBX 8 10 2 0
BITMAP
FF
83
83
83
83
83
83
83
83
83
ENDCHAR
STARTCHAR 0440
ENCODING 1088
SWIDTH 565 0
DWIDTH 11 0
BBX 8 14 2 -4
BITMAP
BC
C6
83
83
83
83
83
83
C6
BC
80
80
80
80
ENDCHAR
STARTCHAR 0441
ENCODING 1089
SWIDTH 565 0
DWIDTH 11 0
BBX 9 10 1 0
BITMAP
3E00
7300
6180
C000
C000
C000
C000
6180
7300
3E00
ENDCHAR
STARTCHAR 0442
ENCODING 1090
SWIDTH 565 0
DWIDTH 11 0
BBX 10 10 1 0
BITMAP
FFC0
0C00
0C00
0C00
0C00
0C00
0C00
0C00
0C00
0C00
ENDCHAR
STARTCHAR 0443
ENCODING 1091
SWIDTH 565 0
DWIDTH 11 0
BBX 10 14 1 -4
BITMAP
C0C0
C180
6180
6300
2300
3200
1600
1C00
1C00
0C00
1800
1800
B000
E000
ENDCHAR
STARTCHAR 0444
ENCODING 1092
SWIDTH 565 0
DWIDTH 11 0
BBX 9 18 1 -4
BITMAP
0C00
0C00
0C00
0C00
3E00
6F00
4D80
CD80
CC80
CC80
CD80
4D80
6F00
3E00
0C00
0C00
0C00
0C00
ENDCHAR
STARTCHAR 0445
ENCODING 1093
SWIDTH 565 0
DWIDTH 11 0
BBX 10 10 1 0
BITMAP
C180
6300
3300
1E00
0C00
1C00
1E00
3300
6300
C1C0
ENDCHAR
STARTCHAR 0446
ENCODING 1094
SWIDTH 565 0
DWIDTH 11 0
BBX 9 13 2 -3
BITMAP
8300
8300
8300
8300
8300
8300
8300
8300
8300
FF80
0180
0180
0180
ENDCHAR
STARTCHAR 0447
ENCODING 1095
SWIDTH 565 0
DWIDTH 11 0
BBX 9 10 1 0
BITMAP
C180
C180
C180
C180
4180
7F80
1D80
0180
0180
0180
ENDCHAR
STARTCHAR 0448
ENCODING 1096
SWIDTH 565 0
DWIDTH 11 0
BBX 9 10 1 0
BITMAP
CD80
CD80
CD80
CD80
CD80
CD80
CD80
CD80
CD80
FF80
ENDCHAR
STARTCHAR 0449
ENCODING 1097
SWIDTH 565 0
DWIDTH 11 0
BBX 10 13 1 -3
BITMAP
C980
C980
C980
C980
C980
C980
C980
C980
C980
FFC0
00C0
00C0
00C0
ENDCHAR
STARTCHAR 044A
ENCODING 1098
SWIDTH 565 0
DWIDTH 11 0
BBX 10 10 1 0
BITMAP
F000
3000
3000
3000
3F00
3180
30C0
30C0
3180
3F00
ENDCHAR
STARTCHAR 044B
ENCODING 1099
SWIDTH 565 0
DWIDTH 11 0
BBX 9 10 1 0
BITMAP
C180
C180
C180
C180
F980
CD80
C580
C580
CD80
F980
ENDCHAR
STARTCHAR 044C
ENCODING 1100
SWIDTH 565 0
DWIDTH 11 0
BBX 8 10 2 0
BITMAP
80
80
80
80
FE
83
83
83
87
FE
ENDCHAR
STARTCHAR 044D
ENCODING 1101
SWIDTH 565 0
DWIDTH 11 0
BBX 9 10 1 0
BITMAP
3E00
6300
C180
0180
1F80
1F80
0180
C180
6300
3E00
ENDCHAR
STARTCHAR 044E
ENCODING 1102
SWIDTH 565 0
DWIDTH 11 0
BBX 10 10 1 0
BITMAP
CF00
CD80
D880
D8C0
F8C0
F8C0
D8C0
D880
CD80
CF00
ENDCHAR
STARTCHAR 044F
ENCODING 1103
SWIDTH 565 0
DWIDTH 11 0
BBX 9 10 1 0
BITMAP
3F80
6180
C180
C180
6180
3F80
3180
6180
6180
C180
ENDCHAR
STARTCHAR 0450
ENCODING 1104
SWIDTH 565 0
DWIDTH 11 0
BBX 9 14 1 0
BITMAP
3000
1800
0C00
0000
3E00
7300
6180
C180
FF80
C000
C000
6100
7180
3F00
ENDCHAR
STARTCHAR 0451
ENCODING 1105
SWIDTH 565 0
DWIDTH 11 0
BBX 9 14 1 0
BITMAP
2200
3300
0000
0000
3E00
7300
6180
C180
FF80
C000
C000
6100
7180
3F00
ENDCHAR
STARTCHAR 0452
ENCODING 1106
SWIDTH 565 0
DWIDTH 11 0
BBX 10 18 0 -4
BITMAP
2000
FC00
FC00
2000
2F80
3980
20C0
20C0
20C0
20C0
20C0
20C0
20C0
20C0
00C0
00C0
01C0
0380
ENDCHAR
STARTCHAR 0453
ENCODING 1107
SWIDTH 565 0
DWIDTH 11 0
BBX 8 14 2 0
BITMAP
0E
08
10
00
FF
80
80
80
80
80
80
80
80
80
ENDCHAR
STARTCHAR 0454
ENCODING 1108
SWIDTH 565 0
DWIDTH 11 0
BBX 9 10 1 0
BITMAP
3E00
7300
6180
C000
FC00
FC00
C000
6180
7300
3E00
ENDCHAR
STARTCHAR 0455
ENCODING 1109
SWIDTH 565 0
DWIDTH 11 0
BBX 8 10 2 0
BITMAP
7E
C7
C3
C0
78
1E
03
83
C7
7E
ENDCHAR
STARTCHAR 0456
ENCODING 1110
SWIDTH 565 0
DWIDTH 11 0
BBX 8 14 2 0
BITMAP
18
18
00
00
F8
18
18
18
18
18
18
18
18
FF
ENDCHAR
STARTCHAR 0457
ENCODING 1111
SWIDTH 565 0
DWIDTH 11 0
BBX 8 14 2 0
BITMAP
44
66
00
00
F8
18
18
18
18
18
18
18
18
FF
ENDCHAR
STARTCHAR 0458
ENCODING 1112
SWIDTH 565 0
DWIDTH 11 0
BBX 6 18 2 -4
BITMAP
0C
0C
00
00
7C
0C
0C
0C
0C
0C
0C
0C
0C
0C
0C
0C
98
F0
ENDCHAR
STARTCHAR 0459
ENCODING 1113
SWIDTH 565 0
DWIDTH 11 0
BBX 11 10 0 0
BITMAP
3E00
3600
3600
3600
37C0
3660
3660
2660
66E0
C7C0
ENDCHAR
STARTCHAR 045A
ENCODING 1114
SWIDTH 565 0
DWIDTH 11 0
BBX 10 10 1 0
BITMAP
CC00
CC00
CC00
CC00
FF80
CCC0
CCC0
CCC0
CD80
CF80
ENDCHAR
STARTCHAR 045B
ENCODING 1115
SWIDTH 565 0
DWIDTH 11 0
BBX 10 14 0 0
BITMAP
2000
FC00
FC00
2000
2F80
3980
20C0
20C0
20C0
20C0
20C0
20C0
20C0
20C0
ENDCHAR
STARTCHAR 045C
ENCODING 1116
SWIDTH 565 0
DWIDTH 11 0
BBX 9 14 2 0
BITMAP
1C00
1000
2000
0080
8300
8600
8C00
9800
F800
F800
8C00
8E00
8700
8380
ENDCHAR
STARTCHAR 045D
ENCODING 1117
SWIDTH 565 0
DWIDTH 11 0
BBX 8 14 2 0
BITMAP
60
30
18
00
83
87
8F
8F
9B
B3
B3
E3
C3
C3
ENDCHAR
STARTCHAR 045E
ENCODING 1118
SWIDTH 565 0
DWIDTH 11 0
BBX 10 19 1 -4
BITMAP
2200
3200
1C00
0000
0000
C0C0
C180
6180
6300
2300
3200
1600
1C00
1C00
0C00
1800
1800
B000
E000
ENDCHAR
STARTCHAR 045F
ENCODING 1119
SWIDTH 565 0
DWIDTH 11 0
BBX 8 13 2 -3
BITMAP
83
83
83
83
83
83
83
83
83
FF
18
18
18
ENDCHAR
STARTCHAR 0460
ENCODING 1120
SWIDTH 565 0
DWIDTH 11 0
BBX 10 14 1 0
BITMAP
CCC0
CCC0
CCC0
CCC0
CCC0
CCC0
CCC0
CCC0
CCC0
CCC0
CCC0
CCC0
DC80
7780
ENDCHAR
STARTCHAR 0461
ENCODING 1121
SWIDTH 565 0
DWIDTH 11 0
BBX 10 10 1 0
BITMAP
CCC0
CCC0
CCC0
CCC0
CCC0
CCC0
CCC0
CCC0
DC80
7780
ENDCHAR
STARTCHAR 0462
ENCODING 1122
SWIDTH 565 0
DWIDTH 11 0
BBX 10 14 0 0
BITMAP
2000
2000
FC00
FC00
2000
2000
3F00
2380
20C0
20C0
20C0
20C0
2180
3F00
ENDCHAR
STARTCHAR 0463
ENCODING 1123
SWIDTH 565 0
DWIDTH 11 0
BBX 10 14 0 0
BITMAP
3000
3000
3000
FE00
3000
3000
3000
3000
3F80
30C0
30C0
30C0
31C0
3F00
ENDCHAR
STARTCHAR 0464
ENCODING 1124
SWIDTH 565 0
DWIDTH 11 0
BBX 10 14 1 0
BITMAP
C300
CF80
C8C0
D8C0
D800
D800
FF00
FF00
D800
D800
D8C0
C8C0
CC80
C780
ENDCHAR
STARTCHAR 0465
ENCODING 1125
SWIDTH 565 0
DWIDTH 11 0
BBX 10 10 1 0
BITMAP
C780
CC80
C8C0
C800
FF00
FF00
C800
C8C0
CC80
C780
ENDCHAR
STARTCHAR 0466
ENCODING 1126
SWIDTH 565 0
DWIDTH 11 0
BBX 11 14 0 0
BITMAP
0600
0600
0E00
0F00
0B00
1900
1980
1180
3F80
3FC0
26C0
6640
6660
C660
ENDCHAR
STARTCHAR 0467
ENCODING 1127
SWIDTH 565 0
DWIDTH 11 0
BBX 10 10 1 0
BITMAP
0C00
1C00
1E00
1600
3200
2300
7F00
6D80
CD80
CCC0
ENDCHAR
STARTCHAR 0468
ENCODING 1128
SWIDTH 565 0
DWIDTH 11 0
BBX 10 14 1 0
BITMAP
C200
C600
C700
C700
C500
CD00
CD80
C980
FF80
FF80
DA80
DAC0
D2C0
F2C0
ENDCHAR
STARTCHAR 0469
ENCODING 1129
SWIDTH 565 0
DWIDTH 11 0
BBX 10 10 1 0
BITMAP
C600
C700
C700
CD00
CD80
C980
FF80
DA80
D2C0
F2C0
ENDCHAR
STARTCHAR 046A
ENCODING 1130
SWIDTH 565 0
DWIDTH 11 0
BBX 10 14 1 0
BITMAP
FF80
7F80
6300
2300
3200
1600
1C00
7F80
CCC0
CCC0
CCC0
CCC0
CCC0
CCC0
ENDCHAR
STARTCHAR 046B
ENCODING 1131
SWIDTH 565 0
DWIDTH 11 0
BBX 9 10 1 0
BITMAP
FF80
6300
3300
3600
3E00
7F80
CD80
CC80
CC80
CC80
ENDCHAR
STARTCHAR 046C
ENCODING 1132
SWIDTH 565 0
DWIDTH 11 0
BBX 10 14 1 0
BITMAP
9FC0
9F80
9980
8980
8D00
8F00
8700
FF80
96C0
96C0
96C0
96C0
96C0
96C0
ENDCHAR
STARTCHAR 046D
ENCODING 1133
SWIDTH 565 0
DWIDTH 11 0
BBX 10 10 1 0
BITMAP
9FC0
9980
8D80
8D00
FF00
FF80
96C0
96C0
96C0
96C0
ENDCHAR
STARTCHAR 046E
ENCODING 1134
SWIDTH 565 0
DWIDTH 11 0
BBX 8 22 2 -4
BITMAP
C4
68
10
00
F0
FC
06
03
03
06
3C
3C
06
03
03
03
06
7C
C0
C0
C0
60
ENDCHAR
STARTCHAR 046F
ENCODING 1135
SWIDTH 565 0
DWIDTH 11 0
BBX 8 19 2 -4
BITMAP
44
68
30
00
00
7C
0E
02
06
3C
3E
02
03
06
7C
C0
C0
C0
60
ENDCHAR
STARTCHAR 0470
ENCODING 1136
SWIDTH 565 0
DWIDTH 11 0
BBX 10 14 1 0
BITMAP
CCC0
CCC0
CCC0
CCC0
CCC0
CCC0
CCC0
CC80
CD80
7F80
3E00
0C00
0C00
0C00
ENDCHAR
STARTCHAR 0471
ENCODING 1137
SWIDTH 565 0
DWIDTH 11 0
BBX 10 14 1 -4
BITMAP
CD80
CC80
CCC0
CCC0
CCC0
CCC0
CCC0
CD80
6F80
3E00
0C00
0C00
0C00
0C00
ENDCHAR
STARTCHAR 0472
ENCODING 1138
SWIDTH 565 0
DWIDTH 11 0
BBX 9 14 1 0
BITMAP
1C00
3F00
6300
C180
C180
C080
C080
FF80
C080
C080
C180
4180
7300
3E00
ENDCHAR
STARTCHAR 0473
ENCODING 1139
SWIDTH 565 0
DWIDTH 11 0
BBX 9 10 1 0
BITMAP
3E00
6300
C180
C180
FF80
FF80
C180
C180
6300
3E00
ENDCHAR
STARTCHAR 0474
ENCODING 1140
SWIDTH 565 0
DWIDTH 11 0
BBX 12 14 0 0
BITMAP
C030
6070
6040
60C0
20C0
3080
3180
1180
1900
1B00
0B00
0E00
0E00
0600
ENDCHAR
STARTCHAR 0475
ENCODING 1141
SWIDTH 565 0
DWIDTH 11 0
BBX 9 10 1 0
BITMAP
C180
C300
4300
6200
6600
2600
3400
1C00
1800
1800
ENDCHAR
STARTCHAR 0476
ENCODING 1142
SWIDTH 565 0
DWIDTH 11 0
BBX 12 17 0 0
BITMAP
6C00
3600
0800
C030
6070
6040
60C0
20C0
3080
3180
1180
1900
1B00
0B00
0E00
0E00
0600
ENDCHAR
STARTCHAR 0477
ENCODING 1143
SWIDTH 565 0
DWIDTH 11 0
BBX 9 14 1 0
BITMAP
D800
6C00
1000
0000
C180
C300
4300
6200
6600
2600
3400
1C00
1800
1800
ENDCHAR
STARTCHAR 0478
ENCODING 1144
SWIDTH 565 0
DWIDTH 11 0
BBX 10 18 1 -4
BITMAP
6000
F000
9800
9C00
9A40
9AC0
9AC0
9AC0
9B80
9B80
9B80
9980
D980
7100
0100
0100
0300
0600
ENDCHAR
STARTCHAR 0479
ENCODING 1145
SWIDTH 565 0
DWIDTH 11 0
BBX 10 14 1 -4
BITMAP
7640
DAC0
8AC0
8BC0
8B80
8B80
8B80
8980
D980
7100
0100
0100
0300
0600
ENDCHAR
STARTCHAR 047A
ENCODING 1146
SWIDTH 565 0
DWIDTH 11 0
BBX 9 16 1 -1
BITMAP
0C00
1C00
3F00
6F00
4180
C180
C080
C080
C080
C080
C080
C180
6180
7F00
3E00
0C00
ENDCHAR
STARTCHAR 047B
ENCODING 1147
SWIDTH 565 0
DWIDTH 11 0
BBX 9 12 1 -1
BITMAP
0C00
3E00
6F00
4180
C180
C080
C080
C180
4180
6F00
3E00
0C00
ENDCHAR
STARTCHAR 047C
ENCODING 1148
SWIDTH 565 0
DWIDTH 11 0
BBX 10 17 1 0
BITMAP
3C00
2300
0C00
2C00
6B80
C080
80C0
80C0
80C0
8CC0
8CC0
8CC0
8CC0
8CC0
8CC0
DD80
7780
ENDCHAR
STARTCHAR 047D
ENCODING 1149
SWIDTH 565 0
DWIDTH 11 0
BBX 10 14 1 0
BITMAP
1C00
2700
0C00
0C00
6980
C180
C0C0
C0C0
C0C0
CCC0
CCC0
CCC0
DC80
7780
ENDCHAR
STARTCHAR 047E
ENCODING 1150
SWIDTH 565 0
DWIDTH 11 0
BBX 10 17 1 0
BITMAP
3F00
0C00
0C00
CCC0
CCC0
CCC0
CCC0
CCC0
CCC0
CCC0
CCC0
CCC0
CCC0
CCC0
CCC0
CC80
7780
ENDCHAR
STARTCHAR 047F
ENCODING 1151
SWIDTH 565 0
DWIDTH 11 0
BBX 10 14 1 0
BITMAP
7F00
0F00
0800
0000
CCC0
CCC0
CCC0
CCC0
CCC0
CCC0
CCC0
CCC0
DC80
7780
ENDCHAR
STARTCHAR 0480
ENCODING 1152
SWIDTH 565 0
DWIDTH 11 0
BBX 9 18 1 -4
BITMAP
0E00
3F00
6180
6080
4080
C000
C000
C000
C000
C000
4000
6000
3000
1E00
0600
0600
0600
0600
ENDCHAR
STARTCHAR 0481
ENCODING 1153
SWIDTH 565 0
DWIDTH 11 0
BBX 8 14 2 -4
BITMAP
3E
66
C3
C0
80
80
C0
C0
60
38
18
18
18
18
ENDCHAR
STARTCHAR 0482
ENCODING 1154
SWIDTH 565 0
DWIDTH 11 0
BBX 10 12 1 0
BITMAP
0180
1100
1F00
0600
0580
0CC0
C800
7800
1C00
3600
2200
6000
ENDCHAR
STARTCHAR 0483
ENCODING 1155
SWIDTH 565 0
DWIDTH 11 0
BBX 6 3 2 11
BITMAP
04
FC
80
ENDCHAR
STARTCHAR 0484
ENCODING 1156
SWIDTH 565 0
DWIDTH 11 0
BBX 7 2 2 12
BITMAP
3E
E2
ENDCHAR
STARTCHAR 0485
ENCODING 1157
SWIDTH 565 0
DWIDTH 11 0
BBX 2 3 4 12
BITMAP
C0
40
40
ENDCHAR
STARTCHAR 0486
ENCODING 1158
SWIDTH 565 0
DWIDTH 11 0
BBX 3 3 5 12
BITMAP
60
40
80
ENDCHAR
STARTCHAR 0488
ENCODING 1160
SWIDTH 565 0
DWIDTH 11 0
BBX 18 17 -3 -3
BITMAP
008000
016000
000000
380700
680900
000000
000000
000000
E003C0
100000
000000
000000
100200
680D00
000000
00C000
012000
ENDCHAR
STARTCHAR 0489
ENCODING 1161
SWIDTH 565 0
DWIDTH 11 0
BBX 17 18 -3 -4
BITMAP
004000
008000
108000
108200
180C00
080800
000000
000000
C00200
600380
000000
000000
000800
080C00
304400
008600
008000
008000
ENDCHAR
STARTCHAR 048A
ENCODING 1162
SWIDTH 565 0
DWIDTH 11 0
BBX 10 21 2 -3
BITMAP
4400
6400
3800
0000
8300
8300
8700
8700
8F00
8B00
9B00
9300
B300
A300
E300
C300
C3C0
83C0
00C0
00C0
0180
ENDCHAR
STARTCHAR 048B
ENCODING 1163
SWIDTH 565 0
DWIDTH 11 0
BBX 10 18 2 -3
BITMAP
4400
6400
3800
0000
0000
8300
8700
8F00
8F00
9B00
B300
B300
E300
C3C0
C3C0
00C0
00C0
0180
ENDCHAR
STARTCHAR 048C
ENCODING 1164
SWIDTH 565 0
DWIDTH 11 0
BBX 10 14 0 0
BITMAP
2000
2000
FC00
FC00
2000
2000
3F00
2380
20C0
20C0
20C0
20C0
2180
3F00
ENDCHAR
STARTCHAR 048D
ENCODING 1165
SWIDTH 565 0
DWIDTH 11 0
BBX 10 10 0 0
BITMAP
2000
FC00
FC00
2000
3F80
20C0
20C0
20C0
21C0
3F80
ENDCHAR
STARTCHAR 048E
ENCODING 1166
SWIDTH 565 0
DWIDTH 11 0
BBX 9 14 2 0
BITMAP
F000
FE00
8300
8180
8180
9980
8F00
FE00
FE00
8300
8000
8000
8000
8000
ENDCHAR
STARTCHAR 048F
ENCODING 1167
SWIDTH 565 0
DWIDTH 11 0
BBX 8 14 2 -4
BITMAP
BC
C6
83
83
83
83
83
8F
C6
BF
81
80
80
80
ENDCHAR
STARTCHAR 0490
ENCODING 1168
SWIDTH 565 0
DWIDTH 11 0
BBX 8 17 2 0
BITMAP
03
03
03
FF
FF
80
80
80
80
80
80
80
80
80
80
80
80
ENDCHAR
STARTCHAR 0491
ENCODING 1169
SWIDTH 565 0
DWIDTH 11 0
BBX 8 13 2 0
BITMAP
03
03
03
FF
80
80
80
80
80
80
80
80
80
ENDCHAR
STARTCHAR 0492
ENCODING 1170
SWIDTH 565 0
DWIDTH 11 0
BBX 10 14 0 0
BITMAP
3FC0
3FC0
2000
2000
2000
2000
FC00
FC00
2000
2000
2000
2000
2000
2000
ENDCHAR
STARTCHAR 0493
ENCODING 1171
SWIDTH 565 0
DWIDTH 11 0
BBX 10 10 0 0
BITMAP
3FC0
2000
2000
2000
FC00
FC00
2000
2000
2000
2000
ENDCHAR
STARTCHAR 0494
ENCODING 1172
SWIDTH 565 0
DWIDTH 11 0
BBX 9 17 2 -3
BITMAP
FF00
FF00
8000
8000
8000
8000
F800
FE00
8300
8100
8180
8180
8180
8100
0300
0E00
0C00
ENDCHAR
STARTCHAR 0495
ENCODING 1173
SWIDTH 565 0
DWIDTH 11 0
BBX 8 13 2 -3
BITMAP
FF
80
80
80
FC
FE
83
83
81
83
03
0E
08
ENDCHAR
STARTCHAR 0496
ENCODING 1174
SWIDTH 565 0
DWIDTH 11 0
BBX 12 17 0 -3
BITMAP
6660
66C0
66C0
26C0
3680
3780
1780
1F80
3780
3680
36C0
66C0
6660
E670
0030
0030
0030
ENDCHAR
STARTCHAR 0497
ENCODING 1175
SWIDTH 565 0
DWIDTH 11 0
BBX 12 13 0 -3
BITMAP
E460
64C0
3480
3580
1F00
1F80
3580
64C0
64C0
C470
0030
0030
0030
ENDCHAR
STARTCHAR 0498
ENCODING 1176
SWIDTH 565 0
DWIDTH 11 0
BBX 10 18 1 -4
BITMAP
1C00
7F00
C180
C080
0080
0180
1F00
1F00
0180
0080
C0C0
C180
6380
3F00
0C00
0C00
0C00
0C00
ENDCHAR
STARTCHAR 0499
ENCODING 1177
SWIDTH 565 0
DWIDTH 11 0
BBX 9 14 1 -4
BITMAP
3F00
6380
C180
0180
1F00
1F00
0180
C180
6380
3F00
0C00
0C00
0C00
0C00
ENDCHAR
STARTCHAR 049A
ENCODING 1178
SWIDTH 565 0
DWIDTH 11 0
BBX 10 17 2 -3
BITMAP
8180
8300
8600
8600
8C00
9800
F800
F800
9800
8C00
8600
8600
8300
81C0
00C0
00C0
00C0
ENDCHAR
STARTCHAR 049B
ENCODING 1179
SWIDTH 565 0
DWIDTH 11 0
BBX 10 13 2 -3
BITMAP
8380
8600
8C00
9800
F800
F800
8C00
8E00
8700
83C0
00C0
00C0
00C0
ENDCHAR
STARTCHAR 049C
ENCODING 1180
SWIDTH 565 0
DWIDTH 11 0
BBX 9 14 2 0
BITMAP
8180
8300
8300
8200
B600
B400
FC00
FC00
BE00
B600
8700
8300
8380
8180
ENDCHAR
STARTCHAR 049D
ENCODING 1181
SWIDTH 565 0
DWIDTH 11 0
BBX 9 10 2 0
BITMAP
8300
8600
A600
AC00
F800
FC00
AC00
A600
8300
8380
ENDCHAR
STARTCHAR 049E
ENCODING 1182
SWIDTH 565 0
DWIDTH 11 0
BBX 11 14 0 0
BITMAP
2060
20C0
FC80
FD80
2300
2200
3E00
3E00
2600
2300
2180
2180
20C0
2060
ENDCHAR
STARTCHAR 049F
ENCODING 1183
SWIDTH 565 0
DWIDTH 11 0
BBX 11 14 0 0
BITMAP
2000
FC00
FC00
2000
21C0
2300
2600
2E00
3C00
3E00
2300
2380
2180
20E0
ENDCHAR
STARTCHAR 04A0
ENCODING 1184
SWIDTH 565 0
DWIDTH 11 0
BBX 11 14 0 0
BITMAP
F860
F8C0
18C0
1980
1980
1B00
1F00
1F00
1B00
1980
1980
18C0
18C0
1860
ENDCHAR
STARTCHAR 04A1
ENCODING 1185
SWIDTH 565 0
DWIDTH 11 0
BBX 10 10 1 0
BITMAP
F1C0
1180
1300
1300
1E00
1E00
1300
1180
1180
10C0
ENDCHAR
STARTCHAR 04A2
ENCODING 1186
SWIDTH 565 0
DWIDTH 11 0
BBX 11 17 1 -3
BITMAP
C180
C180
C180
C180
C180
C180
FF80
FF80
C180
C180
C180
C180
C180
C1E0
0060
0060
0060
ENDCHAR
STARTCHAR 04A3
ENCODING 1187
SWIDTH 565 0
DWIDTH 11 0
BBX 10 13 2 -3
BITMAP
8300
8300
8300
8300
FF00
FF00
8300
8300
8300
83C0
00C0
00C0
00C0
ENDCHAR
STARTCHAR 04A4
ENCODING 1188
SWIDTH 565 0
DWIDTH 11 0
BBX 10 14 1 0
BITMAP
C7C0
C7C0
C600
C600
C600
C600
C600
FE00
C600
C600
C600
C600
C600
C600
ENDCHAR
STARTCHAR 04A5
ENCODING 1189
SWIDTH 565 0
DWIDTH 11 0
BBX 10 10 1 0
BITMAP
C7C0
C600
C600
C600
FE00
FE00
C600
C600
C600
C600
ENDCHAR
STARTCHAR 04A6
ENCODING 1190
SWIDTH 565 0
DWIDTH 11 0
BBX 10 17 1 -3
BITMAP
FC00
FC00
CC00
CC00
CC00
CC00
CE00
CF80
CD80
CCC0
CCC0
CCC0
CCC0
CCC0
0080
0380
0300
ENDCHAR
STARTCHAR 04A7
ENCODING 1191
SWIDTH 565 0
DWIDTH 11 0
BBX 10 13 1 -3
BITMAP
FC00
CC00
CC00
CC00
CF00
CF80
CD80
CCC0
CCC0
CC80
0180
0300
0200
ENDCHAR
STARTCHAR 04A8
ENCODING 1192
SWIDTH 565 0
DWIDTH 11 0
BBX 9 14 1 0
BITMAP
2600
6F00
4980
C980
D980
D980
D980
D980
D980
C980
CD80
4D00
7700
3F80
ENDCHAR
STARTCHAR 04A9
ENCODING 1193
SWIDTH 565 0
DWIDTH 11 0
BBX 10 10 1 0
BITMAP
6700
CD80
C980
D880
D880
C880
CD80
CD80
6700
3FC0
ENDCHAR
STARTCHAR 04AA
ENCODING 1194
SWIDTH 565 0
DWIDTH 11 0
BBX 9 18 1 -4
BITMAP
1C00
3F00
6180
C180
C080
C000
C000
C000
C000
C000
C080
4180
7300
3E00
0C00
0C00
0C00
0C00
ENDCHAR
STARTCHAR 04AB
ENCODING 1195
SWIDTH 565 0
DWIDTH 11 0
BBX 9 14 1 -4
BITMAP
3E00
7300
6180
C000
C000
C000
C000
6180
7300
3E00
0C00
0C00
0C00
0C00
ENDCHAR
STARTCHAR 04AC
ENCODING 1196
SWIDTH 565 0
DWIDTH 11 0
BBX 10 17 1 -3
BITMAP
FFC0
FFC0
0C00
0C00
0C00
0C00
0C00
0C00
0C00
0C00
0C00
0C00
0C00
0E00
0600
0600
0600
ENDCHAR
STARTCHAR 04AD
ENCODING 1197
SWIDTH 565 0
DWIDTH 11 0
BBX 10 13 1 -3
BITMAP
FFC0
0C00
0C00
0C00
0C00
0C00
0C00
0C00
0C00
0E00
0600
0600
0600
ENDCHAR
STARTCHAR 04AE
ENCODING 1198
SWIDTH 565 0
DWIDTH 11 0
BBX 10 14 1 0
BITMAP
C0C0
C180
4180
6300
2300
3600
1600
1C00
0C00
0800
0800
0800
0800
0800
ENDCHAR
STARTCHAR 04AF
ENCODING 1199
SWIDTH 565 0
DWIDTH 11 0
BBX 10 14 1 -4
BITMAP
C0C0
C180
6180
6100
2300
3200
1600
1E00
1C00
0C00
0C00
0C00
0C00
0C00
ENDCHAR
STARTCHAR 04B0
ENCODING 1200
SWIDTH 565 0
DWIDTH 11 0
BBX 10 14 1 0
BITMAP
C0C0
C180
4180
6300
2300
3600
1600
1C00
3F00
0800
0800
0800
0800
0800
ENDCHAR
STARTCHAR 04B1
ENCODING 1201
SWIDTH 565 0
DWIDTH 11 0
BBX 10 14 1 -4
BITMAP
C0C0
C180
6180
6100
2300
3200
1600
1E00
1C00
3F00
0C00
0C00
0C00
0C00
ENDCHAR
STARTCHAR 04B2
ENCODING 1202
SWIDTH 565 0
DWIDTH 11 0
BBX 11 17 1 -3
BITMAP
C0C0
4180
6180
3300
3200
1E00
1C00
0C00
1E00
3600
3300
6300
6180
C0E0
0060
0060
0060
ENDCHAR
STARTCHAR 04B3
ENCODING 1203
SWIDTH 565 0
DWIDTH 11 0
BBX 10 13 1 -3
BITMAP
C180
6300
3300
1E00
0C00
1C00
1E00
3300
6300
C1C0
00C0
00C0
00C0
ENDCHAR
STARTCHAR 04B4
ENCODING 1204
SWIDTH 565 0
DWIDTH 11 0
BBX 10 17 1 -3
BITMAP
FD80
FD80
3180
3180
3180
3180
3180
3180
3180
3180
3180
3180
3180
3FC0
00C0
00C0
00C0
ENDCHAR
STARTCHAR 04B5
ENCODING 1205
SWIDTH 565 0
DWIDTH 11 0
BBX 11 13 0 -3
BITMAP
FCC0
10C0
10C0
10C0
10C0
10C0
10C0
10C0
10C0
1FE0
0060
0060
0060
ENDCHAR
STARTCHAR 04B6
ENCODING 1206
SWIDTH 565 0
DWIDTH 11 0
BBX 10 17 2 -3
BITMAP
8300
8300
8300
8300
8300
8300
C300
FF00
7F00
0300
0300
0300
0300
03C0
00C0
00C0
00C0
ENDCHAR
STARTCHAR 04B7
ENCODING 1207
SWIDTH 565 0
DWIDTH 11 0
BBX 11 13 1 -3
BITMAP
C180
C180
C180
C180
4180
7F80
1D80
0180
0180
01E0
0060
0060
0060
ENDCHAR
STARTCHAR 04B8
ENCODING 1208
SWIDTH 565 0
DWIDTH 11 0
BBX 8 14 2 0
BITMAP
83
83
83
83
83
93
D3
FF
7F
13
13
03
03
03
ENDCHAR
STARTCHAR 04B9
ENCODING 1209
SWIDTH 565 0
DWIDTH 11 0
BBX 9 10 1 0
BITMAP
C180
C180
C180
C980
6980
7F80
1D80
0980
0180
0180
ENDCHAR
STARTCHAR 04BA
ENCODING 1210
SWIDTH 565 0
DWIDTH 11 0
BBX 8 14 2 0
BITMAP
C0
C0
C0
C0
C0
C0
FE
C3
C1
C1
C1
C1
C1
C1
ENDCHAR
STARTCHAR 04BB
ENCODING 1211
SWIDTH 565 0
DWIDTH 11 0
BBX 8 14 2 0
BITMAP
80
80
80
80
BE
E6
83
83
83
83
83
83
83
83
ENDCHAR
STARTCHAR 04BC
ENCODING 1212
SWIDTH 565 0
DWIDTH 11 0
BBX 11 14 0 0
BITMAP
0300
0FC0
08C0
1860
D860
5060
7FE0
1000
1000
1800
1800
1800
0C40
07C0
ENDCHAR
STARTCHAR 04BD
ENCODING 1213
SWIDTH 565 0
DWIDTH 11 0
BBX 11 10 0 0
BITMAP
0780
0CC0
D860
5860
7FE0
1000
1800
1800
0C40
07C0
ENDCHAR
STARTCHAR 04BE
ENCODING 1214
SWIDTH 565 0
DWIDTH 11 0
BBX 11 18 0 -4
BITMAP
0300
0FC0
08C0
1860
D860
5060
7FE0
1000
1000
1800
1800
1800
0C40
07C0
0180
0180
0180
0180
ENDCHAR
STARTCHAR 04BF
ENCODING 1215
SWIDTH 565 0
DWIDTH 11 0
BBX 11 14 0 -4
BITMAP
0780
0CC0
D860
5860
7FE0
1000
1800
1800
0C40
07C0
0300
0300
0300
0300
ENDCHAR
STARTCHAR 04C0
ENCODING 1216
SWIDTH 565 0
DWIDTH 11 0
BBX 8 14 2 0
BITMAP
FF
FF
18
18
18
18
18
18
18
18
18
18
18
FF
ENDCHAR
STARTCHAR 04C1
ENCODING 1217
SWIDTH 565 0
DWIDTH 11 0
BBX 11 18 0 0
BITMAP
1100
1900
0E00
0000
6660
66C0
66C0
26C0
3680
3780
1780
1F80
3780
3680
36C0
66C0
6660
E660
ENDCHAR
STARTCHAR 04C2
ENCODING 1218
SWIDTH 565 0
DWIDTH 11 0
BBX 11 15 0 0
BITMAP
1100
1900
0E00
0000
8000
6460
64C0
3480
3580
1F00
1F80
3580
64C0
64C0
C460
ENDCHAR
STARTCHAR 04C3
ENCODING 1219
SWIDTH 565 0
DWIDTH 11 0
BBX 9 17 2 -3
BITMAP
C180
C300
C600
C600
CC00
D800
F800
FE00
C300
C100
C180
C180
C180
C180
0300
0F00
0C00
ENDCHAR
STARTCHAR 04C4
ENCODING 1220
SWIDTH 565 0
DWIDTH 11 0
BBX 8 12 2 -2
BITMAP
83
86
8C
98
F8
FE
83
83
83
83
06
0C
ENDCHAR
STARTCHAR 04C5
ENCODING 1221
SWIDTH 565 0
DWIDTH 11 0
BBX 12 17 0 -3
BITMAP
1FC0
1FC0
10C0
10C0
10C0
10C0
10C0
10C0
10C0
30C0
30C0
30C0
60F0
E0F0
0030
0030
0060
ENDCHAR
STARTCHAR 04C6
ENCODING 1222
SWIDTH 565 0
DWIDTH 11 0
BBX 11 13 1 -3
BITMAP
3F80
2180
2180
2180
2180
2180
2180
6180
E1E0
C1E0
0060
0060
00C0
ENDCHAR
STARTCHAR 04C7
ENCODING 1223
SWIDTH 565 0
DWIDTH 11 0
BBX 8 18 2 -4
BITMAP
83
83
83
83
83
83
83
FF
83
83
83
83
83
83
03
03
06
0E
ENDCHAR
STARTCHAR 04C8
ENCODING 1224
SWIDTH 565 0
DWIDTH 11 0
BBX 8 14 2 -4
BITMAP
83
83
83
83
FF
FF
83
83
83
83
03
03
06
0E
ENDCHAR
STARTCHAR 04C9
ENCODING 1225
SWIDTH 565 0
DWIDTH 11 0
BBX 11 17 1 -3
BITMAP
C180
C180
C180
C180
C180
C180
FF80
FF80
C180
C180
C180
C180
C1E0
C1E0
0060
0060
00C0
ENDCHAR
STARTCHAR 04CA
ENCODING 1226
SWIDTH 565 0
DWIDTH 11 0
BBX 10 13 2 -3
BITMAP
8300
8300
8300
8300
FF00
FF00
8300
8300
83C0
83C0
00C0
00C0
0180
ENDCHAR
STARTCHAR 04CB
ENCODING 1227
SWIDTH 565 0
DWIDTH 11 0
BBX 8 17 2 -3
BITMAP
83
83
83
83
83
83
C3
FF
7F
03
03
03
03
07
06
06
06
ENDCHAR
STARTCHAR 04CC
ENCODING 1228
SWIDTH 565 0
DWIDTH 11 0
BBX 9 13 1 -3
BITMAP
C180
C180
C180
C180
4180
7F80
1D80
0180
0180
0380
0300
0300
0300
ENDCHAR
STARTCHAR 04CD
ENCODING 1229
SWIDTH 565 0
DWIDTH 11 0
BBX 11 17 1 -3
BITMAP
E180
E180
E380
E280
F280
D680
D480
DC80
CC80
C880
C080
C080
C0E0
C0E0
0060
0060
00C0
ENDCHAR
STARTCHAR 04CE
ENCODING 1230
SWIDTH 565 0
DWIDTH 11 0
BBX 11 13 1 -3
BITMAP
E180
E380
E380
E380
F780
D780
D580
DD80
CDE0
C9E0
0060
0060
00C0
ENDCHAR
STARTCHAR 04CF
ENCODING 1231
SWIDTH 565 0
DWIDTH 11 0
BBX 8 14 2 0
BITMAP
FF
FF
18
18
18
18
18
18
18
18
18
18
18
FF
ENDCHAR
STARTCHAR 04D0
ENCODING 1232
SWIDTH 565 0
DWIDTH 11 0
BBX 10 18 1 0
BITMAP
2200
3200
1C00
0000
0C00
0C00
1C00
1E00
1600
3200
3200
2300
2300
7F00
6180
4180
C080
C0C0
ENDCHAR
STARTCHAR 04D1
ENCODING 1233
SWIDTH 565 0
DWIDTH 11 0
BBX 9 15 1 0
BITMAP
2200
3200
1C00
0000
0000
3E00
6300
4180
0180
3F80
6180
4180
C180
6780
3D80
ENDCHAR
STARTCHAR 04D2
ENCODING 1234
SWIDTH 565 0
DWIDTH 11 0
BBX 10 17 1 0
BITMAP
2200
3300
0000
0C00
0C00
1C00
1E00
1600
3200
3200
2300
2300
7F00
6180
4180
C080
C0C0
ENDCHAR
STARTCHAR 04D3
ENCODING 1235
SWIDTH 565 0
DWIDTH 11 0
BBX 9 14 1 0
BITMAP
2200
3300
0000
0000
3E00
6300
4180
0180
3F80
6180
4180
C180
6780
3D80
ENDCHAR
STARTCHAR 04D4
ENCODING 1236
SWIDTH 565 0
DWIDTH 11 0
BBX 11 14 0 0
BITMAP
07E0
07E0
0700
0F00
0B00
0B00
1BE0
13E0
3300
3F00
3F00
6300
6300
C3E0
ENDCHAR
STARTCHAR 04D5
ENCODING 1237
SWIDTH 565 0
DWIDTH 11 0
BBX 11 10 0 0
BITMAP
7FC0
6E60
4660
0460
3FE0
6400
C400
C600
6E20
7BE0
ENDCHAR
STARTCHAR 04D6
ENCODING 1238
SWIDTH 565 0
DWIDTH 11 0
BBX 8 18 2 0
BITMAP
44
64
38
00
FF
FF
80
80
80
80
FE
FE
80
80
80
80
80
FF
ENDCHAR
STARTCHAR 04D7
ENCODING 1239
SWIDTH 565 0
DWIDTH 11 0
BBX 9 15 1 0
BITMAP
2200
3200
1C00
0000
0000
3E00
7300
6180
C180
FF80
C000
C000
6100
7180
3F00
ENDCHAR
STARTCHAR 04D8
ENCODING 1240
SWIDTH 565 0
DWIDTH 11 0
BBX 9 14 1 0
BITMAP
1C00
7F00
4300
0180
0180
0080
0080
FF80
C080
C180
C180
C180
6300
3E00
ENDCHAR
STARTCHAR 04D9
ENCODING 1241
SWIDTH 565 0
DWIDTH 11 0
BBX 8 10 2 0
BITMAP
7C
C6
03
03
01
FF
83
C3
E6
7C
ENDCHAR
STARTCHAR 04DA
ENCODING 1242
SWIDTH 565 0
DWIDTH 11 0
BBX 9 17 1 0
BITMAP
2200
3300
0000
1C00
7F00
4300
0180
0180
0080
0080
FF80
C080
C180
C180
C180
6300
3E00
ENDCHAR
STARTCHAR 04DB
ENCODING 1243
SWIDTH 565 0
DWIDTH 11 0
BBX 8 14 2 0
BITMAP
44
66
00
00
7C
C6
03
03
01
FF
83
C3
E6
7C
ENDCHAR
STARTCHAR 04DC
ENCODING 1244
SWIDTH 565 0
DWIDTH 11 0
BBX 11 17 0 0
BITMAP
1100
1980
0000
6660
66C0
66C0
26C0
3680
3780
1780
1F80
3780
3680
36C0
66C0
6660
E660
ENDCHAR
STARTCHAR 04DD
ENCODING 1245
SWIDTH 565 0
DWIDTH 11 0
BBX 11 14 0 0
BITMAP
1100
1980
0000
8000
6460
64C0
3480
3580
1F00
1F80
3580
64C0
64C0
C460
ENDCHAR
STARTCHAR 04DE
ENCODING 1246
SWIDTH 565 0
DWIDTH 11 0
BBX 10 17 1 0
BITMAP
2200
3300
0000
1C00
7F00
C180
C080
0080
0180
1F00
1F00
0180
0080
C0C0
C180
6380
3F00
ENDCHAR
STARTCHAR 04DF
ENCODING 1247
SWIDTH 565 0
DWIDTH 11 0
BBX 9 14 1 0
BITMAP
2200
3300
0000
0000
3F00
6380
C180
0180
1F00
1F00
0180
C180
6380
3F00
ENDCHAR
STARTCHAR 04E0
ENCODING 1248
SWIDTH 565 0
DWIDTH 11 0
BBX 9 14 1 0
BITMAP
7F80
7F80
0300
0600
0400
0C00
1E00
0700
0180
0180
C080
4180
6380
3F00
ENDCHAR
STARTCHAR 04E1
ENCODING 1249
SWIDTH 565 0
DWIDTH 11 0
BBX 9 14 1 -4
BITMAP
7F80
0300
0300
0600
0C00
1800
1F00
0380
0180
0180
C180
6180
7F00
1C00
ENDCHAR
STARTCHAR 04E2
ENCODING 1250
SWIDTH 565 0
DWIDTH 11 0
BBX 8 17 2 0
BITMAP
FE
FE
00
83
83
87
87
8F
8B
9B
93
B3
A3
E3
C3
C3
83
ENDCHAR
STARTCHAR 04E3
ENCODING 1251
SWIDTH 565 0
DWIDTH 11 0
BBX 8 14 2 0
BITMAP
FE
FE
00
00
83
87
8F
8F
9B
B3
B3
E3
C3
C3
ENDCHAR
STARTCHAR 04E4
ENCODING 1252
SWIDTH 565 0
DWIDTH 11 0
BBX 8 17 2 0
BITMAP
44
66
00
83
83
87
87
8F
8B
9B
93
B3
A3
E3
C3
C3
83
ENDCHAR
STARTCHAR 04E5
ENCODING 1253
SWIDTH 565 0
DWIDTH 11 0
BBX 8 14 2 0
BITMAP
44
66
00
00
83
87
8F
8F
9B
B3
B3
E3
C3
C3
ENDCHAR
STARTCHAR 04E6
ENCODING 1254
SWIDTH 565 0
DWIDTH 11 0
BBX 9 17 1 0
BITMAP
2200
3300
0000
1C00
3F00
6300
4180
C180
C080
C080
C080
C080
C080
C180
6180
7300
3E00
ENDCHAR
STARTCHAR 04E7
ENCODING 1255
SWIDTH 565 0
DWIDTH 11 0
BBX 9 14 1 0
BITMAP
2200
3300
0000
0000
3E00
6300
4180
C180
C080
C080
C180
4180
6300
3E00
ENDCHAR
STARTCHAR 04E8
ENCODING 1256
SWIDTH 565 0
DWIDTH 11 0
BBX 9 14 1 0
BITMAP
1C00
3F00
6300
C180
C180
C080
C080
FF80
C080
C080
C180
4180
7300
3E00
ENDCHAR
STARTCHAR 04E9
ENCODING 1257
SWIDTH 565 0
DWIDTH 11 0
BBX 9 10 1 0
BITMAP
3E00
6300
C180
C180
FF80
FF80
C180
C180
6300
3E00
ENDCHAR
STARTCHAR 04EA
ENCODING 1258
SWIDTH 565 0
DWIDTH 11 0
BBX 9 17 1 0
BITMAP
2200
3300
0000
1C00
3F00
6300
C180
C180
C080
C080
FF80
C080
C080
C180
4180
7300
3E00
ENDCHAR
STARTCHAR 04EB
ENCODING 1259
SWIDTH 565 0
DWIDTH 11 0
BBX 9 14 1 0
BITMAP
2200
3300
0000
0000
3E00
6300
C180
C180
FF80
FF80
C180
C180
6300
3E00
ENDCHAR
STARTCHAR 04EC
ENCODING 1260
SWIDTH 565 0
DWIDTH 11 0
BBX 9 17 1 0
BITMAP
2200
3300
0000
1C00
7F00
6300
C180
C180
0080
0080
1F80
0080
0080
C180
C180
6300
3E00
ENDCHAR
STARTCHAR 04ED
ENCODING 1261
SWIDTH 565 0
DWIDTH 11 0
BBX 9 14 1 0
BITMAP
2200
3300
0000
0000
3E00
6300
C180
0180
1F80
1F80
0180
C180
6300
3E00
ENDCHAR
STARTCHAR 04EE
ENCODING 1262
SWIDTH 565 0
DWIDTH 11 0
BBX 11 17 0 0
BITMAP
3F80
3F80
0000
C060
6060
60C0
30C0
3080
1980
1980
0B00
0F00
0600
0600
0400
0C00
7800
ENDCHAR
STARTCHAR 04EF
ENCODING 1263
SWIDTH 565 0
DWIDTH 11 0
BBX 10 18 1 -4
BITMAP
7F00
7F00
0000
0000
C0C0
C180
6180
6300
2300
3200
1600
1C00
1C00
0C00
1800
1800
B000
E000
ENDCHAR
STARTCHAR 04F0
ENCODING 1264
SWIDTH 565 0
DWIDTH 11 0
BBX 11 17 0 0
BITMAP
1100
1980
0000
C060
6060
60C0
30C0
3080
1980
1980
0B00
0F00
0600
0600
0400
0C00
7800
ENDCHAR
STARTCHAR 04F1
ENCODING 1265
SWIDTH 565 0
DWIDTH 11 0
BBX 10 18 1 -4
BITMAP
2200
3300
0000
0000
C0C0
C180
6180
6300
2300
3200
1600
1C00
1C00
0C00
1800
1800
B000
E000
ENDCHAR
STARTCHAR 04F2
ENCODING 1266
SWIDTH 565 0
DWIDTH 11 0
BBX 11 17 0 0
BITMAP
03E0
0580
0800
C060
6060
60C0
30C0
3080
1980
1980
0B00
0F00
0600
0600
0400
0C00
7800
ENDCHAR
STARTCHAR 04F3
ENCODING 1267
SWIDTH 565 0
DWIDTH 11 0
BBX 10 18 1 -4
BITMAP
0F80
1600
2000
0000
C0C0
C180
6180
6300
2300
3200
1600
1C00
1C00
0C00
1800
1800
B000
E000
ENDCHAR
STARTCHAR 04F4
ENCODING 1268
SWIDTH 565 0
DWIDTH 11 0
BBX 8 17 2 0
BITMAP
88
CC
00
83
83
83
83
83
83
C3
FF
7F
03
03
03
03
03
ENDCHAR
STARTCHAR 04F5
ENCODING 1269
SWIDTH 565 0
DWIDTH 11 0
BBX 9 14 1 0
BITMAP
2200
3300
0000
0000
C180
C180
C180
C180
4180
7F80
1D80
0180
0180
0180
ENDCHAR
STARTCHAR 04F6
ENCODING 1270
SWIDTH 565 0
DWIDTH 11 0
BBX 8 17 2 -3
BITMAP
FF
FF
80
80
80
80
80
80
80
80
80
80
80
E0
60
60
60
ENDCHAR
STARTCHAR 04F7
ENCODING 1271
SWIDTH 565 0
DWIDTH 11 0
BBX 8 13 2 -3
BITMAP
FF
80
80
80
80
80
80
80
80
E0
60
60
60
ENDCHAR
STARTCHAR 04F8
ENCODING 1272
SWIDTH 565 0
DWIDTH 11 0
BBX 9 17 1 0
BITMAP
2200
3300
0000
C180
C180
C180
C180
C180
C180
F980
DD80
C580
C780
C580
C580
CD80
F980
ENDCHAR
STARTCHAR 04F9
ENCODING 1273
SWIDTH 565 0
DWIDTH 11 0
BBX 9 14 1 0
BITMAP
1100
1980
0000
0000
C180
C180
C180
C180
F980
CD80
C580
C580
CD80
F980
ENDCHAR
STARTCHAR 04FA
ENCODING 1274
SWIDTH 565 0
DWIDTH 11 0
BBX 10 18 1 -4
BITMAP
3FC0
3FC0
2000
2000
2000
2000
FC00
2000
2000
2000
2000
2000
2000
3000
1000
1000
B000
E000
ENDCHAR
STARTCHAR 04FB
ENCODING 1275
SWIDTH 565 0
DWIDTH 11 0
BBX 10 14 1 -4
BITMAP
3FC0
2000
2000
2000
FC00
2000
2000
2000
2000
3000
1000
1000
B000
E000
ENDCHAR
STARTCHAR 04FC
ENCODING 1276
SWIDTH 565 0
DWIDTH 11 0
BBX 11 18 1 -4
BITMAP
C0C0
4180
6180
3300
3200
1E00
1C00
0C00
1E00
3600
3300
6300
6180
C0E0
0020
0020
0160
01C0
ENDCHAR
STARTCHAR 04FD
ENCODING 1277
SWIDTH 565 0
DWIDTH 11 0
BBX 10 14 1 -4
BITMAP
C180
6300
3300
1E00
0C00
1C00
1E00
3300
6300
C1C0
0040
0040
02C0
0380
ENDCHAR
STARTCHAR 04FE
ENCODING 1278
SWIDTH 565 0
DWIDTH 11 0
BBX 10 14 1 0
BITMAP
C0C0
C180
6180
3300
3200
1E00
3F00
3F00
1E00
3600
3300
6300
6180
C0C0
ENDCHAR
STARTCHAR 04FF
ENCODING 1279
SWIDTH 565 0
DWIDTH 11 0
BBX 10 10 1 0
BITMAP
C180
6300
3300
1E00
3F00
3F00
1E00
3300
6300
C1C0
ENDCHAR
STARTCHAR 0500
ENCODING 1280
SWIDTH 565 0
DWIDTH 11 0
BBX 9 14 1 0
BITMAP
0180
0180
0180
0180
0180
0180
3F80
6180
C180
C180
C180
C180
7180
3F80
ENDCHAR
STARTCHAR 0501
ENCODING 1281
SWIDTH 565 0
DWIDTH 11 0
BBX 9 14 1 0
BITMAP
0180
0180
0180
0180
3F80
7380
6180
C180
C180
C180
C180
6180
7380
3F80
ENDCHAR
STARTCHAR 0502
ENCODING 1282
SWIDTH 565 0
DWIDTH 11 0
BBX 10 14 1 0
BITMAP
0C00
0C00
0C00
0C00
0C00
0C00
7C80
CCC0
CCC0
8CC0
8CC0
CCC0
ED80
7F00
ENDCHAR
STARTCHAR 0503
ENCODING 1283
SWIDTH 565 0
DWIDTH 11 0
BBX 10 14 1 0
BITMAP
0C00
0C00
0C00
0C00
7C00
CC80
CCC0
CCC0
CCC0
CCC0
CCC0
CCC0
CD80
7780
ENDCHAR
STARTCHAR 0504
ENCODING 1284
SWIDTH 565 0
DWIDTH 11 0
BBX 10 14 1 0
BITMAP
C000
F000
1800
0800
0800
0980
1880
70C0
18C0
08C0
08C0
0880
0D80
0F00
ENDCHAR
STARTCHAR 0505
ENCODING 1285
SWIDTH 565 0
DWIDTH 11 0
BBX 10 10 1 0
BITMAP
F000
1800
0C00
0D80
7880
78C0
0CC0
0C80
0D80
0700
ENDCHAR
STARTCHAR 0506
ENCODING 1286
SWIDTH 565 0
DWIDTH 11 0
BBX 8 17 2 -3
BITMAP
E0
FC
0C
06
06
06
0C
78
0C
06
06
06
07
07
03
03
02
ENDCHAR
STARTCHAR 0507
ENCODING 1287
SWIDTH 565 0
DWIDTH 11 0
BBX 8 13 2 -3
BITMAP
F8
0C
06
04
1C
7C
0C
06
07
07
03
03
06
ENDCHAR
STARTCHAR 0508
ENCODING 1288
SWIDTH 565 0
DWIDTH 11 0
BBX 11 14 0 0
BITMAP
3E00
3E00
3200
3200
3200
3260
3260
3260
3260
3260
3260
2260
6340
C3C0
ENDCHAR
STARTCHAR 0509
ENCODING 1289
SWIDTH 565 0
DWIDTH 11 0
BBX 11 10 0 0
BITMAP
3E00
3600
36C0
3640
3660
2660
2660
2640
E2C0
C380
ENDCHAR
STARTCHAR 050A
ENCODING 1290
SWIDTH 565 0
DWIDTH 11 0
BBX 10 14 1 0
BITMAP
C400
C400
C400
C400
C400
C480
C4C0
FCC0
C4C0
C4C0
C4C0
C4C0
C580
C780
ENDCHAR
STARTCHAR 050B
ENCODING 1291
SWIDTH 565 0
DWIDTH 11 0
BBX 10 10 1 0
BITMAP
CC00
CC00
CC80
CC80
FCC0
FCC0
CCC0
CC80
CD80
C700
ENDCHAR
STARTCHAR 050C
ENCODING 1292
SWIDTH 565 0
DWIDTH 11 0
BBX 10 14 1 0
BITMAP
0E00
3F00
6000
6000
C000
C000
C100
C080
C080
C0C0
40C0
6080
3180
1F00
ENDCHAR
STARTCHAR 050D
ENCODING 1293
SWIDTH 565 0
DWIDTH 11 0
BBX 9 10 1 0
BITMAP
1F00
3100
6000
4000
C000
C180
4080
6180
3180
1F00
ENDCHAR
STARTCHAR 050E
ENCODING 1294
SWIDTH 565 0
DWIDTH 11 0
BBX 10 14 1 0
BITMAP
FF00
FF00
1800
1800
1800
1880
18C0
18C0
18C0
18C0
18C0
1880
1980
0F00
ENDCHAR
STARTCHAR 050F
ENCODING 1295
SWIDTH 565 0
DWIDTH 11 0
BBX 9 10 1 0
BITMAP
FF00
1800
1800
1980
1880
1880
1880
1880
1980
0F00
ENDCHAR
STARTCHAR 0510
ENCODING 1296
SWIDTH 565 0
DWIDTH 11 0
BBX 10 14 1 0
BITMAP
1C00
7F00
6180
C080
C000
4000
7E00
7E00
C000
C000
C0C0
C180
6380
3F00
ENDCHAR
STARTCHAR 0511
ENCODING 1297
SWIDTH 565 0
DWIDTH 11 0
BBX 9 10 1 0
BITMAP
3F00
6380
C180
4000
3E00
7E00
C000
C080
6380
3F00
ENDCHAR
STARTCHAR 0512
ENCODING 1298
SWIDTH 565 0
DWIDTH 11 0
BBX 11 18 0 -4
BITMAP
1FC0
1FC0
10C0
10C0
10C0
10C0
10C0
10C0
10C0
30C0
30C0
30C0
60C0
E0E0
0020
0020
0160
01C0
ENDCHAR
STARTCHAR 0513
ENCODING 1299
SWIDTH 565 0
DWIDTH 11 0
BBX 10 14 1 -4
BITMAP
3F80
2180
2180
2180
2180
2180
2180
6180
E180
C1C0
0040
0040
02C0
0380
ENDCHAR
STARTCHAR 1E00
ENCODING 7680
SWIDTH 565 0
DWIDTH 11 0
BBX 10 17 1 -3
BITMAP
0C00
0C00
1C00
1E00
1600
3200
3200
2300
2300
7F00
6180
4180
C080
C0C0
0000
1C00
1C00
ENDCHAR
STARTCHAR 1E01
ENCODING 7681
SWIDTH 565 0
DWIDTH 11 0
BBX 9 13 1 -3
BITMAP
3E00
6300
4180
0180
3F80
6180
4180
C180
6780
3D80
0000
1C00
1C00
ENDCHAR
STARTCHAR 1E3E
ENCODING 7742
SWIDTH 565 0
DWIDTH 11 0
BBX 9 17 1 0
BITMAP
0700
0400
0800
E180
E180
E380
E280
F280
D680
D480
DC80
CC80
C880
C080
C080
C080
C080
ENDCHAR
STARTCHAR 1E3F
ENCODING 7743
SWIDTH 565 0
DWIDTH 11 0
BBX 10 14 1 0
BITMAP
0700
0400
0800
0000
BB80
CC80
CCC0
CCC0
CCC0
CCC0
CCC0
CCC0
CCC0
CCC0
ENDCHAR
STARTCHAR 1E80
ENCODING 7808
SWIDTH 565 0
DWIDTH 11 0
BBX 10 17 1 0
BITMAP
3000
1800
0800
8CC0
8CC0
CCC0
CCC0
DC80
DC80
D680
5680
5280
7380
7380
7380
6380
6300
ENDCHAR
STARTCHAR 1E81
ENCODING 7809
SWIDTH 565 0
DWIDTH 11 0
BBX 11 14 0 0
BITMAP
1800
0C00
0600
0000
C460
4660
4660
6E40
6A40
2B40
29C0
3980
3180
3180
ENDCHAR
STARTCHAR 1E82
ENCODING 7810
SWIDTH 565 0
DWIDTH 11 0
BBX 10 17 1 0
BITMAP
0700
0400
0800
8CC0
8CC0
CCC0
CCC0
DC80
DC80
D680
5680
5280
7380
7380
7380
6380
6300
ENDCHAR
STARTCHAR 1E83
ENCODING 7811
SWIDTH 565 0
DWIDTH 11 0
BBX 11 14 0 0
BITMAP
0380
0200
0400
0000
C460
4660
4660
6E40
6A40
2B40
29C0
3980
3180
3180
ENDCHAR
STARTCHAR 1E84
ENCODING 7812
SWIDTH 565 0
DWIDTH 11 0
BBX 10 17 1 0
BITMAP
2200
3300
0000
8CC0
8CC0
CCC0
CCC0
DC80
DC80
D680
5680
5280
7380
7380
7380
6380
6300
ENDCHAR
STARTCHAR 1E85
ENCODING 7813
SWIDTH 565 0
DWIDTH 11 0
BBX 11 14 0 0
BITMAP
1100
1980
0000
0000
C460
4660
4660
6E40
6A40
2B40
29C0
3980
3180
3180
ENDCHAR
STARTCHAR 1EA0
ENCODING 7840
SWIDTH 565 0
DWIDTH 11 0
BBX 10 17 1 -3
BITMAP
0C00
0C00
1C00
1E00
1600
3200
3200
2300
2300
7F00
6180
4180
C080
C0C0
0000
0C00
0C00
ENDCHAR
STARTCHAR 1EA1
ENCODING 7841
SWIDTH 565 0
DWIDTH 11 0
BBX 9 13 1 -3
BITMAP
3E00
6300
4180
0180
3F80
6180
4180
C180
6780
3D80
0000
1800
1800
ENDCHAR
STARTCHAR 1EA2
ENCODING 7842
SWIDTH 565 0
DWIDTH 11 0
BBX 10 18 1 0
BITMAP
0C00
0600
0C00
0000
0C00
0C00
1C00
1E00
1600
3200
3200
2300
2300
7F00
6180
4180
C080
C0C0
ENDCHAR
STARTCHAR 1EA3
ENCODING 7843
SWIDTH 565 0
DWIDTH 11 0
BBX 9 15 1 0
BITMAP
0C00
0600
0C00
0000
0000
3E00
6300
4180
0180
3F80
6180
4180
C180
6780
3D80
ENDCHAR
STARTCHAR 1EA4
ENCODING 7844
SWIDTH 565 0
DWIDTH 11 0
BBX 11 19 1 0
BITMAP
0060
00C0
0C80
3200
4100
0C00
0C00
1C00
1E00
1600
3200
3200
2300
2300
7F00
6180
4180
C080
C0C0
ENDCHAR
STARTCHAR 1EA5
ENCODING 7845
SWIDTH 565 0
DWIDTH 11 0
BBX 11 16 1 0
BITMAP
0060
00C0
0C80
3200
4100
0000
3E00
6300
4180
0180
3F80
6180
4180
C180
6780
3D80
ENDCHAR
STARTCHAR 1EA6
ENCODING 7846
SWIDTH 565 0
DWIDTH 11 0
BBX 11 19 0 0
BITMAP
C000
6000
2600
0980
1000
0600
0600
0E00
0F00
0B00
1900
1900
1180
1180
3F80
30C0
20C0
6040
6060
ENDCHAR
STARTCHAR 1EA7
ENCODING 7847
SWIDTH 565 0
DWIDTH 11 0
BBX 10 16 0 0
BITMAP
C000
6000
2600
0980
1000
0000
1F00
3180
20C0
00C0
1FC0
30C0
20C0
60C0
33C0
1EC0
ENDCHAR
STARTCHAR 1EA8
ENCODING 7848
SWIDTH 565 0
DWIDTH 11 0
BBX 10 19 1 0
BITMAP
00C0
0040
1C80
3200
4100
0C00
0C00
1C00
1E00
1600
3200
3200
2300
2300
7F00
6180
4180
C080
C0C0
ENDCHAR
STARTCHAR 1EA9
ENCODING 7849
SWIDTH 565 0
DWIDTH 11 0
BBX 10 16 1 0
BITMAP
00C0
0040
1C80
3200
4100
0000
3E00
6300
4180
0180
3F80
6180
4180
C180
6780
3D80
ENDCHAR
STARTCHAR 1EAA
ENCODING 7850
SWIDTH 565 0
DWIDTH 11 0
BBX 10 20 1 0
BITMAP
0200
1E00
2000
0C00
3200
0100
0C00
0C00
1C00
1E00
1600
3200
3200
2300
2300
7F00
6180
4180
C080
C0C0
ENDCHAR
STARTCHAR 1EAB
ENCODING 7851
SWIDTH 565 0
DWIDTH 11 0
BBX 9 17 1 0
BITMAP
0200
1E00
2000
0C00
3200
0100
0000
3E00
6300
4180
0180
3F80
6180
4180
C180
6780
3D80
ENDCHAR
STARTCHAR 1EAC
ENCODING 7852
SWIDTH 565 0
DWIDTH 11 0
BBX 10 20 1 -3
BITMAP
1C00
3600
0000
0C00
0C00
1C00
1E00
1600
3200
3200
2300
2300
7F00
6180
4180
C080
C0C0
0000
0C00
0C00
ENDCHAR
STARTCHAR 1EAD
ENCODING 7853
SWIDTH 565 0
DWIDTH 11 0
BBX 9 17 1 -3
BITMAP
1C00
3600
0000
0000
3E00
6300
4180
0180
3F80
6180
4180
C180
6780
3D80
0000
1800
1800
ENDCHAR
STARTCHAR 1EAE
ENCODING 7854
SWIDTH 565 0
DWIDTH 11 0
BBX 10 19 1 0
BITMAP
0600
0400
2B00
3E00
0000
0C00
0C00
1C00
1E00
1600
3200
3200
2300
2300
7F00
6180
4180
C080
C0C0
ENDCHAR
STARTCHAR 1EAF
ENCODING 7855
SWIDTH 565 0
DWIDTH 11 0
BBX 9 16 1 0
BITMAP
0600
0400
2B00
3E00
0000
0000
3E00
6300
4180
0180
3F80
6180
4180
C180
6780
3D80
ENDCHAR
STARTCHAR 1EB0
ENCODING 7856
SWIDTH 565 0
DWIDTH 11 0
BBX 10 20 1 0
BITMAP
1000
0800
2300
3E00
0000
0000
0C00
0C00
1C00
1E00
1600
3200
3200
2300
2300
7F00
6180
4180
C080
C0C0
ENDCHAR
STARTCHAR 1EB1
ENCODING 7857
SWIDTH 565 0
DWIDTH 11 0
BBX 9 17 1 0
BITMAP
1000
0800
2300
3E00
0000
0000
0000
3E00
6300
4180
0180
3F80
6180
4180
C180
6780
3D80
ENDCHAR
STARTCHAR 1EB2
ENCODING 7858
SWIDTH 565 0
DWIDTH 11 0
BBX 10 20 1 0
BITMAP
0C00
0600
0C00
2300
3E00
0000
0C00
0C00
1C00
1E00
1600
3200
3200
2300
2300
7F00
6180
4180
C080
C0C0
ENDCHAR
STARTCHAR 1EB3
ENCODING 7859
SWIDTH 565 0
DWIDTH 11 0
BBX 9 17 1 0
BITMAP
0C00
0600
0C00
2300
3E00
0000
0000
3E00
6300
4180
0180
3F80
6180
4180
C180
6780
3D80
ENDCHAR
STARTCHAR 1EB4
ENCODING 7860
SWIDTH 565 0
DWIDTH 11 0
BBX 10 19 1 0
BITMAP
1D00
1600
2000
1B00
0400
0C00
0C00
1C00
1E00
1600
3200
3200
2300
2300
7F00
6180
4180
C080
C0C0
ENDCHAR
STARTCHAR 1EB5
ENCODING 7861
SWIDTH 565 0
DWIDTH 11 0
BBX 9 16 1 0
BITMAP
1D00
1600
2000
1B00
0400
0000
3E00
6300
4180
0180
3F80
6180
4180
C180
6780
3D80
ENDCHAR
STARTCHAR 1EB6
ENCODING 7862
SWIDTH 565 0
DWIDTH 11 0
BBX 10 21 1 -3
BITMAP
2200
3200
1C00
0000
0C00
0C00
1C00
1E00
1600
3200
3200
2300
2300
7F00
6180
4180
C080
C0C0
0000
0C00
0C00
ENDCHAR
STARTCHAR 1EB7
ENCODING 7863
SWIDTH 565 0
DWIDTH 11 0
BBX 9 18 1 -3
BITMAP
2200
3200
1C00
0000
0000
3E00
6300
4180
0180
3F80
6180
4180
C180
6780
3D80
0000
1800
1800
ENDCHAR
STARTCHAR 1EB8
ENCODING 7864
SWIDTH 565 0
DWIDTH 11 0
BBX 8 17 2 -3
BITMAP
FF
FF
80
80
80
80
FE
FE
80
80
80
80
80
FF
00
30
30
ENDCHAR
STARTCHAR 1EB9
ENCODING 7865
SWIDTH 565 0
DWIDTH 11 0
BBX 9 13 1 -3
BITMAP
3E00
7300
6180
C180
FF80
C000
C000
6100
7180
3F00
0000
0C00
0C00
ENDCHAR
STARTCHAR 1EBA
ENCODING 7866
SWIDTH 565 0
DWIDTH 11 0
BBX 8 18 2 0
BITMAP
18
0C
18
00
FF
FF
80
80
80
80
FE
FE
80
80
80
80
80
FF
ENDCHAR
STARTCHAR 1EBB
ENCODING 7867
SWIDTH 565 0
DWIDTH 11 0
BBX 9 15 1 0
BITMAP
0C00
0600
0C00
0000
0000
3E00
7300
6180
C180
FF80
C000
C000
6100
7180
3F00
ENDCHAR
STARTCHAR 1EBC
ENCODING 7868
SWIDTH 565 0
DWIDTH 11 0
BBX 8 17 2 0
BITMAP
72
DC
00
FF
FF
80
80
80
80
FE
FE
80
80
80
80
80
FF
ENDCHAR
STARTCHAR 1EBD
ENCODING 7869
SWIDTH 565 0
DWIDTH 11 0
BBX 9 14 1 0
BITMAP
3900
6E00
0000
0000
3E00
7300
6180
C180
FF80
C000
C000
6100
7180
3F00
ENDCHAR
STARTCHAR 1EBE
ENCODING 7870
SWIDTH 565 0
DWIDTH 11 0
BBX 10 19 2 0
BITMAP
00C0
0180
1900
6400
8200
FF00
FF00
8000
8000
8000
8000
FE00
FE00
8000
8000
8000
8000
8000
FF00
ENDCHAR
STARTCHAR 1EBF
ENCODING 7871
SWIDTH 565 0
DWIDTH 11 0
BBX 11 16 1 0
BITMAP
0060
00C0
0C80
3200
4100
0000
3E00
7300
6180
C180
FF80
C000
C000
6100
7180
3F00
ENDCHAR
STARTCHAR 1EC0
ENCODING 7872
SWIDTH 565 0
DWIDTH 11 0
BBX 10 19 0 0
BITMAP
C000
6000
2600
0980
1000
3FC0
3FC0
2000
2000
2000
2000
3F80
3F80
2000
2000
2000
2000
2000
3FC0
ENDCHAR
STARTCHAR 1EC1
ENCODING 7873
SWIDTH 565 0
DWIDTH 11 0
BBX 10 16 0 0
BITMAP
C000
6000
2600
0980
1000
0000
1F00
3980
30C0
60C0
7FC0
6000
6000
3080
38C0
1F80
ENDCHAR
STARTCHAR 1EC2
ENCODING 7874
SWIDTH 565 0
DWIDTH 11 0
BBX 9 19 2 0
BITMAP
0180
0080
3900
6400
8200
FF00
FF00
8000
8000
8000
8000
FE00
FE00
8000
8000
8000
8000
8000
FF00
ENDCHAR
STARTCHAR 1EC3
ENCODING 7875
SWIDTH 565 0
DWIDTH 11 0
BBX 10 16 1 0
BITMAP
00C0
0040
1C80
3200
4100
0000
3E00
7300
6180
C180
FF80
C000
C000
6100
7180
3F00
ENDCHAR
STARTCHAR 1EC4
ENCODING 7876
SWIDTH 565 0
DWIDTH 11 0
BBX 8 20 2 0
BITMAP
04
3C
40
18
64
02
FF
FF
80
80
80
80
FE
FE
80
80
80
80
80
FF
ENDCHAR
STARTCHAR 1EC5
ENCODING 7877
SWIDTH 565 0
DWIDTH 11 0
BBX 9 17 1 0
BITMAP
0200
1E00
2000
0C00
3200
0100
0000
3E00
7300
6180
C180
FF80
C000
C000
6100
7180
3F00
ENDCHAR
STARTCHAR 1EC6
ENCODING 7878
SWIDTH 565 0
DWIDTH 11 0
BBX 8 20 2 -3
BITMAP
38
6C
00
FF
FF
80
80
80
80
FE
FE
80
80
80
80
80
FF
00
30
30
ENDCHAR
STARTCHAR 1EC7
ENCODING 7879
SWIDTH 565 0
DWIDTH 11 0
BBX 9 17 1 -3
BITMAP
1C00
3600
0000
0000
3E00
7300
6180
C180
FF80
C000
C000
6100
7180
3F00
0000
0C00
0C00
ENDCHAR
STARTCHAR 1EC8
ENCODING 7880
SWIDTH 565 0
DWIDTH 11 0
BBX 8 18 2 0
BITMAP
18
0C
18
00
FF
FF
18
18
18
18
18
18
18
18
18
18
18
FF
ENDCHAR
STARTCHAR 1EC9
ENCODING 7881
SWIDTH 565 0
DWIDTH 11 0
BBX 8 15 2 0
BITMAP
0C
06
0C
00
00
F8
18
18
18
18
18
18
18
18
FF
ENDCHAR
STARTCHAR 1ECA
ENCODING 7882
SWIDTH 565 0
DWIDTH 11 0
BBX 8 17 2 -3
BITMAP
FF
FF
18
18
18
18
18
18
18
18
18
18
18
FF
00
30
30
ENDCHAR
STARTCHAR 1ECB
ENCODING 7883
SWIDTH 565 0
DWIDTH 11 0
BBX 8 17 2 -3
BITMAP
18
18
00
00
F8
18
18
18
18
18
18
18
18
FF
00
18
18
ENDCHAR
STARTCHAR 1ECC
ENCODING 7884
SWIDTH 565 0
DWIDTH 11 0
BBX 9 17 1 -3
BITMAP
1C00
3F00
6300
4180
C180
C080
C080
C080
C080
C080
C180
6180
7300
3E00
0000
0C00
0C00
ENDCHAR
STARTCHAR 1ECD
ENCODING 7885
SWIDTH 565 0
DWIDTH 11 0
BBX 9 13 1 -3
BITMAP
3E00
6300
4180
C180
C080
C080
C180
4180
6300
3E00
0000
1800
1800
ENDCHAR
STARTCHAR 1ECE
ENCODING 7886
SWIDTH 565 0
DWIDTH 11 0
BBX 9 18 1 0
BITMAP
0C00
0600
0C00
0000
1C00
3F00
6300
4180
C180
C080
C080
C080
C080
C080
C180
6180
7300
3E00
ENDCHAR
STARTCHAR 1ECF
ENCODING 7887
SWIDTH 565 0
DWIDTH 11 0
BBX 9 15 1 0
BITMAP
0C00
0600
0C00
0000
0000
3E00
6300
4180
C180
C080
C080
C180
4180
6300
3E00
ENDCHAR
STARTCHAR 1ED0
ENCODING 7888
SWIDTH 565 0
DWIDTH 11 0
BBX 11 19 1 0
BITMAP
0060
00C0
0C80
3200
4100
1C00
3F00
6300
4180
C180
C080
C080
C080
C080
C080
C180
6180
7300
3E00
ENDCHAR
STARTCHAR 1ED1
ENCODING 7889
SWIDTH 565 0
DWIDTH 11 0
BBX 11 16 1 0
BITMAP
0060
00C0
0C80
3200
4100
0000
3E00
6300
4180
C180
C080
C080
C180
4180
6300
3E00
ENDCHAR
STARTCHAR 1ED2
ENCODING 7890
SWIDTH 565 0
DWIDTH 11 0
BBX 10 19 0 0
BITMAP
C000
6000
2600
0980
1000
0E00
1F80
3180
20C0
60C0
6040
6040
6040
6040
6040
60C0
30C0
3980
1F00
ENDCHAR
STARTCHAR 1ED3
ENCODING 7891
SWIDTH 565 0
DWIDTH 11 0
BBX 10 16 0 0
BITMAP
C000
6000
2600
0980
1000
0000
1F00
3180
20C0
60C0
6040
6040
60C0
20C0
3180
1F00
ENDCHAR
STARTCHAR 1ED4
ENCODING 7892
SWIDTH 565 0
DWIDTH 11 0
BBX 10 19 1 0
BITMAP
00C0
0040
1C80
3200
4100
1C00
3F00
6300
4180
C180
C080
C080
C080
C080
C080
C180
6180
7300
3E00
ENDCHAR
STARTCHAR 1ED5
ENCODING 7893
SWIDTH 565 0
DWIDTH 11 0
BBX 10 16 1 0
BITMAP
00C0
0040
1C80
3200
4100
0000
3E00
6300
4180
C180
C080
C080
C180
4180
6300
3E00
ENDCHAR
STARTCHAR 1ED6
ENCODING 7894
SWIDTH 565 0
DWIDTH 11 0
BBX 9 20 1 0
BITMAP
0200
1E00
2000
0C00
3200
0100
1C00
3F00
6300
4180
C180
C080
C080
C080
C080
C080
C180
6180
7300
3E00
ENDCHAR
STARTCHAR 1ED7
ENCODING 7895
SWIDTH 565 0
DWIDTH 11 0
BBX 9 17 1 0
BITMAP
0200
1E00
2000
0C00
3200
0100
0000
3E00
6300
4180
C180
C080
C080
C180
4180
6300
3E00
ENDCHAR
STARTCHAR 1ED8
ENCODING 7896
SWIDTH 565 0
DWIDTH 11 0
BBX 9 20 1 -3
BITMAP
1C00
3600
0000
1C00
3F00
6300
4180
C180
C080
C080
C080
C080
C080
C180
6180
7300
3E00
0000
0C00
0C00
ENDCHAR
STARTCHAR 1ED9
ENCODING 7897
SWIDTH 565 0
DWIDTH 11 0
BBX 9 17 1 -3
BITMAP
1C00
3600
0000
0000
3E00
6300
4180
C180
C080
C080
C180
4180
6300
3E00
0000
1800
1800
ENDCHAR
STARTCHAR 1EDA
ENCODING 7898
SWIDTH 565 0
DWIDTH 11 0
BBX 10 17 1 0
BITMAP
0700
0400
0800
1C40
3FC0
6380
C180
C180
C080
C080
C080
C080
C080
C180
4180
7300
3E00
ENDCHAR
STARTCHAR 1EDB
ENCODING 7899
SWIDTH 565 0
DWIDTH 11 0
BBX 10 14 1 0
BITMAP
0700
0400
0800
0040
3EC0
6380
4180
C180
C080
C080
C180
4180
6300
3E00
ENDCHAR
STARTCHAR 1EDC
ENCODING 7900
SWIDTH 565 0
DWIDTH 11 0
BBX 10 17 1 0
BITMAP
3000
1800
0800
1C40
3FC0
6380
C180
C180
C080
C080
C080
C080
C080
C180
4180
7300
3E00
ENDCHAR
STARTCHAR 1EDD
ENCODING 7901
SWIDTH 565 0
DWIDTH 11 0
BBX 10 14 1 0
BITMAP
3000
1800
0C00
0040
3EC0
6380
4180
C180
C080
C080
C180
4180
6300
3E00
ENDCHAR
STARTCHAR 1EDE
ENCODING 7902
SWIDTH 565 0
DWIDTH 11 0
BBX 10 18 1 0
BITMAP
0C00
0600
0C00
0000
1C40
3FC0
6380
C180
C180
C080
C080
C080
C080
C080
C180
4180
7300
3E00
ENDCHAR
STARTCHAR 1EDF
ENCODING 7903
SWIDTH 565 0
DWIDTH 11 0
BBX 10 15 1 0
BITMAP
0C00
0600
0C00
0000
0040
3EC0
6380
4180
C180
C080
C080
C180
4180
6300
3E00
ENDCHAR
STARTCHAR 1EE0
ENCODING 7904
SWIDTH 565 0
DWIDTH 11 0
BBX 10 17 1 0
BITMAP
3900
6E00
0000
1C40
3FC0
6380
C180
C180
C080
C080
C080
C080
C080
C180
4180
7300
3E00
ENDCHAR
STARTCHAR 1EE1
ENCODING 7905
SWIDTH 565 0
DWIDTH 11 0
BBX 10 14 1 0
BITMAP
3900
6E00
0000
0040
3EC0
6380
4180
C180
C080
C080
C180
4180
6300
3E00
ENDCHAR
STARTCHAR 1EE2
ENCODING 7906
SWIDTH 565 0
DWIDTH 11 0
BBX 10 17 1 -3
BITMAP
1C40
3FC0
6380
C180
C180
C080
C080
C080
C080
C080
C180
4180
7300
3E00
0000
1800
1800
ENDCHAR
STARTCHAR 1EE3
ENCODING 7907
SWIDTH 565 0
DWIDTH 11 0
BBX 10 14 1 -3
BITMAP
0040
3EC0
6380
4180
C180
C080
C080
C180
4180
6300
3E00
0000
1800
1800
ENDCHAR
STARTCHAR 1EE4
ENCODING 7908
SWIDTH 565 0
DWIDTH 11 0
BBX 9 17 1 -3
BITMAP
C180
C180
C180
C180
C180
C180
C180
C180
C180
C180
C180
4180
7300
3E00
0000
1800
1800
ENDCHAR
STARTCHAR 1EE5
ENCODING 7909
SWIDTH 565 0
DWIDTH 11 0
BBX 8 13 2 -3
BITMAP
83
83
83
83
83
83
83
C3
C7
7B
00
30
30
ENDCHAR
STARTCHAR 1EE6
ENCODING 7910
SWIDTH 565 0
DWIDTH 11 0
BBX 9 18 1 0
BITMAP
0600
0300
0600
0000
C180
C180
C180
C180
C180
C180
C180
C180
C180
C180
C180
4180
7300
3E00
ENDCHAR
STARTCHAR 1EE7
ENCODING 7911
SWIDTH 565 0
DWIDTH 11 0
BBX 8 15 2 0
BITMAP
18
0C
18
00
00
83
83
83
83
83
83
83
C3
C7
7B
ENDCHAR
STARTCHAR 1EE8
ENCODING 7912
SWIDTH 565 0
DWIDTH 11 0
BBX 12 17 1 0
BITMAP
0700
0400
0800
C190
C1B0
C1E0
C180
C180
C180
C180
C180
C180
C180
C180
4180
7300
3E00
ENDCHAR
STARTCHAR 1EE9
ENCODING 7913
SWIDTH 565 0
DWIDTH 11 0
BBX 10 14 2 0
BITMAP
0E00
0800
1000
0040
8340
83C0
8300
8300
8300
8300
8300
C300
C700
7B00
ENDCHAR
STARTCHAR 1EEA
ENCODING 7914
SWIDTH 565 0
DWIDTH 11 0
BBX 12 17 1 0
BITMAP
3000
1800
0C00
C190
C1B0
C1E0
C180
C180
C180
C180
C180
C180
C180
C180
4180
7300
3E00
ENDCHAR
STARTCHAR 1EEB
ENCODING 7915
SWIDTH 565 0
DWIDTH 11 0
BBX 10 14 2 0
BITMAP
6000
3000
1800
0040
8340
83C0
8300
8300
8300
8300
8300
C300
C700
7B00
ENDCHAR
STARTCHAR 1EEC
ENCODING 7916
SWIDTH 565 0
DWIDTH 11 0
BBX 12 18 1 0
BITMAP
0C00
0600
0C00
0000
C190
C1B0
C1E0
C180
C180
C180
C180
C180
C180
C180
C180
4180
7300
3E00
ENDCHAR
STARTCHAR 1EED
ENCODING 7917
SWIDTH 565 0
DWIDTH 11 0
BBX 10 15 2 0
BITMAP
1800
0C00
1800
0000
0040
8340
83C0
8300
8300
8300
8300
8300
C300
C700
7B00
ENDCHAR
STARTCHAR 1EEE
ENCODING 7918
SWIDTH 565 0
DWIDTH 11 0
BBX 12 17 1 0
BITMAP
3900
6E00
0000
C190
C1B0
C1E0
C180
C180
C180
C180
C180
C180
C180
C180
4180
7300
3E00
ENDCHAR
STARTCHAR 1EEF
ENCODING 7919
SWIDTH 565 0
DWIDTH 11 0
BBX 10 14 2 0
BITMAP
7200
DC00
0000
0040
8340
83C0
8300
8300
8300
8300
8300
C300
C700
7B00
ENDCHAR
STARTCHAR 1EF0
ENCODING 7920
SWIDTH 565 0
DWIDTH 11 0
BBX 12 17 1 -3
BITMAP
C190
C1B0
C1E0
C180
C180
C180
C180
C180
C180
C180
C180
4180
7300
3E00
0000
1800
1800
ENDCHAR
STARTCHAR 1EF1
ENCODING 7921
SWIDTH 565 0
DWIDTH 11 0
BBX 10 14 2 -3
BITMAP
0040
8340
83C0
8300
8300
8300
8300
8300
C300
C700
7B00
0000
3000
3000
ENDCHAR
STARTCHAR 1EF2
ENCODING 7922
SWIDTH 565 0
DWIDTH 11 0
BBX 10 17 1 0
BITMAP
3000
1800
0C00
C0C0
C180
4180
6300
2300
3600
1600
1C00
0C00
0800
0800
0800
0800
0800
ENDCHAR
STARTCHAR 1EF3
ENCODING 7923
SWIDTH 565 0
DWIDTH 11 0
BBX 10 18 1 -4
BITMAP
3000
1800
0C00
0000
C0C0
C180
6180
6300
2300
3200
1600
1C00
1C00
0C00
1800
1800
B000
E000
ENDCHAR
STARTCHAR 1EF4
ENCODING 7924
SWIDTH 565 0
DWIDTH 11 0
BBX 10 17 1 -3
BITMAP
C0C0
C180
4180
6300
2300
3600
1600
1C00
0C00
0800
0800
0800
0800
0800
0000
1800
1800
ENDCHAR
STARTCHAR 1EF5
ENCODING 7925
SWIDTH 565 0
DWIDTH 11 0
BBX 10 14 1 -4
BITMAP
C0C0
C180
6180
6300
2300
3200
1600
1C00
1C00
0C00
1800
1800
B600
E600
ENDCHAR
STARTCHAR 1EF6
ENCODING 7926
SWIDTH 565 0
DWIDTH 11 0
BBX 10 18 1 0
BITMAP
0C00
0600
0C00
0000
C0C0
C180
4180
6300
2300
3600
1600
1C00
0C00
0800
0800
0800
0800
0800
ENDCHAR
STARTCHAR 1EF7
ENCODING 7927
SWIDTH 565 0
DWIDTH 11 0
BBX 10 19 1 -4
BITMAP
0C00
0600
0C00
0000
0000
C0C0
C180
6180
6300
2300
3200
1600
1C00
1C00
0C00
1800
1800
B000
E000
ENDCHAR
STARTCHAR 1EF8
ENCODING 7928
SWIDTH 565 0
DWIDTH 11 0
BBX 10 17 1 0
BITMAP
3900
6E00
0000
C0C0
C180
4180
6300
2300
3600
1600
1C00
0C00
0800
0800
0800
0800
0800
ENDCHAR
STARTCHAR 1EF9
ENCODING 7929
SWIDTH 565 0
DWIDTH 11 0
BBX 10 18 1 -4
BITMAP
3900
6E00
0000
0000
C0C0
C180
6180
6300
2300
3200
1600
1C00
1C00
0C00
1800
1800
B000
E000
ENDCHAR
STARTCHAR 1F4D
ENCODING 8013
SWIDTH 565 0
DWIDTH 11 0
BBX 11 15 -1 0
BITMAP
B000
A700
EFC0
18C0
1060
3060
3020
3020
3020
3020
3020
3060
1860
1CC0
0F80
ENDCHAR
STARTCHAR 2000
ENCODING 8192
SWIDTH 565 0
DWIDTH 11 0
BBX 0 0 0 0
BITMAP
ENDCHAR
STARTCHAR 2001
ENCODING 8193
SWIDTH 565 0
DWIDTH 11 0
BBX 0 0 0 0
BITMAP
ENDCHAR
STARTCHAR 2002
ENCODING 8194
SWIDTH 565 0
DWIDTH 11 0
BBX 0 0 0 0
BITMAP
ENDCHAR
STARTCHAR 2003
ENCODING 8195
SWIDTH 565 0
DWIDTH 11 0
BBX 0 0 0 0
BITMAP
ENDCHAR
STARTCHAR 2004
ENCODING 8196
SWIDTH 565 0
DWIDTH 11 0
BBX 0 0 0 0
BITMAP
ENDCHAR
STARTCHAR 2005
ENCODING 8197
SWIDTH 565 0
DWIDTH 11 0
BBX 0 0 0 0
BITMAP
ENDCHAR
STARTCHAR 2006
ENCODING 8198
SWIDTH 565 0
DWIDTH 11 0
BBX 0 0 0 0
BITMAP
ENDCHAR
STARTCHAR 2007
ENCODING 8199
SWIDTH 565 0
DWIDTH 11 0
BBX 0 0 0 0
BITMAP
ENDCHAR
STARTCHAR 2008
ENCODING 8200
SWIDTH 565 0
DWIDTH 11 0
BBX 0 0 0 0
BITMAP
ENDCHAR
STARTCHAR 2009
ENCODING 8201
SWIDTH 565 0
DWIDTH 11 0
BBX 0 0 0 0
BITMAP
ENDCHAR
STARTCHAR 200A
ENCODING 8202
SWIDTH 565 0
DWIDTH 11 0
BBX 0 0 0 0
BITMAP
ENDCHAR
STARTCHAR 200B
ENCODING 8203
SWIDTH 565 0
DWIDTH 11 0
BBX 0 0 0 0
BITMAP
ENDCHAR
STARTCHAR 2013
ENCODING 8211
SWIDTH 565 0
DWIDTH 11 0
BBX 10 1 1 6
BITMAP
FFC0
ENDCHAR
STARTCHAR 2014
ENCODING 8212
SWIDTH 565 0
DWIDTH 11 0
BBX 10 1 1 6
BITMAP
FFC0
ENDCHAR
STARTCHAR 2015
ENCODING 8213
SWIDTH 565 0
DWIDTH 11 0
BBX 10 1 1 6
BITMAP
FFC0
ENDCHAR
STARTCHAR 2017
ENCODING 8215
SWIDTH 565 0
DWIDTH 11 0
BBX 9 3 1 -3
BITMAP
FF80
0000
FF80
ENDCHAR
STARTCHAR 2018
ENCODING 8216
SWIDTH 565 0
DWIDTH 11 0
BBX 2 5 5 10
BITMAP
40
C0
80
80
80
ENDCHAR
STARTCHAR 2019
ENCODING 8217
SWIDTH 565 0
DWIDTH 11 0
BBX 3 4 4 10
BITMAP
60
60
60
C0
ENDCHAR
STARTCHAR 201A
ENCODING 8218
SWIDTH 565 0
DWIDTH 11 0
BBX 3 5 4 -3
BITMAP
60
60
60
C0
40
ENDCHAR
STARTCHAR 201B
ENCODING 8219
SWIDTH 565 0
DWIDTH 11 0
BBX 3 4 4 10
BITMAP
C0
C0
40
60
ENDCHAR
STARTCHAR 201C
ENCODING 8220
SWIDTH 565 0
DWIDTH 11 0
BBX 6 5 3 10
BITMAP
44
CC
88
88
88
ENDCHAR
STARTCHAR 201D
ENCODING 8221
SWIDTH 565 0
DWIDTH 11 0
BBX 6 4 3 10
BITMAP
6C
6C
6C
D8
ENDCHAR
STARTCHAR 201E
ENCODING 8222
SWIDTH 565 0
DWIDTH 11 0
BBX 5 5 3 -3
BITMAP
58
58
58
D8
B0
ENDCHAR
STARTCHAR 2020
ENCODING 8224
SWIDTH 565 0
DWIDTH 11 0
BBX 9 14 1 0
BITMAP
0C00
0C00
0C00
0C00
FF80
0C00
0C00
0C00
0C00
0C00
0C00
0C00
0C00
0C00
ENDCHAR
STARTCHAR 2021
ENCODING 8225
SWIDTH 565 0
DWIDTH 11 0
BBX 9 18 1 -4
BITMAP
0C00
0C00
0C00
0C00
FF80
0C00
0C00
0C00
0C00
0C00
0C00
0C00
0C00
FF80
0C00
0C00
0C00
0C00
ENDCHAR
STARTCHAR 2022
ENCODING 8226
SWIDTH 565 0
DWIDTH 11 0
BBX 4 4 4 5
BITMAP
E0
F0
F0
E0
ENDCHAR
STARTCHAR 2025
ENCODING 8229
SWIDTH 565 0
DWIDTH 11 0
BBX 6 2 4 0
BITMAP
CC
CC
ENDCHAR
STARTCHAR 2026
ENCODING 8230
SWIDTH 565 0
DWIDTH 11 0
BBX 9 2 3 0
BITMAP
D980
D980
ENDCHAR
STARTCHAR 2030
ENCODING 8240
SWIDTH 565 0
DWIDTH 11 0
BBX 10 14 1 0
BITMAP
6000
B000
9000
9100
B200
EC00
1800
3000
4000
9FC0
3640
2640
3640
1F80
ENDCHAR
STARTCHAR 2032
ENCODING 8242
SWIDTH 565 0
DWIDTH 11 0
BBX 1 4 5 10
BITMAP
80
80
80
80
ENDCHAR
STARTCHAR 2033
ENCODING 8243
SWIDTH 565 0
DWIDTH 11 0
BBX 5 4 3 10
BITMAP
C8
C8
C8
C8
ENDCHAR
STARTCHAR 2039
ENCODING 8249
SWIDTH 565 0
DWIDTH 11 0
BBX 4 8 4 1
BITMAP
30
60
40
C0
C0
40
20
30
ENDCHAR
STARTCHAR 203A
ENCODING 8250
SWIDTH 565 0
DWIDTH 11 0
BBX 4 8 4 1
BITMAP
80
40
60
30
20
60
C0
80
ENDCHAR
STARTCHAR 203C
ENCODING 8252
SWIDTH 565 0
DWIDTH 11 0
BBX 10 14 1 0
BITMAP
8080
8080
8080
8080
8080
8080
8080
8080
8080
8080
0000
0000
8080
C0C0
ENDCHAR
STARTCHAR 2044
ENCODING 8260
SWIDTH 565 0
DWIDTH 11 0
BBX 6 9 3 2
BITMAP
0C
18
10
30
20
60
40
C0
80
ENDCHAR
STARTCHAR 2074
ENCODING 8308
SWIDTH 565 0
DWIDTH 11 0
BBX 7 9 3 5
BITMAP
08
18
38
68
48
88
FE
08
08
ENDCHAR
STARTCHAR 207F
ENCODING 8319
SWIDTH 565 0
DWIDTH 11 0
BBX 6 8 3 6
BITMAP
10
BC
CC
CC
CC
CC
CC
CC
ENDCHAR
STARTCHAR 20A3
ENCODING 8355
SWIDTH 565 0
DWIDTH 11 0
BBX 10 14 0 0
BITMAP
3FC0
3FC0
3000
3000
3000
3000
3000
3F80
3000
3000
3000
FC00
3000
3000
ENDCHAR
STARTCHAR 20A4
ENCODING 8356
SWIDTH 565 0
DWIDTH 11 0
BBX 10 14 1 0
BITMAP
0E00
3F00
3180
6080
6000
6000
FC00
6000
E000
FC00
2000
6000
6000
FFC0
ENDCHAR
STARTCHAR 20A7
ENCODING 8359
SWIDTH 565 0
DWIDTH 11 0
BBX 10 14 1 0
BITMAP
E000
F800
C900
CD00
CFC0
CD00
CD00
F900
F100
C100
C100
C100
C180
C1C0
ENDCHAR
STARTCHAR 20AB
ENCODING 8363
SWIDTH 565 0
DWIDTH 11 0
BBX 11 16 1 -2
BITMAP
0180
0180
07E0
0180
3F80
7380
6180
C180
C180
C180
C180
6180
7380
3F80
0000
FF80
ENDCHAR
STARTCHAR 20AC
ENCODING 8364
SWIDTH 565 0
DWIDTH 11 0
BBX 9 14 1 0
BITMAP
0780
1F80
1800
3000
3000
FE00
FE00
3000
FE00
3000
3000
3000
1880
0F80
ENDCHAR
STARTCHAR 2105
ENCODING 8453
SWIDTH 565 0
DWIDTH 11 0
BBX 10 14 1 0
BITMAP
6000
D000
9000
8300
9200
F600
6400
0800
0B80
16C0
3440
2440
06C0
0380
ENDCHAR
STARTCHAR 2113
ENCODING 8467
SWIDTH 565 0
DWIDTH 11 0
BBX 7 14 2 0
BITMAP
0C
1E
32
32
32
36
36
3C
F8
F0
30
30
18
1C
ENDCHAR
STARTCHAR 2116
ENCODING 8470
SWIDTH 565 0
DWIDTH 11 0
BBX 10 14 1 0
BITMAP
CD80
CD40
CD40
ED40
ED40
ED80
FDC0
FC00
DC00
DC00
DC00
DC00
CC00
CC00
ENDCHAR
STARTCHAR 2122
ENCODING 8482
SWIDTH 565 0
DWIDTH 11 0
BBX 9 5 1 9
BITMAP
F880
4C80
4D80
4B80
4A80
ENDCHAR
STARTCHAR 2126
ENCODING 8486
SWIDTH 565 0
DWIDTH 11 0
BBX 10 14 1 0
BITMAP
1C00
3F00
6180
C180
C080
C080
C080
C080
C080
C080
4180
6100
3600
F7C0
ENDCHAR
STARTCHAR 212E
ENCODING 8494
SWIDTH 565 0
DWIDTH 11 0
BBX 10 10 1 0
BITMAP
1F00
2080
6080
60C0
FFC0
E000
6000
6000
2080
1F00
ENDCHAR
STARTCHAR 215B
ENCODING 8539
SWIDTH 565 0
DWIDTH 11 0
BBX 10 13 1 0
BITMAP
E000
A000
2300
2600
2400
2C00
0980
1AC0
1640
3380
2640
0640
03C0
ENDCHAR
STARTCHAR 215C
ENCODING 8540
SWIDTH 565 0
DWIDTH 11 0
BBX 11 14 0 0
BITMAP
3000
7800
0800
3980
0900
CF00
7A00
06C0
0560
0D20
09C0
1120
0320
01E0
ENDCHAR
STARTCHAR 215D
ENCODING 8541
SWIDTH 565 0
DWIDTH 11 0
BBX 11 14 0 0
BITMAP
7800
7800
4000
7980
0900
CA00
7E00
05C0
0F60
0B20
19C0
1320
0320
01E0
ENDCHAR
STARTCHAR 215E
ENCODING 8542
SWIDTH 565 0
DWIDTH 11 0
BBX 10 14 1 0
BITMAP
F800
F800
1000
3200
2400
6400
4800
9B80
16C0
3640
2380
6640
0640
0380
ENDCHAR
STARTCHAR 2202
ENCODING 8706
SWIDTH 565 0
DWIDTH 11 0
BBX 9 14 1 0
BITMAP
7C00
6600
0300
0180
0180
3F80
6180
C180
C180
C180
C180
4180
6300
3E00
ENDCHAR
STARTCHAR 2206
ENCODING 8710
SWIDTH 565 0
DWIDTH 11 0
BBX 11 14 0 0
BITMAP
0600
0600
0600
0F00
0B00
1900
1980
1180
3080
30C0
20C0
6040
6060
FFE0
ENDCHAR
STARTCHAR 220F
ENCODING 8719
SWIDTH 565 0
DWIDTH 11 0
BBX 8 16 2 -2
BITMAP
FF
FF
83
83
83
83
83
83
83
83
83
83
83
83
83
83
ENDCHAR
STARTCHAR 2211
ENCODING 8721
SWIDTH 565 0
DWIDTH 11 0
BBX 11 16 0 -2
BITMAP
FFC0
FFC0
6000
3000
1800
0C00
0C00
0600
0300
0600
0C00
0C00
1800
3000
6000
FFE0
ENDCHAR
STARTCHAR 2212
ENCODING 8722
SWIDTH 565 0
DWIDTH 11 0
BBX 7 1 2 6
BITMAP
FE
ENDCHAR
STARTCHAR 2215
ENCODING 8725
SWIDTH 565 0
DWIDTH 11 0
BBX 8 15 2 -1
BITMAP
03
02
06
04
0C
0C
08
18
10
10
30
20
60
60
C0
ENDCHAR
STARTCHAR 221A
ENCODING 8730
SWIDTH 565 0
DWIDTH 11 0
BBX 10 14 1 0
BITMAP
00C0
0080
0180
0180
0100
0300
0300
E200
6600
2600
3400
1C00
1800
1800
ENDCHAR
STARTCHAR 221E
ENCODING 8734
SWIDTH 565 0
DWIDTH 11 0
BBX 11 7 0 2
BITMAP
79C0
4A60
4620
C420
4620
4B60
31C0
ENDCHAR
STARTCHAR 222B
ENCODING 8747
SWIDTH 565 0
DWIDTH 11 0
BBX 7 19 2 -4
BITMAP
06
1E
18
10
10
10
10
10
10
10
10
10
10
10
10
10
10
30
E0
ENDCHAR
STARTCHAR 2248
ENCODING 8776
SWIDTH 565 0
DWIDTH 11 0
BBX 9 6 1 3
BITMAP
7880
8F80
0000
2080
7880
8F80
ENDCHAR
STARTCHAR 2260
ENCODING 8800
SWIDTH 565 0
DWIDTH 11 0
BBX 8 8 2 2
BITMAP
04
FF
FF
08
10
FF
FF
60
ENDCHAR
STARTCHAR 2264
ENCODING 8804
SWIDTH 565 0
DWIDTH 11 0
BBX 8 11 2 0
BITMAP
01
0F
38
E0
E0
3C
07
01
00
00
FE
ENDCHAR
STARTCHAR 2265
ENCODING 8805
SWIDTH 565 0
DWIDTH 11 0
BBX 8 11 2 0
BITMAP
80
F0
1E
03
0E
78
C0
00
00
00
FF
ENDCHAR
STARTCHAR 25CA
ENCODING 9674
SWIDTH 565 0
DWIDTH 11 0
BBX 9 14 1 0
BITMAP
0800
1C00
1400
3600
2300
6300
4180
C180
6100
2300
3200
1600
1C00
0C00
ENDCHAR
STARTCHAR F6C3
ENCODING 63171
SWIDTH 565 0
DWIDTH 11 0
BBX 2 4 3 -2
BITMAP
C0
C0
C0
80
ENDCHAR
STARTCHAR FEFF
ENCODING 65279
SWIDTH 565 0
DWIDTH 11 0
BBX 0 0 0 0
BITMAP
ENDCHAR
STARTCHAR FFFC
ENCODING 65532
SWIDTH 565 0
DWIDTH 11 0
BBX 10 10 1 0
BITMAP
AFC0
8040
0000
A840
D4C0
DCC0
AD40
8040
8040
AFC0
ENDCHAR
STARTCHAR FFFD
ENCODING 65533
SWIDTH 565 0
DWIDTH 11 0
BBX 11 18 0 0
BITMAP
0400
0600
0E00
0F00
1F00
3180
20C0
64C0
FCE0
FDE0
79C0
3FC0
3980
1900
1F00
0E00
0600
0400
ENDCHAR
ENDFONT
